<svg width="48" height="48" viewBox="0 0 48 48" fill="none" xmlns="http://www.w3.org/2000/svg">
<mask id="mask0" mask-type="alpha" maskUnits="userSpaceOnUse" x="0" y="0" width="48" height="48">
<rect width="48" height="48" fill="#C4C4C4"/>
</mask>
<g mask="url(#mask0)">
<path d="M9.93604 36.2734H38.0211V43.5366C38.0211 44.6412 37.1257 45.5366 36.0211 45.5366H11.936C10.8315 45.5366 9.93604 44.6412 9.93604 43.5366V36.2734Z" fill="#E9F0FF"/>
<path d="M38.9574 36.2737V42C38.9574 44.2091 37.1666 46 34.9574 46H13C10.7909 46 9 44.2091 9 42V6C9 3.79086 10.7909 2 13 2H34.9574C37.1666 2 38.9574 3.79086 38.9574 6V31.1789" stroke="#256BFF" stroke-width="2" stroke-linecap="round"/>
<path fill-rule="evenodd" clip-rule="evenodd" d="M22.2316 14.1602C22.0266 13.9466 21.6944 13.9466 21.4894 14.1602C21.2845 14.3738 21.2845 14.7201 21.4894 14.9337L21.7647 15.2628C20.4408 16.0662 19.5508 17.5613 19.5508 19.273V23.7007C19.5508 24.6069 20.2557 25.3415 21.1252 25.3415H21.7093V27.4531C21.7093 27.7551 21.9442 28 22.234 28C22.5239 28 22.7588 27.7551 22.7588 27.4531V25.3415H25.2412V27.4531C25.2412 27.7551 25.4761 28 25.766 28C26.0558 28 26.2907 27.7551 26.2907 27.4531V25.3415H26.8748C27.7443 25.3415 28.4492 24.6069 28.4492 23.7007V19.273C28.4492 17.5613 27.5592 16.0661 26.2353 15.2628L26.5106 14.9337C26.7155 14.7201 26.7155 14.3738 26.5106 14.1602C26.3056 13.9466 25.9734 13.9466 25.7684 14.1602L25.3949 14.5917C25.3302 14.6591 25.286 14.7397 25.2621 14.8252C24.862 14.7021 24.4384 14.636 24 14.636C23.5616 14.636 23.138 14.7021 22.7379 14.8252C22.714 14.7397 22.6698 14.6591 22.6051 14.5917L22.2316 14.1602ZM26.8748 24.2476H25.766H22.234H21.1252C20.8354 24.2476 20.6004 24.0027 20.6004 23.7007V20.4334H27.3996V23.7007C27.3996 24.0027 27.1646 24.2476 26.8748 24.2476ZM27.3996 19.3395H20.6004V19.273C20.6004 17.3162 22.1225 15.7299 24 15.7299C25.8775 15.7299 27.3996 17.3162 27.3996 19.273V19.3395ZM18.0496 18.455C18.0496 18.1529 17.8146 17.908 17.5248 17.908C17.235 17.908 17 18.1529 17 18.455V23.772C17 24.0741 17.235 24.319 17.5248 24.319C17.8146 24.319 18.0496 24.0741 18.0496 23.772V18.455ZM31 18.455C31 18.1529 30.765 17.908 30.4752 17.908C30.1854 17.908 29.9504 18.1529 29.9504 18.455V23.772C29.9504 24.0741 30.1854 24.319 30.4752 24.319C30.765 24.319 31 24.0741 31 23.772V18.455Z" fill="#256BFF"/>
<path d="M21.6382 40.9043H25.8509" stroke="#256BFF" stroke-width="2" stroke-linecap="round"/>
<path d="M9 36.2734H38.9574" stroke="#256BFF" stroke-width="2" stroke-linecap="round"/>
</g>
</svg>
