<svg width="48" height="48" viewBox="0 0 48 48" fill="none" xmlns="http://www.w3.org/2000/svg">
<mask id="mask0" mask-type="alpha" maskUnits="userSpaceOnUse" x="0" y="0" width="48" height="48">
<rect width="48" height="48" fill="#C4C4C4"/>
</mask>
<g mask="url(#mask0)">
<path d="M9.93604 36.2734H38.0211V43.5366C38.0211 44.6412 37.1257 45.5366 36.0211 45.5366H11.936C10.8315 45.5366 9.93604 44.6412 9.93604 43.5366V36.2734Z" fill="#E9F0FF"/>
<path d="M38.9574 36.2737V42C38.9574 44.2091 37.1666 46 34.9574 46H13C10.7909 46 9 44.2091 9 42V6C9 3.79086 10.7909 2 13 2H34.9574C37.1666 2 38.9574 3.79086 38.9574 6V31.1789" stroke="#256BFF" stroke-width="2" stroke-linecap="round"/>
<circle cx="24" cy="41" r="2" fill="#256BFF"/>
<path fill-rule="evenodd" clip-rule="evenodd" d="M27.6668 13.2895C27.97 12.9945 27.97 12.5162 27.6668 12.2212C27.3635 11.9263 26.8718 11.9263 26.5686 12.2212L25.1565 13.5948C24.8533 13.8898 24.8533 14.3681 25.1565 14.6631C25.4598 14.9581 25.9514 14.9581 26.2547 14.6631L27.6668 13.2895ZM29.3303 17.3723C28.553 16.6162 26.92 15.7499 25.1082 15.4853C23.2571 15.2151 21.1005 15.5619 19.4678 17.4149C18.2268 18.8233 17.7896 20.9509 18.0924 22.8713C18.3965 24.8006 19.4833 26.7144 21.5267 27.5332C22.6188 27.9708 24.3376 28.1483 25.8867 27.8579C27.4279 27.5689 29.0735 26.7509 29.5345 24.9573L29.6622 24.4606L29.2352 24.1613C28.4971 23.6438 28.1087 23.0822 27.9217 22.5423C27.7322 21.9953 27.7321 21.4187 27.8573 20.8563C27.983 20.2915 28.2312 19.7616 28.5085 19.3351C28.7957 18.8935 29.0728 18.6252 29.212 18.5349L30 18.0238L29.3303 17.3723ZM20.647 18.398C21.8384 17.0458 23.3966 16.7631 24.8777 16.9793C25.9635 17.1379 26.9454 17.5587 27.6065 17.9695C27.4634 18.1408 27.325 18.3291 27.196 18.5275C26.8384 19.0774 26.5098 19.7708 26.3394 20.5366C26.1684 21.3048 26.1525 22.1661 26.4499 23.0247C26.6986 23.7425 27.1542 24.4232 27.8588 25.0249C27.4823 25.7253 26.6768 26.1712 25.5928 26.3744C24.3076 26.6153 22.9001 26.4496 22.1183 26.1363C20.7331 25.5813 19.8782 24.2328 19.6275 22.6423C19.3754 21.0431 19.7699 19.3935 20.647 18.398Z" fill="#256BFF"/>
<path d="M9 36.2734H38.9574" stroke="#256BFF" stroke-width="2" stroke-linecap="round"/>
</g>
</svg>
