<svg width="48" height="48" viewBox="0 0 48 48" fill="none" xmlns="http://www.w3.org/2000/svg">
<mask id="mask0" mask-type="alpha" maskUnits="userSpaceOnUse" x="0" y="0" width="48" height="48">
<rect width="48" height="48" fill="#C4C4C4"/>
</mask>
<g mask="url(#mask0)">
<path d="M9.93555 36.2734H38.0206V43.5371C38.0206 44.6417 37.1252 45.5371 36.0206 45.5371H11.9355C10.831 45.5371 9.93555 44.6417 9.93555 43.5371V36.2734Z" fill="#E9F0FF"/>
<path d="M38.9574 36.2737V42C38.9574 44.2091 37.1666 46 34.9574 46H13C10.7909 46 9 44.2091 9 42V6C9 3.79086 10.7909 2 13 2H34.9574C37.1666 2 38.9574 3.79086 38.9574 6V31.1789" stroke="#256BFF" stroke-width="2" stroke-linecap="round"/>
<path d="M24 24C26.2091 24 28 22.2091 28 20C28 17.7909 26.2091 16 24 16C21.7909 16 20 17.7909 20 20C20 22.2091 21.7909 24 24 24Z" fill="#E9F0FF"/>
<path d="M23.9996 24.4502C21.5454 24.4502 19.5488 22.4536 19.5488 19.9995C19.5488 17.5454 21.5454 15.5488 23.9996 15.5488C26.4537 15.5488 28.4503 17.5454 28.4503 19.9995C28.4503 22.4536 26.4537 24.4502 23.9996 24.4502ZM23.9996 16.5379C22.0908 16.5379 20.5379 18.0908 20.5379 19.9995C20.5379 21.9083 22.0908 23.4612 23.9996 23.4612C25.9084 23.4612 27.4613 21.9083 27.4613 19.9995C27.4613 18.0908 25.9083 16.5379 23.9996 16.5379Z" fill="#256BFF"/>
<path d="M24.8216 29H23.1774C22.6076 29 22.144 28.5364 22.144 27.9666V27.2911C21.4435 27.1138 20.7776 26.8379 20.1561 26.4673L19.6782 26.9452C19.4851 27.1383 19.172 27.1383 18.9788 26.9452C18.7857 26.7521 18.7857 26.4389 18.9788 26.2457L19.7365 25.488C19.9037 25.3209 20.1657 25.2954 20.3619 25.4272C21.0841 25.9123 21.882 26.2429 22.7338 26.4101C22.9657 26.4556 23.133 26.659 23.133 26.8954V27.9665C23.133 27.991 23.1529 28.0108 23.1773 28.0108H24.8216C24.846 28.0108 24.8659 27.991 24.8659 27.9665V26.8954C24.8659 26.659 25.0332 26.4556 25.2651 26.4101C26.1169 26.2429 26.9149 25.9122 27.6369 25.4272C27.8332 25.2954 28.0953 25.3209 28.2624 25.488L29.0201 26.2457C29.0373 26.263 29.0654 26.263 29.0827 26.2457L30.2453 25.083C30.2626 25.0658 30.2626 25.0377 30.2453 25.0204L29.4877 24.2627C29.3206 24.0955 29.295 23.8335 29.4268 23.6372C29.9119 22.9151 30.2425 22.1171 30.4097 21.2653C30.4552 21.0333 30.6586 20.8661 30.895 20.8661H31.9661C31.9905 20.8661 32.0104 20.8462 32.0104 20.8218V19.1775C32.0104 19.153 31.9905 19.1332 31.9661 19.1332H30.895C30.6586 19.1332 30.4552 18.9658 30.4097 18.7339C30.2425 17.8821 29.9119 17.0841 29.4268 16.362C29.295 16.1657 29.3206 15.9037 29.4877 15.7365L30.2453 14.9788C30.4385 14.7857 30.7516 14.7857 30.9448 14.9788C31.1379 15.1719 31.1379 15.4851 30.9448 15.6782L30.4669 16.1561C30.8375 16.7776 31.1134 17.4436 31.2906 18.1441H31.9661C32.5359 18.1441 32.9995 18.6077 32.9995 19.1775V20.8218C32.9995 21.3917 32.5359 21.8553 31.9661 21.8553H31.2906C31.1134 22.5558 30.8374 23.2217 30.4669 23.8432L30.9448 24.3211C31.3477 24.724 31.3477 25.3796 30.9448 25.7825L29.7821 26.9453C29.3792 27.3482 28.7237 27.3481 28.3207 26.9453L27.8428 26.4673C27.2214 26.838 26.5554 27.1138 25.8549 27.2911V27.9667C25.855 28.5365 25.3914 29 24.8216 29Z" fill="#256BFF"/>
<path d="M17.4044 25.165C17.2778 25.165 17.1512 25.1168 17.0547 25.0202C16.8616 24.8271 16.8616 24.514 17.0547 24.3208L17.5326 23.8429C17.162 23.2215 16.8861 22.5556 16.7088 21.8551H16.0334C15.4636 21.8552 15 21.3916 15 20.8218V19.1776C15 18.6078 15.4636 18.1443 16.0334 18.1443H16.7089C16.8861 17.4438 17.1621 16.7779 17.5326 16.1564L17.0547 15.6786C16.6518 15.2757 16.6518 14.6202 17.0547 14.2172L18.2174 13.0546C18.6203 12.6517 19.2759 12.6518 19.6788 13.0546L20.1567 13.5325C20.7781 13.162 21.444 12.886 22.1446 12.7087V12.0333C22.1445 11.4636 22.608 11 23.1778 11H24.8221C25.3919 11 25.8555 11.4636 25.8555 12.0333V12.7088C26.556 12.8861 27.2219 13.162 27.8434 13.5326L28.3212 13.0547C28.5143 12.8616 28.8275 12.8616 29.0207 13.0547C29.2138 13.2478 29.2138 13.5609 29.0207 13.754L28.263 14.5117C28.0958 14.6788 27.8338 14.7044 27.6376 14.5725C26.9155 14.0876 26.1175 13.7569 25.2658 13.5897C25.0338 13.5442 24.8665 13.3408 24.8665 13.1044V12.0333C24.8665 12.0089 24.8466 11.9891 24.8222 11.9891H23.1779C23.1535 11.9891 23.1336 12.0089 23.1336 12.0333V13.1044C23.1336 13.3408 22.9663 13.5442 22.7344 13.5897C21.8826 13.7569 21.0846 14.0876 20.3626 14.5725C20.1663 14.7044 19.9043 14.6788 19.7371 14.5117L18.9793 13.754C18.9621 13.7366 18.934 13.7367 18.9167 13.754L17.7541 14.9167C17.7368 14.9339 17.7368 14.962 17.7541 14.9793L18.5117 15.7369C18.6788 15.9041 18.7044 16.1661 18.5726 16.3623C18.0875 17.0844 17.7569 17.8824 17.5897 18.7341C17.5442 18.9661 17.3408 19.1333 17.1044 19.1333H16.0333C16.0089 19.1333 15.989 19.1532 15.989 19.1776V20.8218C15.989 20.8462 16.0089 20.8661 16.0333 20.8661H17.1044C17.3408 20.8661 17.5442 21.0334 17.5897 21.2654C17.7569 22.1171 18.0875 22.915 18.5726 23.6371C18.7044 23.8333 18.6788 24.0954 18.5117 24.2625L17.7541 25.0202C17.6575 25.1168 17.531 25.165 17.4044 25.165Z" fill="#256BFF"/>
<path d="M21.6387 40.9053H25.8514" stroke="#256BFF" stroke-width="2" stroke-linecap="round"/>
<path d="M9 36.2734H38.9574" stroke="#256BFF" stroke-width="2" stroke-linecap="round"/>
</g>
</svg>
