<svg width="48" height="48" viewBox="0 0 48 48" fill="none" xmlns="http://www.w3.org/2000/svg">
<mask id="mask0" mask-type="alpha" maskUnits="userSpaceOnUse" x="0" y="0" width="48" height="48">
<rect width="48" height="48" fill="#C4C4C4"/>
</mask>
<g mask="url(#mask0)">
<path d="M3 11C3 8.79086 4.79086 7 7 7H41C43.2091 7 45 8.79086 45 11V15H3V11Z" fill="#E9F0FF"/>
<circle cx="7" cy="11" r="1" fill="#256BFF"/>
<circle cx="10" cy="11" r="1" fill="#256BFF"/>
<circle cx="13" cy="11" r="1" fill="#256BFF"/>
<path d="M19 27C19 25.8954 19.8954 25 21 25H27C28.1046 25 29 25.8954 29 27V33C29 34.1046 28.1046 35 27 35H21C19.8954 35 19 34.1046 19 33V27Z" fill="#E9F0FF"/>
<circle cx="24" cy="31" r="1" fill="#256BFF"/>
<path fill-rule="evenodd" clip-rule="evenodd" d="M22 23C22 21.8954 22.8954 21 24 21C25.1046 21 26 21.8954 26 23V24H22V23ZM20 24.1707V23C20 20.7909 21.7909 19 24 19C26.2091 19 28 20.7909 28 23V24.1707C29.1652 24.5825 30 25.6938 30 27V33C30 34.6569 28.6569 36 27 36H21C19.3431 36 18 34.6569 18 33V27C18 25.6938 18.8348 24.5825 20 24.1707ZM27 26C27.5523 26 28 26.4477 28 27V33C28 33.5523 27.5523 34 27 34H21C20.4477 34 20 33.5523 20 33V27C20 26.4477 20.4477 26 21 26H27Z" fill="#256BFF"/>
<path fill-rule="evenodd" clip-rule="evenodd" d="M7 6C4.23858 6 2 8.23858 2 11V36.5806C2 39.342 4.23858 41.5806 7 41.5806H41C42.2274 41.5806 43.4565 41.3192 44.4075 40.6436C45.4052 39.935 46 38.8356 46 37.4193V34.8117C46 34.2595 45.5523 33.8117 45 33.8117C44.4477 33.8117 44 34.2595 44 34.8117V37.4193C44 38.2122 43.6994 38.6934 43.2493 39.0131C42.7526 39.3659 41.9818 39.5806 41 39.5806H7C5.34315 39.5806 4 38.2374 4 36.5806V16H44V29.272C44 29.8242 44.4477 30.272 45 30.272C45.5523 30.272 46 29.8242 46 29.272V11C46 8.23858 43.7614 6 41 6H7ZM44 14V11C44 9.34315 42.6569 8 41 8H7C5.34315 8 4 9.34315 4 11V14H44Z" fill="#256BFF"/>
</g>
</svg>
