<svg width="48" height="48" viewBox="0 0 48 48" fill="none" xmlns="http://www.w3.org/2000/svg">
<mask id="mask0" mask-type="alpha" maskUnits="userSpaceOnUse" x="0" y="0" width="48" height="48">
<rect width="48" height="48" fill="#C4C4C4"/>
</mask>
<g mask="url(#mask0)">
<path d="M36.983 24.6938C36.9829 24.5135 36.8775 24.2886 36.7187 24.1087C36.5337 23.9511 36.2963 23.8386 36.0322 23.8383C30.6706 23.8159 27.1577 20.147 27.158 16.9058C27.1314 14.7675 29.0716 6.87231 29.0774 6.1025C29.093 3.93877 27.0389 2.17676 24.4998 2.17676C21.9606 2.17676 19.9064 3.93861 19.9223 6.1025C19.9279 6.87231 21.8682 14.7675 21.8416 16.9058C21.8419 20.147 18.329 23.8159 12.9674 23.8383C12.7032 23.8386 12.4659 23.9511 12.2809 24.1087C12.1221 24.2887 12.0166 24.5137 12.0166 24.6938L12 31.1719H37L36.983 24.6938Z" fill="#E9F0FF"/>
<path fill-rule="evenodd" clip-rule="evenodd" d="M20.1466 9.21627C19.6528 6.50019 21.7394 4 24.5 4C27.2606 4 29.3472 6.50018 28.8534 9.21627L27.3022 17.7478C26.5209 22.0447 29.8219 26 34.1893 26H35C35.5523 26 36 26.4477 36 27V32H13V27C13 26.4477 13.4477 26 14 26H14.8107C19.1781 26 22.4791 22.0447 21.6978 17.7478L20.1466 9.21627ZM13 34V44H24.9908L28.5 39.1748V37C28.5 36.4477 28.9477 36 29.5 36C30.0523 36 30.5 36.4477 30.5 37V39.5C30.5 39.7113 30.433 39.9173 30.3087 40.0882L26.3087 45.5882C26.1206 45.8469 25.8199 46 25.5 46H13C11.8954 46 11 45.1046 11 44V27C11 25.3431 12.3431 24 14 24H14.8107C17.9302 24 20.2881 21.1748 19.7301 18.1056L18.1789 9.57405C17.4618 5.63028 20.4916 2 24.5 2C28.5084 2 31.5382 5.63027 30.8211 9.57404L29.2699 18.1056C28.7119 21.1748 31.0698 24 34.1893 24H35C36.6569 24 38 25.3431 38 27V44C38 45.1046 37.1046 46 36 46H31C30.4477 46 30 45.5523 30 45C30 44.4477 30.4477 44 31 44H36V34H13Z" fill="#256BFF"/>
</g>
</svg>
