<svg width="48" height="48" viewBox="0 0 48 48" fill="none" xmlns="http://www.w3.org/2000/svg">
<mask id="mask0" mask-type="alpha" maskUnits="userSpaceOnUse" x="0" y="0" width="48" height="48">
<rect width="48" height="48" fill="#C4C4C4"/>
</mask>
<g mask="url(#mask0)">
<path d="M23.901 39.3672C23.7063 39.3672 23.5115 39.322 23.3331 39.2314C22.1196 38.616 20.2974 37.6307 18.507 36.4321C14.6037 33.8189 12.9899 31.6323 12.7937 30.554C12.7802 30.4799 12.7734 30.4047 12.7734 30.3293V15.1028C12.7734 14.4754 13.2365 13.9443 13.858 13.8588C17.2762 13.389 20.5329 11.8018 23.0283 9.38988C23.5151 8.91952 24.2868 8.91952 24.7736 9.38988C27.269 11.8018 30.5258 13.3889 33.9438 13.8588C34.5652 13.9444 35.0284 14.4753 35.0284 15.1028V30.3292C35.0284 30.4046 35.0216 30.4798 35.0082 30.5539C34.812 31.6323 33.1981 33.8189 29.295 36.432C27.5045 37.6306 25.6823 38.6159 24.4688 39.2313C24.2905 39.322 24.0958 39.3672 23.901 39.3672Z" fill="#E9F0FF"/>
<path d="M23.3518 28.1366C23.0304 28.1366 22.7092 28.0139 22.464 27.7688L18.7896 24.0944C18.2993 23.6041 18.2993 22.809 18.7896 22.3186C19.2801 21.8284 20.0748 21.8284 20.5654 22.3186L23.3519 25.1051L28.2261 20.2309C28.7166 19.7407 29.5113 19.7407 30.0019 20.2309C30.4922 20.7213 30.4922 21.5164 30.0019 22.0068L24.2397 27.7689C23.9945 28.014 23.6733 28.1366 23.3518 28.1366Z" fill="#CEE8FA"/>
<path fill-rule="evenodd" clip-rule="evenodd" d="M24.2279 37.1918C23.0322 36.5886 21.3819 35.6983 19.7713 34.6434C17.8635 33.3937 16.5773 32.2858 15.7694 31.4159C15.0457 30.6365 14.8246 30.1764 14.7734 30.0593V15.4713C18.2664 14.8823 21.5779 13.3062 24.228 10.9695C26.8781 13.3062 30.1898 14.8822 33.6825 15.4713V30.0592C33.6313 30.1763 33.4103 30.6364 32.6865 31.4158C31.8786 32.2858 30.5925 33.3937 28.6847 34.6433C27.0739 35.6983 25.4236 36.5887 24.2279 37.1918ZM23.3297 9.08184C23.8308 8.60814 24.6251 8.60814 25.1263 9.08184C27.695 11.5109 31.0475 13.1093 34.566 13.5826C35.2057 13.6687 35.6825 14.2035 35.6825 14.8354V30.1702C35.6825 30.2461 35.6755 30.3218 35.6617 30.3964C35.4597 31.4825 33.7984 33.6847 29.7806 36.3164C27.9374 37.5236 26.0617 38.5158 24.8125 39.1356C24.629 39.2269 24.4286 39.2725 24.228 39.2725C24.0276 39.2725 23.8271 39.2269 23.6434 39.1357C22.3943 38.5159 20.5185 37.5236 18.6755 36.3165C14.6575 33.6847 12.9963 31.4825 12.7943 30.3965C12.7804 30.3219 12.7734 30.2462 12.7734 30.1703V14.8354C12.7734 14.2036 13.2502 13.6687 13.8899 13.5826C17.4086 13.1094 20.7609 11.5109 23.3297 9.08184Z" fill="#256BFF"/>
<path d="M23.4299 28.455C23.1085 28.455 22.7873 28.3323 22.5421 28.0872L18.8677 24.4128C18.3774 23.9225 18.3774 23.1274 18.8677 22.637C19.3582 22.1468 20.153 22.1468 20.6435 22.637L23.43 25.4235L28.3042 20.5493C28.7947 20.0591 29.5894 20.0591 30.08 20.5493C30.5703 21.0396 30.5703 21.8347 30.08 22.3251L24.3178 28.0873C24.0726 28.3324 23.7514 28.455 23.4299 28.455Z" fill="#256BFF"/>
<path fill-rule="evenodd" clip-rule="evenodd" d="M21.0543 2.48103C21.2357 2.18236 21.5597 2 21.9091 2H27.0091C27.4188 2 27.7871 2.24992 27.9384 2.63067C28.3521 3.67161 28.9078 4.45183 29.3572 4.9691C29.5814 5.22721 29.7773 5.41765 29.9124 5.53996C29.9799 5.60103 30.0319 5.64484 30.0643 5.67136C30.0805 5.68461 30.0917 5.6935 30.0975 5.69805L30.1012 5.7009L30.0999 5.69994L30.0991 5.69931C30.1002 5.70011 30.1001 5.70009 30.1012 5.7009C30.5406 6.03193 30.6309 6.65671 30.3015 7.09809C29.9712 7.54072 29.3446 7.63178 28.902 7.30147L29.4853 6.51981C28.902 7.30147 28.9022 7.30168 28.902 7.30147L28.8996 7.29968L28.8966 7.29744L28.8889 7.29162L28.8669 7.27465C28.8494 7.26096 28.8262 7.24251 28.7978 7.2193C28.7411 7.17289 28.6637 7.10732 28.57 7.02254C28.383 6.85316 28.13 6.60606 27.8474 6.28081C27.379 5.7417 26.8241 4.98183 26.3553 4.00001H22.4604C19.7443 8.14101 16.1119 9.46786 13.1239 9.71336C11.5911 9.83931 10.2366 9.68188 9.26636 9.49438C9.1742 9.47657 9.08536 9.45845 9 9.44025V31.3014C10.3215 35.0834 14.0604 38.2542 17.6893 40.537C19.5005 41.6765 21.2303 42.5615 22.5081 43.1617C23.1462 43.4615 23.6696 43.6892 24.0315 43.8413C24.1114 43.8749 24.1833 43.9047 24.2469 43.9308C24.2981 43.9118 24.3548 43.8905 24.4166 43.867C24.7525 43.7391 25.2407 43.5447 25.8399 43.2822C27.0397 42.7565 28.6771 41.9607 30.425 40.8824C33.901 38.738 37.6856 35.555 39.4546 31.272V9.53244C38.8052 9.67534 38.1841 9.71665 37.6728 9.71666C37.2203 9.71667 36.8326 9.68423 36.5555 9.65142C36.4165 9.63497 36.3042 9.61828 36.224 9.60521C36.1839 9.59867 36.1518 9.59301 36.1284 9.58872L36.0997 9.58336L36.0904 9.58155L36.0871 9.58088L36.0857 9.58061C36.0854 9.58055 36.0845 9.58038 36.2819 8.60003L36.0845 9.58038C35.5431 9.47141 35.1925 8.94416 35.3015 8.40272C35.4103 7.86207 35.9362 7.51172 36.4768 7.61922C36.4775 7.61934 36.4781 7.61947 36.4787 7.61959L36.4883 7.62137C36.4997 7.62346 36.5192 7.62692 36.5461 7.63131C36.6 7.6401 36.6833 7.65258 36.7906 7.66528C37.0061 7.69079 37.3138 7.71666 37.6727 7.71665C38.4072 7.71664 39.274 7.60796 40.0051 7.24007C40.3151 7.08409 40.6838 7.09997 40.9792 7.28204C41.2747 7.46411 41.4546 7.78633 41.4546 8.13337V31.4668C41.4546 31.5933 41.4306 31.7186 41.3839 31.8361C39.4119 36.7983 35.1383 40.3247 31.475 42.5846C29.6298 43.723 27.9058 44.5606 26.6425 45.1141C26.0102 45.3911 25.4914 45.5978 25.1282 45.7361C24.9466 45.8052 24.8037 45.8573 24.7049 45.8926C24.6554 45.9102 24.617 45.9237 24.5902 45.933L24.5588 45.9437L24.5498 45.9468L24.547 45.9477L24.5461 45.9481C24.5457 45.9482 24.5454 45.9483 24.2273 45.0002C23.8706 45.9345 23.8703 45.9343 23.87 45.9342L23.8664 45.9328L23.8573 45.9293L23.8248 45.9167C23.7969 45.9058 23.7565 45.8899 23.7043 45.869C23.6001 45.8274 23.4489 45.7659 23.2567 45.6852C22.8725 45.5237 22.3237 45.2848 21.6578 44.972C20.3277 44.3472 18.5222 43.4239 16.6243 42.2299C12.8825 39.876 8.55823 36.3334 7.0507 31.7812C7.01712 31.6798 7 31.5736 7 31.4668V8.13337C7 7.80603 7.1602 7.49942 7.4289 7.31248C7.69704 7.12593 8.03935 7.08212 8.34576 7.19504C8.34641 7.19528 8.34705 7.19551 8.3477 7.19575L8 8.13337C8.3477 7.19575 8.3481 7.1959 8.3477 7.19575C8.34705 7.19551 8.34641 7.19528 8.34576 7.19504L8.3576 7.19926C8.36908 7.2033 8.38861 7.21007 8.4158 7.21911C8.47021 7.23721 8.55516 7.26438 8.66762 7.29707C8.8928 7.36253 9.22685 7.44972 9.64586 7.5307C10.4867 7.69321 11.6532 7.82746 12.9602 7.72007C15.539 7.50818 18.6988 6.36079 21.0543 2.48103ZM8.34576 7.19504C8.34593 7.1951 8.34546 7.19493 8.34576 7.19504V7.19504ZM24.2273 45.0002L23.87 45.9342C24.0865 46.0169 24.3263 46.0218 24.5461 45.9481L24.2273 45.0002Z" fill="#256BFF"/>
</g>
</svg>
