<svg width="48" height="48" viewBox="0 0 48 48" fill="none" xmlns="http://www.w3.org/2000/svg">
<mask id="mask0" mask-type="alpha" maskUnits="userSpaceOnUse" x="0" y="0" width="48" height="48">
<rect width="48" height="48" fill="#C4C4C4"/>
</mask>
<g mask="url(#mask0)">
<rect x="10.5" y="17" width="5" height="27" fill="#E9F0FF"/>
<path fill-rule="evenodd" clip-rule="evenodd" d="M5 3C5 2.44772 4.55228 2 4 2C3.44772 2 3 2.44772 3 3V45C3 45.5523 3.44772 46 4 46H44C44.5523 46 45 45.5523 45 45C45 44.4477 44.5523 44 44 44H39V30.5C39 29.9477 38.5523 29.5 38 29.5H32C31.4477 29.5 31 29.9477 31 30.5V44H28V37.5C28 36.9477 27.5523 36.5 27 36.5C26.4477 36.5 26 36.9477 26 37.5V44H22V28.5H26V32.5C26 33.0523 26.4477 33.5 27 33.5C27.5523 33.5 28 33.0523 28 32.5V27.5C28 26.9477 27.5523 26.5 27 26.5H21C20.4477 26.5 20 26.9477 20 27.5V44H17V16.5C17 15.9477 16.5523 15.5 16 15.5H10C9.44772 15.5 9 15.9477 9 16.5V44H5V3ZM11 44H15V17.5H11V44ZM33 44H37V31.5H33V44Z" fill="#256BFF"/>
</g>
</svg>
