<svg width="48" height="48" viewBox="0 0 48 48" fill="none" xmlns="http://www.w3.org/2000/svg">
<mask id="mask0" mask-type="alpha" maskUnits="userSpaceOnUse" x="0" y="0" width="48" height="48">
<rect width="48" height="48" fill="#C4C4C4"/>
</mask>
<g mask="url(#mask0)">
<path fill-rule="evenodd" clip-rule="evenodd" d="M4 24C4 35.0457 12.9543 44 24 44C35.0457 44 44 35.0457 44 24C44 12.9543 35.0457 4 24 4C19.9553 4 16.1939 5.19958 13.0483 7.26212C12.5865 7.56496 11.9666 7.43605 11.6637 6.9742C11.3609 6.51234 11.4898 5.89244 11.9517 5.5896C15.4131 3.31994 19.5539 2 24 2C36.1503 2 46 11.8497 46 24C46 36.1503 36.1503 46 24 46C11.8497 46 2 36.1503 2 24C2 20.2319 2.94812 16.6824 4.61963 13.5798C4.88158 13.0936 5.48808 12.9118 5.97429 13.1737C6.46051 13.4357 6.64231 14.0422 6.38036 14.5284C4.86202 17.3467 4 20.5712 4 24Z" fill="#256BFF"/>
<path d="M33.7341 8.29035C35.2962 6.72825 37.8288 6.72825 39.3909 8.29035L39.6736 8.57299C41.2357 10.1351 41.2357 12.6678 39.6736 14.2299L14.2383 39.6652C12.6762 41.2273 10.1435 41.2273 8.58141 39.6652L8.29877 39.3825C6.73667 37.8204 6.73667 35.2877 8.29877 33.7256L33.7341 8.29035Z" fill="#E9F0FF"/>
<path fill-rule="evenodd" clip-rule="evenodd" d="M38.2594 9.98721L37.9767 9.70457C37.1957 8.92352 35.9293 8.92352 35.1483 9.70457L9.71299 35.1399C8.93194 35.9209 8.93194 37.1872 9.71299 37.9683L9.99563 38.2509C10.7767 39.032 12.043 39.032 12.8241 38.2509L38.2594 12.8156C39.0404 12.0346 39.0404 10.7683 38.2594 9.98721ZM39.3909 8.29035C37.8288 6.72825 35.2962 6.72825 33.7341 8.29035L8.29877 33.7256C6.73667 35.2877 6.73667 37.8204 8.29877 39.3825L8.58141 39.6652C10.1435 41.2273 12.6762 41.2273 14.2383 39.6652L39.6736 14.2299C41.2357 12.6678 41.2357 10.1351 39.6736 8.57299L39.3909 8.29035Z" fill="#256BFF"/>
</g>
</svg>
