<svg width="48" height="48" viewBox="0 0 48 48" fill="none" xmlns="http://www.w3.org/2000/svg">
<mask id="mask0" mask-type="alpha" maskUnits="userSpaceOnUse" x="0" y="0" width="48" height="48">
<rect width="48" height="48" fill="#C4C4C4"/>
</mask>
<g mask="url(#mask0)">
<path d="M4 12.1094C4 11.5571 3.55228 11.1094 3 11.1094C2.44772 11.1094 2 11.5571 2 12.1094H4ZM46 30.8268C46 30.2746 45.5523 29.8268 45 29.8268C44.4477 29.8268 44 30.2746 44 30.8268H46ZM2 12.1094V36.8704H4V12.1094H2ZM7 41.8704H41V39.8704H7V41.8704ZM46 36.8704V30.8268H44V36.8704H46ZM41 41.8704C43.7614 41.8704 46 39.6318 46 36.8704H44C44 38.5272 42.6569 39.8704 41 39.8704V41.8704ZM2 36.8704C2 39.6318 4.23858 41.8704 7 41.8704V39.8704C5.34315 39.8704 4 38.5272 4 36.8704H2Z" fill="#256BFF"/>
<path d="M3 12V12.0519C3 12.3741 3.15527 12.6766 3.41709 12.8644L23.4171 27.2123C23.7655 27.4622 24.2345 27.4622 24.5829 27.2123L44.5829 12.8644C44.8447 12.6766 45 12.3741 45 12.0519V12C45 9.79086 43.2091 8 41 8H7C4.79086 8 3 9.79086 3 12Z" fill="#E9F0FF" stroke="#256BFF" stroke-width="2"/>
<path d="M45 12.1094V25.8052" stroke="#256BFF" stroke-width="2" stroke-linecap="round"/>
</g>
</svg>
