<svg width="48" height="48" viewBox="0 0 48 48" fill="none" xmlns="http://www.w3.org/2000/svg">
<mask id="mask0" mask-type="alpha" maskUnits="userSpaceOnUse" x="0" y="0" width="48" height="48">
<rect width="48" height="48" fill="#C4C4C4"/>
</mask>
<g mask="url(#mask0)">
<mask id="path-2-outside-1" maskUnits="userSpaceOnUse" x="2" y="2" width="45" height="45" fill="black">
<rect fill="white" x="2" y="2" width="45" height="45"/>
<path d="M15.9052 4L19.8946 4L16.9894 44.1849H13L15.9052 4Z"/>
<path d="M31.9052 4L35.8946 4L32.9894 44.1849H29L31.9052 4Z"/>
<path d="M45 13V17L5 17L5 13L45 13Z"/>
<path d="M44 31V35L4 35L4 31L44 31Z"/>
</mask>
<path d="M15.9052 4L19.8946 4L16.9894 44.1849H13L15.9052 4Z" fill="#E9F0FF"/>
<path d="M31.9052 4L35.8946 4L32.9894 44.1849H29L31.9052 4Z" fill="#E9F0FF"/>
<path d="M45 13V17L5 17L5 13L45 13Z" fill="#E9F0FF"/>
<path d="M44 31V35L4 35L4 31L44 31Z" fill="#E9F0FF"/>
<path d="M15.9052 4V2H14.0446L13.9104 3.85578L15.9052 4ZM19.8946 4L21.8894 4.14422L22.0445 2H19.8946V4ZM16.9894 44.1849V46.1849H18.8501L18.9842 44.3291L16.9894 44.1849ZM13 44.1849L11.0052 44.0407L10.8502 46.1849H13V44.1849ZM31.9052 4V2H30.0446L29.9104 3.85578L31.9052 4ZM35.8946 4L37.8894 4.14422L38.0445 2H35.8946V4ZM32.9894 44.1849V46.1849H34.8501L34.9842 44.3291L32.9894 44.1849ZM29 44.1849L27.0052 44.0407L26.8502 46.1849H29V44.1849ZM45 13H47V11H45V13ZM45 17V19H47V17H45ZM5 17H3V19H5L5 17ZM5 13L5 11H3L3 13H5ZM44 31H46V29H44V31ZM44 35V37H46V35H44ZM4 35H2V37L4 37L4 35ZM4 31L4 29H2L2 31H4ZM15.9052 6H19.8946V2H15.9052V6ZM17.8999 3.85578L14.9946 44.0407L18.9842 44.3291L21.8894 4.14422L17.8999 3.85578ZM16.9894 42.1849H13V46.1849H16.9894V42.1849ZM14.9948 44.3291L17.9 4.14422L13.9104 3.85578L11.0052 44.0407L14.9948 44.3291ZM31.9052 6H35.8946V2H31.9052V6ZM33.8999 3.85578L30.9946 44.0407L34.9842 44.3291L37.8894 4.14422L33.8999 3.85578ZM32.9894 42.1849H29V46.1849H32.9894V42.1849ZM30.9948 44.3291L33.9 4.14422L29.9104 3.85578L27.0052 44.0407L30.9948 44.3291ZM43 13V17H47V13H43ZM45 15L5 15L5 19L45 19V15ZM7 17V13H3L3 17H7ZM5 15L45 15V11L5 11L5 15ZM42 31V35H46V31H42ZM44 33L4 33L4 37H44V33ZM6 35L6 31H2L2 35H6ZM4 33L44 33V29L4 29L4 33Z" fill="#256BFF" mask="url(#path-2-outside-1)"/>
</g>
</svg>
