<svg width="48" height="48" viewBox="0 0 48 48" fill="none" xmlns="http://www.w3.org/2000/svg">
<mask id="mask0" mask-type="alpha" maskUnits="userSpaceOnUse" x="0" y="0" width="48" height="48">
<rect width="48" height="48" fill="#C4C4C4"/>
</mask>
<g mask="url(#mask0)">
<path fill-rule="evenodd" clip-rule="evenodd" d="M24.5 45C35.8218 45 45 35.598 45 24V22C45 21.4477 44.5523 21 44 21H26C25.4477 21 25 21.4477 25 22V27C25 27.5523 25.4477 28 26 28H37.0793C37.7482 28 38.2279 28.6453 37.9762 29.2651C35.8956 34.3878 30.8696 38 25 38C17.268 38 11 31.732 11 24C11 16.268 17.268 10 25 10C28.0705 10 30.9101 10.9884 33.2179 12.6645C33.6513 12.9792 34.2578 12.9412 34.6186 12.5454L37.6528 9.21698C38.0215 8.81251 37.9981 8.18473 37.5811 7.8303C34.0315 4.8136 29.4725 3 24.5 3C13.1782 3 4 12.402 4 24C4 35.598 13.1782 45 24.5 45Z" fill="#E9F0FF"/>
<path d="M37.6528 9.21698L36.9138 8.54329L37.6528 9.21698ZM37.5811 7.8303L38.2287 7.06832L37.5811 7.8303ZM37.9762 29.2651L38.9027 29.6414L37.9762 29.2651ZM33.2179 12.6645L33.8056 11.8554L33.2179 12.6645ZM34.6186 12.5454L35.3577 13.2191L34.6186 12.5454ZM44 24C44 35.0686 35.247 44 24.5 44V46C36.3967 46 46 36.1274 46 24H44ZM44 22V24H46V22H44ZM26 22H44V20H26V22ZM26 27V22H24V27H26ZM37.0793 27H26V29H37.0793V27ZM25 39C31.2905 39 36.6742 35.1282 38.9027 29.6414L37.0497 28.8888C35.117 33.6475 30.4488 37 25 37V39ZM10 24C10 32.2843 16.7157 39 25 39V37C17.8203 37 12 31.1797 12 24H10ZM25 9C16.7157 9 10 15.7157 10 24H12C12 16.8203 17.8203 11 25 11V9ZM33.8056 11.8554C31.3326 10.0594 28.2885 9 25 9V11C27.8524 11 30.4875 11.9175 32.6303 13.4736L33.8056 11.8554ZM36.9138 8.54329L33.8796 11.8718L35.3577 13.2191L38.3918 9.89066L36.9138 8.54329ZM24.5 4C29.224 4 33.556 5.7218 36.9335 8.59229L38.2287 7.06832C34.5071 3.90539 29.721 2 24.5 2V4ZM5 24C5 12.9315 13.753 4 24.5 4V2C12.6033 2 3 11.8726 3 24H5ZM24.5 44C13.753 44 5 35.0686 5 24H3C3 36.1274 12.6033 46 24.5 46V44ZM38.3918 9.89066C39.1204 9.09145 39.1008 7.80948 38.2287 7.06832L36.9335 8.59229C36.929 8.58847 36.9228 8.58109 36.9182 8.57152C36.914 8.56283 36.9129 8.55595 36.9127 8.55203C36.9124 8.5447 36.9152 8.54179 36.9138 8.54329L38.3918 9.89066ZM37.0793 29C37.0835 29 37.0724 28.9996 37.0617 28.9848C37.0561 28.977 37.0484 28.9623 37.0454 28.9404C37.0421 28.9158 37.0467 28.8962 37.0497 28.8888L38.9027 29.6414C39.4499 28.2942 38.3809 27 37.0793 27V29ZM32.6303 13.4736C33.4411 14.0625 34.6255 14.0223 35.3577 13.2191L33.8796 11.8718C33.879 11.8725 33.8789 11.8725 33.8793 11.8722C33.8797 11.8719 33.8798 11.8718 33.8796 11.8719C33.8791 11.8722 33.8753 11.8739 33.8675 11.8745C33.8503 11.8758 33.827 11.871 33.8056 11.8554L32.6303 13.4736ZM24 27C24 28.1046 24.8954 29 26 29V27H26H24ZM26 20C24.8954 20 24 20.8954 24 22H26V20ZM46 22C46 20.8954 45.1046 20 44 20V22H46Z" fill="#256BFF"/>
</g>
</svg>
