<svg width="48" height="48" viewBox="0 0 48 48" fill="none" xmlns="http://www.w3.org/2000/svg">
<mask id="mask0" mask-type="alpha" maskUnits="userSpaceOnUse" x="0" y="0" width="48" height="48">
<rect width="48" height="48" fill="#C4C4C4"/>
</mask>
<g mask="url(#mask0)">
<path d="M9.93604 36.2734H38.0211V43.5366C38.0211 44.6412 37.1257 45.5366 36.0211 45.5366H11.936C10.8315 45.5366 9.93604 44.6412 9.93604 43.5366V36.2734Z" fill="#E9F0FF"/>
<path d="M38.9574 36.2737V42C38.9574 44.2091 37.1666 46 34.9574 46H13C10.7909 46 9 44.2091 9 42V6C9 3.79086 10.7909 2 13 2H34.9574C37.1666 2 38.9574 3.79086 38.9574 6V31.1789" stroke="#256BFF" stroke-width="2" stroke-linecap="round"/>
<path d="M15 18C15 17.4477 14.5523 17 14 17C13.4477 17 13 17.4477 13 18H15ZM13 26C13 26.5523 13.4477 27 14 27C14.5523 27 15 26.5523 15 26H13ZM13 18V26H15V18H13Z" fill="#256BFF"/>
<path d="M17.064 18C17.064 17.7239 16.8401 17.5 16.564 17.5C16.2878 17.5 16.064 17.7239 16.064 18H17.064ZM16.064 26C16.064 26.2761 16.2878 26.5 16.564 26.5C16.8401 26.5 17.064 26.2761 17.064 26H16.064ZM16.064 18V26H17.064V18H16.064Z" fill="#256BFF"/>
<path d="M34.5 18C34.5 17.7239 34.2761 17.5 34 17.5C33.7239 17.5 33.5 17.7239 33.5 18H34.5ZM33.5 26C33.5 26.2761 33.7239 26.5 34 26.5C34.2761 26.5 34.5 26.2761 34.5 26H33.5ZM33.5 18V26H34.5V18H33.5Z" fill="#256BFF"/>
<path d="M20.6411 18C20.6411 17.4477 20.1934 17 19.6411 17C19.0888 17 18.6411 17.4477 18.6411 18H20.6411ZM18.6411 26C18.6411 26.5523 19.0888 27 19.6411 27C20.1934 27 20.6411 26.5523 20.6411 26H18.6411ZM18.6411 18V26H20.6411V18H18.6411Z" fill="#256BFF"/>
<path d="M23.7178 18C23.7178 17.4477 23.2701 17 22.7178 17C22.1655 17 21.7178 17.4477 21.7178 18H23.7178ZM21.7178 26C21.7178 26.5523 22.1655 27 22.7178 27C23.2701 27 23.7178 26.5523 23.7178 26H21.7178ZM21.7178 18V26H23.7178V18H21.7178Z" fill="#256BFF"/>
<path d="M26.2949 18C26.2949 17.7239 26.0711 17.5 25.7949 17.5C25.5188 17.5 25.2949 17.7239 25.2949 18H26.2949ZM25.2949 26C25.2949 26.2761 25.5188 26.5 25.7949 26.5C26.0711 26.5 26.2949 26.2761 26.2949 26H25.2949ZM25.2949 18V26H26.2949V18H25.2949Z" fill="#256BFF"/>
<path d="M28.3462 18C28.3462 17.7239 28.1223 17.5 27.8462 17.5C27.57 17.5 27.3462 17.7239 27.3462 18H28.3462ZM27.3462 26C27.3462 26.2761 27.57 26.5 27.8462 26.5C28.1223 26.5 28.3462 26.2761 28.3462 26H27.3462ZM27.3462 18V26H28.3462V18H27.3462Z" fill="#256BFF"/>
<path d="M31.9229 18C31.9229 17.4477 31.4751 17 30.9229 17C30.3706 17 29.9229 17.4477 29.9229 18H31.9229ZM29.9229 26C29.9229 26.5523 30.3706 27 30.9229 27C31.4751 27 31.9229 26.5523 31.9229 26H29.9229ZM29.9229 18V26H31.9229V18H29.9229Z" fill="#256BFF"/>
<circle cx="24" cy="41" r="2" fill="#256BFF"/>
<path d="M9 36.2734H38.9574" stroke="#256BFF" stroke-width="2" stroke-linecap="round"/>
</g>
</svg>
