<svg width="48" height="48" viewBox="0 0 48 48" fill="none" xmlns="http://www.w3.org/2000/svg">
<mask id="mask0" mask-type="alpha" maskUnits="userSpaceOnUse" x="0" y="0" width="48" height="48">
<rect width="48" height="48" fill="#C4C4C4"/>
</mask>
<g mask="url(#mask0)">
<path d="M3 7C3 4.23858 5.23858 2 8 2H40C42.7614 2 45 4.23858 45 7V35.0009V41.0018C45 43.7639 42.7608 46 40 46H8C5.23858 46 3 43.7614 3 41V7Z" fill="#E0E9FE"/>
<path d="M45 26.7612V7C45 4.23858 42.7614 2 40 2H8C5.23858 2 3 4.23858 3 7V41C3 43.7614 5.23858 46 8 46H40C42.7608 46 45 43.7639 45 41.0018V35.0009" stroke="#256BFF" stroke-width="2" stroke-miterlimit="16" stroke-linecap="round" stroke-linejoin="round"/>
<path d="M20.3413 23.8618L26.2275 29.6703L34.6257 21.383L38 24.7127V16H29.1707L32.5449 19.3297L26.2275 25.5637L20.3413 19.7552L9 30.9467L11.0808 33L20.3413 23.8618Z" fill="#256BFF"/>
</g>
</svg>
