<svg width="42" height="48" viewBox="0 0 42 48" fill="none" xmlns="http://www.w3.org/2000/svg">
<path d="M34.0405 25.3332C34.018 21.497 35.7561 18.6057 39.2661 16.4739C37.303 13.6614 34.333 12.1145 30.418 11.8163C26.7111 11.5238 22.6555 13.9763 21.1705 13.9763C19.6011 13.9763 16.0123 11.9176 13.1886 11.9176C7.36109 12.0076 1.16797 16.5638 1.16797 25.8339C1.16797 28.5732 1.66859 31.4026 2.66984 34.3164C4.00859 38.1526 8.83484 47.552 13.8692 47.4001C16.5017 47.3382 18.3636 45.5326 21.7892 45.5326C25.1136 45.5326 26.8348 47.4001 29.7711 47.4001C34.8505 47.327 39.2155 38.7826 40.4867 34.9351C33.6748 31.7232 34.0405 25.5301 34.0405 25.3332ZM28.1286 8.17697C30.9805 4.79072 30.7217 1.70822 30.6373 0.600098C28.1173 0.746348 25.2036 2.31572 23.5442 4.2451C21.7161 6.3151 20.6417 8.87447 20.8723 11.7601C23.5948 11.9682 26.0811 10.5676 28.1286 8.17697Z" fill="black"/>
</svg>
