<svg width="48" height="48" viewBox="0 0 48 48" fill="none" xmlns="http://www.w3.org/2000/svg">
<mask id="mask0" mask-type="alpha" maskUnits="userSpaceOnUse" x="0" y="0" width="48" height="48">
<rect width="48" height="48" fill="#C4C4C4"/>
</mask>
<g mask="url(#mask0)">
<rect x="3" y="19.9998" width="42" height="9" fill="#E9F0FF"/>
<path fill-rule="evenodd" clip-rule="evenodd" d="M24.9422 2.66473C25.1272 3.1851 24.8554 3.75695 24.335 3.942C17.65 6.31938 13 12.2029 13 19C13 19.5523 12.5523 20 12 20C11.4477 20 11 19.5523 11 19C11 11.2366 16.3019 4.67608 23.6649 2.05759C24.1853 1.87254 24.7571 2.14436 24.9422 2.66473Z" fill="#256BFF"/>
<path fill-rule="evenodd" clip-rule="evenodd" d="M2 23.9998C2 11.857 11.8376 2.0119 23.9775 1.99977C23.9925 1.99943 24.0075 1.99943 24.0226 1.99977C30.5293 2.0063 36.3756 4.8388 40.3979 9.33284C40.7662 9.74437 40.7312 10.3766 40.3197 10.7449C39.9081 11.1132 39.2759 11.0782 38.9076 10.6667C38.6347 10.3617 38.3526 10.0653 38.0617 9.77764C37.2882 10.6283 36.4385 11.4086 35.5233 12.1077C36.3435 13.9375 36.8476 15.9199 36.9705 17.9998H43.0847C42.9634 17.6136 42.8307 17.2326 42.6871 16.857C42.4898 16.3411 42.748 15.763 43.2639 15.5657C43.7797 15.3684 44.3578 15.6267 44.5551 16.1425C45.4889 18.584 46 21.2334 46 23.9998C46 36.1421 36.1631 45.9869 24.0238 45.9997C24.0153 45.9999 24.0069 46 23.9984 46L23.9774 45.9997C11.8375 45.9875 2 36.1425 2 23.9998ZM36 20L35.9777 19.9998H24H4.40007C4.13772 21.2922 4 22.6299 4 23.9998C4 25.3696 4.13772 26.7073 4.40007 27.9998H24H43.5999C43.8623 26.7073 44 25.3696 44 23.9998C44 22.6293 43.8623 21.2917 43.6001 19.9998H36.0223L36 20ZM43.0844 29.9998H36.9705C36.8476 32.0797 36.3435 34.0622 35.5233 35.892C36.4385 36.5911 37.2882 37.3713 38.0616 38.2219C40.3506 35.9587 42.096 33.1468 43.0844 29.9998ZM34.9663 29.9998H25V32.0259C28.2248 32.1931 31.2369 33.1647 33.8394 34.7431C34.4654 33.2519 34.8543 31.6577 34.9663 29.9998ZM23 29.9998H13.0337C13.1457 31.6577 13.5346 33.2519 14.1606 34.7431C16.7631 33.1647 19.7752 32.1931 23 32.0259V29.9998ZM11.0295 29.9998H4.9156C5.90403 33.1468 7.6494 35.9586 9.93833 38.2219C10.7118 37.3713 11.5615 36.5911 12.4767 35.892C11.6565 34.0621 11.1524 32.0797 11.0295 29.9998ZM33.8394 13.2568C34.4654 14.7478 34.8542 16.3419 34.9663 17.9998H25V15.9741C28.2248 15.8068 31.2369 14.8353 33.8394 13.2568ZM23 15.9741V17.9998H4.9156C5.90403 14.8527 7.64937 12.0409 9.93826 9.77767C13.2035 13.3689 17.8283 15.7059 23 15.9741ZM29.4775 43.2404C32.1018 42.4948 34.5063 41.2267 36.5714 39.5557C35.9597 38.8842 35.2951 38.262 34.5842 37.6956C33.2998 39.8475 31.5551 41.7317 29.4775 43.2404ZM32.9428 36.5391C31.1868 39.5513 28.4074 42.0105 25 43.5246V34.0288C27.903 34.1972 30.6105 35.0937 32.9428 36.5391ZM25 13.971V4.47496C28.4074 5.98916 31.1868 8.44837 32.9428 11.4606C30.6105 12.9061 27.903 13.8027 25 13.971ZM29.4769 4.75874C31.5547 6.26759 33.2996 8.1519 34.5842 10.3041C35.2952 9.73762 35.9598 9.11532 36.5714 8.44376C34.5059 6.77227 32.1013 5.50423 29.4769 4.75874ZM23 43.5246V34.0288C20.097 34.1972 17.3895 35.0937 15.0572 36.5391C16.8132 39.5513 19.5926 42.0105 23 43.5246ZM13.4158 37.6956C14.7002 39.8475 16.4449 41.7317 18.5225 43.2404C15.8982 42.4948 13.4937 41.2267 11.4286 39.5557C12.0403 38.8842 12.7049 38.262 13.4158 37.6956ZM11.4286 8.44383C14.3295 11.6287 18.4215 13.7056 23 13.971V4.02432C18.6261 4.2397 14.6216 5.86018 11.4286 8.44383Z" fill="#256BFF"/>
<path d="M14.5494 25.9998L13 21.9998H14.2589L15.1765 24.6212L16.0203 21.9998H17.27L18.0861 24.6212L19.0222 21.9998H20.2995L18.7271 25.9998H17.4821L16.6382 23.4273L15.8082 25.9998H14.5494Z" fill="#256BFF"/>
<path d="M21.8996 25.9998L20.3502 21.9998H21.6091L22.5267 24.6212L23.3706 21.9998H24.6202L25.4364 24.6212L26.3725 21.9998H27.6498L26.0773 25.9998H24.8323L23.9885 23.4273L23.1585 25.9998H21.8996Z" fill="#256BFF"/>
<path d="M29.2498 25.9998L27.7005 21.9998H28.9593L29.877 24.6212L30.7208 21.9998H31.9704L32.7866 24.6212L33.7227 21.9998H35L33.4276 25.9998H32.1826L31.3387 23.4273L30.5087 25.9998H29.2498Z" fill="#256BFF"/>
</g>
</svg>
