<svg width="48" height="48" viewBox="0 0 48 48" fill="none" xmlns="http://www.w3.org/2000/svg">
<mask id="mask0" mask-type="alpha" maskUnits="userSpaceOnUse" x="0" y="0" width="48" height="48">
<rect width="48" height="48" fill="#C4C4C4"/>
</mask>
<g mask="url(#mask0)">
<path fill-rule="evenodd" clip-rule="evenodd" d="M10 7C10 4.23858 12.2386 2 15 2H32C34.7614 2 37 4.23858 37 7V12.8981C37 13.4504 36.5523 13.8981 36 13.8981C35.4477 13.8981 35 13.4504 35 12.8981V7C35 5.34315 33.6569 4 32 4H15C13.3431 4 12 5.34315 12 7V41C12 42.6569 13.3431 44 15 44H32C33.6575 44 35 42.6581 35 41.0018V18.7612C35 18.209 35.4477 17.7612 36 17.7612C36.5523 17.7612 37 18.209 37 18.7612V41.0018C37 43.7639 34.7608 46 32 46H15C12.2386 46 10 43.7614 10 41V7Z" fill="#256BFF"/>
<path fill-rule="evenodd" clip-rule="evenodd" d="M20.5 36C20.5 35.4477 20.9477 35 21.5 35H25.5C26.0523 35 26.5 35.4477 26.5 36C26.5 36.5523 26.0523 37 25.5 37H21.5C20.9477 37 20.5 36.5523 20.5 36Z" fill="#256BFF"/>
<path d="M16 10C16 8.89543 16.8954 8 18 8H29C30.1046 8 31 8.89543 31 10V26C31 27.1046 30.1046 28 29 28H18C16.8954 28 16 27.1046 16 26V10Z" fill="#E9F0FF"/>
<path fill-rule="evenodd" clip-rule="evenodd" d="M15 10C15 8.34315 16.3431 7 18 7H29C30.6569 7 32 8.34315 32 10V26C32 27.6569 30.6569 29 29 29H18C16.3431 29 15 27.6569 15 26V10ZM18 9C17.4477 9 17 9.44772 17 10V26C17 26.5523 17.4477 27 18 27H29C29.5523 27 30 26.5523 30 26V10C30 9.44772 29.5523 9 29 9H18Z" fill="#256BFF"/>
</g>
</svg>
