<svg width="48" height="48" viewBox="0 0 48 48" fill="none" xmlns="http://www.w3.org/2000/svg">
<mask id="mask0" mask-type="alpha" maskUnits="userSpaceOnUse" x="0" y="0" width="48" height="48">
<rect width="48" height="48" fill="#C4C4C4"/>
</mask>
<g mask="url(#mask0)">
<path d="M23.6975 25.7998C28.6099 25.7998 32.5922 21.818 32.5922 16.9062C32.5922 11.9945 28.6099 8.0127 23.6975 8.0127C18.785 8.0127 14.8027 11.9945 14.8027 16.9062C14.8027 21.818 18.785 25.7998 23.6975 25.7998Z" fill="#CEE8FA"/>
<path d="M23.6961 25.8496C18.7929 25.8496 14.8027 21.8601 14.8027 16.9589C14.8027 12.0578 18.7929 8.06836 23.6961 8.06836C28.5993 8.06836 32.5895 12.0578 32.5895 16.959C32.5895 21.8602 28.5993 25.8496 23.6961 25.8496Z" fill="#E9F0FF" stroke="#256BFF" stroke-width="2"/>
<path d="M10.5387 10.3538C9.51752 12.3996 9 14.6014 9 16.9064C9 21.7392 11.3783 27.4775 16.2953 33.9902C19.8963 38.7598 23.4466 42.0379 23.5764 42.1572C23.6106 42.1886 23.6524 42.2041 23.6967 42.2041C23.7411 42.2041 23.7823 42.1886 23.8153 42.1583L23.8162 42.1575C23.8942 42.0861 26.1898 39.9785 28.9692 36.6765C29.3248 36.254 29.9557 36.1997 30.3782 36.5553C30.8008 36.9108 30.8551 37.5415 30.4995 37.9639C27.653 41.3456 25.2952 43.5147 25.1674 43.6317C24.1012 44.7739 22.7602 44.106 22.2229 43.6293C22.0498 43.4702 18.4023 40.1 14.699 35.1949C9.66658 28.5292 7 22.3666 7 16.9064C7 14.2937 7.58859 11.786 8.74914 9.46095C9 8.71158 11 8.71173 10.5387 10.3538Z" fill="#256BFF"/>
<path fill-rule="evenodd" clip-rule="evenodd" d="M23.6971 2.21249C20.5424 2.21249 17.5398 3.19527 15.0061 5.05604C14.561 5.38293 13.9351 5.28717 13.6082 4.84215C13.2812 4.39713 13.377 3.77138 13.8221 3.44449C16.7002 1.33083 20.1178 0.212891 23.6971 0.212891C32.9045 0.212891 40.3936 7.70058 40.3936 16.9061C40.3936 21.6553 38.3704 26.9541 34.5436 32.632C34.235 33.09 33.6136 33.211 33.1555 32.9025C32.6975 32.5939 32.5764 31.9726 32.885 31.5147C36.5951 26.0098 38.3936 21.1025 38.3936 16.9061C38.3936 8.80492 31.7999 2.21249 23.6971 2.21249Z" fill="#256BFF"/>
<path d="M23.0576 20.4932C22.7562 20.4932 22.4547 20.3782 22.2248 20.1482L19.0305 16.9539C18.5706 16.4939 18.5706 15.7482 19.0305 15.2882C19.4905 14.8281 20.2362 14.8282 20.6962 15.2882L23.0577 17.6496L26.6981 14.009C27.158 13.5491 27.9037 13.5491 28.3638 14.009C28.8238 14.469 28.8237 15.2147 28.3638 15.6748L23.8905 20.1481C23.6604 20.3782 23.359 20.4932 23.0576 20.4932Z" fill="#256BFF"/>
</g>
</svg>
