<svg width="48" height="48" viewBox="0 0 48 48" fill="none" xmlns="http://www.w3.org/2000/svg">
<mask id="mask0" mask-type="alpha" maskUnits="userSpaceOnUse" x="0" y="0" width="48" height="48">
<rect width="48" height="48" fill="#C4C4C4"/>
</mask>
<g mask="url(#mask0)">
<circle cx="24" cy="24" r="20" stroke="#256BFF" stroke-width="2"/>
<path d="M22.4335 26.3252L33.9492 14.8095L25.4639 36.6288L22.4335 26.3252Z" fill="#E9F0FF"/>
<path fill-rule="evenodd" clip-rule="evenodd" d="M34.555 14.2034C34.7914 14.4398 34.8688 14.7921 34.7532 15.1058L26.2679 38.1373C26.1394 38.486 25.8009 38.7122 25.4296 38.6974C25.0583 38.6827 24.7388 38.4304 24.6384 38.0726L21.4508 26.714C21.3671 26.4157 21.4508 26.0954 21.6699 25.8763L25.1718 22.3744C25.5065 22.0397 26.0492 22.0397 26.384 22.3744C26.7187 22.7092 26.7187 23.2519 26.384 23.5866L23.2368 26.7338L25.574 35.062L32.5026 16.2558L13.5949 23.2218L19.0487 24.8999C19.5011 25.0391 19.7551 25.5188 19.6159 25.9712C19.4766 26.4237 18.997 26.6776 18.5445 26.5384L10.6654 24.114C10.3139 24.0059 10.0706 23.6857 10.0606 23.3181C10.0506 22.9506 10.2761 22.6176 10.6211 22.4905L33.6526 14.0052C33.9663 13.8896 34.3186 13.967 34.555 14.2034Z" fill="#256BFF"/>
</g>
</svg>
