<svg width="48" height="48" viewBox="0 0 48 48" fill="none" xmlns="http://www.w3.org/2000/svg">
<mask id="mask0" mask-type="alpha" maskUnits="userSpaceOnUse" x="0" y="0" width="48" height="48">
<rect width="48" height="48" fill="#C4C4C4"/>
</mask>
<g mask="url(#mask0)">
<path d="M29.1 39.225L6.525 37.125L28.8228 44.9033C29.0038 44.9664 29.1991 44.9762 29.3855 44.9315L41.4584 42.034C41.908 41.9261 42.225 41.524 42.225 41.0616V17.7V6.9384C42.225 6.47601 41.908 6.07392 41.4584 5.96601L29.3925 3.07019C29.2017 3.02441 29.0017 3.03574 28.8173 3.10278L6.65826 11.1606C6.26307 11.3043 6 11.6799 6 12.1004V32.4L14.4 29.25V12.975L29.1 9.825V39.225Z" fill="#E9F0FF"/>
<path d="M42.225 11.4V6.9384C42.225 6.47601 41.908 6.07392 41.4584 5.96601L29.3925 3.07019C29.2017 3.02441 29.0017 3.03574 28.8173 3.10278L6.65826 11.1606C6.26307 11.3043 6 11.6799 6 12.1004V33.45L14.4 30.3V12.975L29.1 9.825V39.225L6.525 37.125L28.8228 44.9033C29.0038 44.9664 29.1991 44.9762 29.3855 44.9315L41.4584 42.034C41.908 41.9261 42.225 41.524 42.225 41.0616V17.7" stroke="#256BFF" stroke-width="2" stroke-linecap="round" stroke-linejoin="round"/>
</g>
</svg>
