<svg width="49" height="49" viewBox="0 0 49 49" fill="none" xmlns="http://www.w3.org/2000/svg">
<mask id="mask0" mask-type="alpha" maskUnits="userSpaceOnUse" x="0" y="0" width="49" height="49">
<rect x="0.982422" y="0.243652" width="48" height="48" fill="#C4C4C4"/>
</mask>
<g mask="url(#mask0)">
<path d="M3.98242 11.2441C3.98242 9.035 5.77328 7.24414 7.98242 7.24414H41.9824C44.1916 7.24414 45.9824 9.035 45.9824 11.2441V15.2441H3.98242V11.2441Z" fill="#E9F0FF"/>
<circle cx="7.98242" cy="11.2441" r="1" fill="#256BFF"/>
<circle cx="10.9824" cy="11.2441" r="1" fill="#256BFF"/>
<circle cx="13.9824" cy="11.2441" r="1" fill="#256BFF"/>
<path fill-rule="evenodd" clip-rule="evenodd" d="M7.98242 6.24414C5.221 6.24414 2.98242 8.48268 2.98242 11.2441V36.8243C2.98242 39.5857 5.221 41.8242 7.98242 41.8242H41.9824C43.2098 41.8242 44.4389 41.5628 45.39 40.8873C46.3876 40.1786 46.9824 39.0792 46.9824 37.663V35.0555C46.9824 34.5032 46.5347 34.0555 45.9824 34.0555C45.4301 34.0555 44.9824 34.5032 44.9824 35.0555V37.663C44.9824 38.4558 44.6818 38.9371 44.2317 39.2568C43.7351 39.6096 42.9642 39.8242 41.9824 39.8242H7.98242C6.32557 39.8242 4.98242 38.4811 4.98242 36.8243V16.2441H44.9824V29.5158C44.9824 30.068 45.4301 30.5157 45.9824 30.5157C46.5347 30.5157 46.9824 30.068 46.9824 29.5158V11.2441C46.9824 8.48268 44.7438 6.24414 41.9824 6.24414H7.98242ZM44.9824 14.2441V11.2441C44.9824 9.58724 43.6393 8.24411 41.9824 8.24411H7.98242C6.32557 8.24411 4.98242 9.58724 4.98242 11.2441V14.2441H44.9824Z" fill="#256BFF"/>
<path d="M25.3774 35.2764C21.3005 35.2764 17.9824 31.9586 17.9824 27.8828C17.9824 23.807 21.3005 20.4893 25.3774 20.4893C29.4544 20.4893 32.7725 23.807 32.7725 27.8828C32.7725 31.9586 29.4544 35.2764 25.3774 35.2764Z" fill="#E9F0FF" stroke="#256BFF" stroke-width="2"/>
<path d="M24.8349 30.8799C24.5792 30.8799 24.3233 30.7824 24.1283 30.5873L21.4177 27.8776C21.0274 27.4874 21.0274 26.8548 21.4177 26.4646C21.808 26.0744 22.4408 26.0744 22.8312 26.4646L24.835 28.4678L27.924 25.3795C28.3143 24.9894 28.9471 24.9894 29.3375 25.3795C29.7279 25.7697 29.7278 26.4023 29.3375 26.7925L25.5417 30.5871C25.3464 30.7824 25.0907 30.8799 24.8349 30.8799Z" fill="#256BFF"/>
</g>
</svg>
