<svg width="48" height="48" viewBox="0 0 48 48" fill="none" xmlns="http://www.w3.org/2000/svg">
<mask id="mask0" mask-type="alpha" maskUnits="userSpaceOnUse" x="0" y="0" width="48" height="48">
<rect width="48" height="48" fill="#C4C4C4"/>
</mask>
<g mask="url(#mask0)">
<path fill-rule="evenodd" clip-rule="evenodd" d="M5 8.90209C5 5.64246 6.93332 3 9.31818 3H38.6818C41.0667 3 43 5.64246 43 8.90209V30.4707C43 31.1226 42.6133 31.6511 42.1364 31.6511C41.6594 31.6511 41.2727 31.1226 41.2727 30.4707V8.90209C41.2727 6.94631 40.1127 5.36084 38.6818 5.36084H9.31818C7.88726 5.36084 6.72727 6.94631 6.72727 8.90209V39.0979C6.72727 41.0537 7.88726 42.6392 9.31818 42.6392H38.6818C39.5297 42.6392 40.1955 42.3858 40.6244 41.9693C41.0131 41.5919 41.2727 41.0238 41.2727 40.0879V37.0099C41.2727 36.358 41.6594 35.8295 42.1364 35.8295C42.6133 35.8295 43 36.358 43 37.0099V40.0879C43 41.7597 42.4863 43.0575 41.6247 43.894C40.8033 44.6914 39.7418 45 38.6818 45H9.31818C6.93332 45 5 42.3575 5 39.0979V8.90209Z" fill="#256BFF"/>
<path d="M23.3583 20.9749H11.0276C10.4601 20.9749 10 21.4349 10 22.0024C10 22.5699 10.4601 23.03 11.0276 23.03H22.6706H23.3583C23.9258 23.03 24.3859 22.5699 24.3859 22.0024C24.3859 21.4349 23.9258 20.9749 23.3583 20.9749Z" fill="#E9F0FF"/>
<path d="M23 20V14.0769C23 11.273 20.727 9 17.9231 9C14.6519 9 12 11.6519 12 14.9231V20H21.5692H23Z" fill="#E9F0FF"/>
<path d="M22.6706 22.619H23.3583C23.9258 22.619 24.3859 22.1589 24.3859 21.5914V21.5914C24.3859 21.0239 23.9258 20.5638 23.3583 20.5638H11.0276C10.4601 20.5638 10 21.0239 10 21.5914V21.5914C10 22.1589 10.4601 22.619 11.0276 22.619H20.5128" stroke="#256BFF" stroke-linecap="round" stroke-linejoin="round"/>
<path d="M11.6445 20.5639V15.015C11.6445 11.9505 14.1288 9.46619 17.1934 9.46619V9.46619C20.2579 9.46619 22.7422 11.9505 22.7422 15.015V20.5639" stroke="#256BFF" stroke-linecap="round" stroke-linejoin="round"/>
<path d="M18.016 8.3811C18.016 8.86774 17.6215 9.26221 17.1349 9.26221C16.6484 9.26221 16.2539 8.86774 16.2539 8.3811C16.2539 7.89446 16.6484 7.5 17.1349 7.5C17.6215 7.5 18.016 7.89446 18.016 8.3811Z" fill="#E9F0FF" stroke="#256BFF"/>
<path d="M13.6992 14.0699C13.7568 13.6095 14.079 12.6196 14.9077 12.3434" stroke="#256BFF" stroke-linecap="round" stroke-linejoin="round"/>
<path d="M17.3076 24C18.1657 24 18.8613 23.3818 18.8613 22.6191H15.7539C15.7539 23.3818 16.4495 24 17.3076 24Z" fill="#E9F0FF" stroke="#256BFF"/>
<path fill-rule="evenodd" clip-rule="evenodd" d="M10 32C10 31.4477 10.4477 31 11 31H35C35.5523 31 36 31.4477 36 32C36 32.5523 35.5523 33 35 33H11C10.4477 33 10 32.5523 10 32Z" fill="#256BFF"/>
<path fill-rule="evenodd" clip-rule="evenodd" d="M10 36C10 35.4477 10.4477 35 11 35H25C25.5523 35 26 35.4477 26 36C26 36.5523 25.5523 37 25 37H11C10.4477 37 10 36.5523 10 36Z" fill="#256BFF"/>
</g>
</svg>
