<svg width="48" height="48" viewBox="0 0 48 48" fill="none" xmlns="http://www.w3.org/2000/svg">
<mask id="mask0" mask-type="alpha" maskUnits="userSpaceOnUse" x="0" y="0" width="48" height="48">
<rect width="48" height="48" fill="#C4C4C4"/>
</mask>
<g mask="url(#mask0)">
<path d="M27.8561 11.7307C27.8561 16.5526 23.9472 20.4614 19.1253 20.4614C14.3034 20.4614 10.3945 16.5526 10.3945 11.7307C10.3945 6.90887 14.3034 3 19.1253 3C23.9472 3 27.8561 6.90887 27.8561 11.7307Z" fill="#E9F0FF"/>
<path fill-rule="evenodd" clip-rule="evenodd" d="M19.1261 18.4615C22.8435 18.4615 25.8569 15.448 25.8569 11.7307C25.8569 8.01343 22.8435 4.99997 19.1261 4.99997C15.4088 4.99997 12.3953 8.01343 12.3953 11.7307C12.3953 15.448 15.4088 18.4615 19.1261 18.4615ZM27.8569 11.7307C27.8569 15.0812 25.9696 17.9909 23.2 19.4547C28.976 21.0294 33.2224 26.3127 33.2224 32.5877V43.2588C33.2224 43.811 32.7747 44.2588 32.2224 44.2588H7C6.44772 44.2588 6 43.811 6 43.2588V32.5877C6 26.5348 9.95112 21.4046 15.4149 19.6357C12.4488 18.2408 10.3953 15.2255 10.3953 11.7307C10.3953 6.90887 14.3042 3 19.1261 3C23.948 3 27.8569 6.90887 27.8569 11.7307ZM18.1262 21.0706C12.4148 21.7998 8 26.6782 8 32.5877V42.2588H31.2224V32.5877C31.2224 26.3476 26.2999 21.2572 20.1262 20.9878V32.1026C20.1262 32.6548 19.6784 33.1025 19.1262 33.1025C18.5739 33.1025 18.1262 32.6548 18.1262 32.1026V21.0706Z" fill="#256BFF"/>
<path d="M32.223 41.9492C32.0957 41.9492 31.9683 41.9203 31.8517 41.8624C31.0583 41.4688 29.8668 40.8386 28.6961 40.0719C26.144 38.4005 25.0888 37.0019 24.9605 36.3122C24.9517 36.2648 24.9473 36.2167 24.9473 36.1685V26.4295C24.9473 26.0282 25.2501 25.6885 25.6564 25.6338C27.8914 25.3333 30.0208 24.3181 31.6524 22.7754C31.9707 22.4746 32.4752 22.4746 32.7935 22.7754C34.4251 24.3181 36.5546 25.3333 38.7895 25.6338C39.1958 25.6885 39.4987 26.0281 39.4987 26.4295V36.1685C39.4987 36.2167 39.4942 36.2647 39.4854 36.3121C39.3571 37.0019 38.3019 38.4005 35.7499 40.0718C34.5791 40.8385 33.3877 41.4687 32.5942 41.8623C32.4777 41.9203 32.3504 41.9492 32.223 41.9492Z" fill="#E9F0FF"/>
<path d="M31.694 35.082C31.4595 35.082 31.2252 34.9925 31.0464 34.8138L28.3659 32.1338C28.0082 31.7762 28.0082 31.1963 28.3659 30.8387C28.7237 30.4811 29.3035 30.4811 29.6614 30.8387L31.6941 32.871L35.2498 29.316C35.6076 28.9585 36.1873 28.9585 36.5452 29.316C36.9029 29.6736 36.9029 30.2535 36.5452 30.6112L32.3417 34.8138C32.1629 34.9926 31.9285 35.082 31.694 35.082Z" fill="#CEE8FA"/>
<path d="M28.8299 40.2125C30.1202 41.0575 31.4411 41.7578 32.3325 42.2006C33.2239 41.7578 34.5448 41.0575 35.8353 40.2124C37.2502 39.2858 38.2191 38.4547 38.8394 37.7868C39.477 37.1003 39.6614 36.6777 39.6886 36.5564V25.4516C36.9487 25.0719 34.3425 23.829 32.3326 21.9414C30.3227 23.829 27.7166 25.0719 24.9766 25.4516V36.5565M28.8299 40.2125C28.8299 40.2125 28.8299 40.2125 28.8299 40.2125L28.2821 41.0491L28.8299 40.2125ZM28.8299 40.2125C27.415 39.2858 26.446 38.4547 25.8257 37.7868C25.1882 37.1004 25.0038 36.6777 24.9766 36.5565M24.9766 36.5565V36.5662C24.9766 36.56 24.976 36.5543 24.975 36.5491L24.8827 36.5662L23.9917 36.7312M24.9766 36.5565C24.9759 36.5536 24.9754 36.5509 24.9749 36.5483L24.8786 36.5662L23.9917 36.7312M23.9917 36.7312C23.9817 36.6768 23.9766 36.6216 23.9766 36.5662V25.3814C23.9766 24.9205 24.3243 24.5304 24.791 24.4676L23.9917 36.7312Z" stroke="#256BFF" stroke-width="2"/>
<path d="M31.7506 35.3145C31.5161 35.3145 31.2818 35.225 31.103 35.0462L28.4226 32.3663C28.0649 32.0087 28.0649 31.4288 28.4226 31.0711C28.7804 30.7135 29.3601 30.7135 29.718 31.0711L31.7507 33.1034L35.3063 29.5484C35.6641 29.1909 36.2439 29.1909 36.6017 29.5484C36.9594 29.906 36.9594 30.4859 36.6017 30.8436L32.3983 35.0463C32.2195 35.225 31.9851 35.3145 31.7506 35.3145Z" fill="#256BFF"/>
</g>
</svg>
