<svg width="48" height="48" viewBox="0 0 48 48" fill="none" xmlns="http://www.w3.org/2000/svg">
<mask id="mask0" mask-type="alpha" maskUnits="userSpaceOnUse" x="0" y="0" width="48" height="48">
<rect width="48" height="48" fill="#C4C4C4"/>
</mask>
<g mask="url(#mask0)">
<rect x="3.04492" y="2.04547" width="21" height="21" rx="6" fill="#E9F0FF"/>
<path fill-rule="evenodd" clip-rule="evenodd" d="M3 6.03719C3 3.80751 4.80751 2 7.03719 2H20.0909C22.3 2 24.0909 3.79086 24.0909 6V13.2264C24.0909 13.7787 23.6432 14.2264 23.0909 14.2264C22.5386 14.2264 22.0909 13.7787 22.0909 13.2264V6C22.0909 4.89543 21.1955 4 20.0909 4H7.03719C5.91208 4 5 4.91208 5 6.03719V18.0909C5 19.7478 6.34315 21.0909 8 21.0909H19.3162C20.1658 21.0909 20.8694 20.8358 21.3424 20.4388C21.7984 20.0561 22.0909 19.5029 22.0909 18.7551C22.0909 18.2028 22.5386 17.7551 23.0909 17.7551C23.6432 17.7551 24.0909 18.2028 24.0909 18.7551C24.0909 20.092 23.5385 21.2067 22.6282 21.9707C21.7351 22.7204 20.5514 23.0909 19.3162 23.0909H8C5.23858 23.0909 3 20.8523 3 18.0909V6.03719Z" fill="#256BFF"/>
<rect x="28.8633" y="6.86377" width="15.1818" height="15.1816" rx="3" stroke="#256BFF" stroke-width="2"/>
<rect x="28.8633" y="27.8638" width="15.1818" height="15.1816" rx="3" stroke="#256BFF" stroke-width="2"/>
<rect x="7.86328" y="27.8638" width="15.1818" height="15.1816" rx="3" stroke="#256BFF" stroke-width="2"/>
</g>
</svg>
