<svg width="48" height="48" viewBox="0 0 48 48" fill="none" xmlns="http://www.w3.org/2000/svg">
<mask id="mask0" mask-type="alpha" maskUnits="userSpaceOnUse" x="0" y="0" width="48" height="48">
<rect width="48" height="48" fill="#C4C4C4"/>
</mask>
<g mask="url(#mask0)">
<path d="M3 11C3 8.79086 4.79086 7 7 7H41C43.2091 7 45 8.79086 45 11V15H3V11Z" fill="#E9F0FF"/>
<circle cx="7" cy="11" r="1" fill="#256BFF"/>
<circle cx="10" cy="11" r="1" fill="#256BFF"/>
<circle cx="13" cy="11" r="1" fill="#256BFF"/>
<path fill-rule="evenodd" clip-rule="evenodd" d="M7 6C4.23858 6 2 8.23858 2 11V36.5806C2 39.342 4.23858 41.5806 7 41.5806H41C42.2274 41.5806 43.4565 41.3192 44.4075 40.6436C45.4052 39.935 46 38.8356 46 37.4193V34.8117C46 34.2595 45.5523 33.8117 45 33.8117C44.4477 33.8117 44 34.2595 44 34.8117V37.4193C44 38.2122 43.6994 38.6934 43.2493 39.0131C42.7526 39.3659 41.9818 39.5806 41 39.5806H7C5.34315 39.5806 4 38.2374 4 36.5806V16H44V29.272C44 29.8242 44.4477 30.272 45 30.272C45.5523 30.272 46 29.8242 46 29.272V11C46 8.23858 43.7614 6 41 6H7ZM44 14V11C44 9.34315 42.6569 8 41 8H7C5.34315 8 4 9.34315 4 11V14H44Z" fill="#256BFF"/>
<path d="M24.395 33.0322C20.3181 33.0322 17 29.7144 17 25.6386C17 21.5628 20.3181 18.2451 24.395 18.2451C28.4719 18.2451 31.79 21.5629 31.79 25.6387C31.79 29.7145 28.4719 33.0322 24.395 33.0322Z" fill="#E9F0FF" stroke="#256BFF" stroke-width="2"/>
<path d="M23.8525 28.6357C23.5968 28.6357 23.3409 28.5383 23.1458 28.3431L20.4353 25.6335C20.045 25.2433 20.045 24.6107 20.4353 24.2205C20.8256 23.8302 21.4584 23.8303 21.8488 24.2205L23.8526 26.2236L26.9416 23.1354C27.3319 22.7452 27.9647 22.7452 28.3551 23.1354C28.7454 23.5256 28.7454 24.1582 28.3551 24.5484L24.5593 28.343C24.364 28.5383 24.1082 28.6357 23.8525 28.6357Z" fill="#256BFF"/>
</g>
</svg>
