<svg width="48" height="48" viewBox="0 0 48 48" fill="none" xmlns="http://www.w3.org/2000/svg">
<mask id="mask0" mask-type="alpha" maskUnits="userSpaceOnUse" x="0" y="0" width="48" height="48">
<rect width="48" height="48" fill="#C4C4C4"/>
</mask>
<g mask="url(#mask0)">
<path d="M24.3169 21.0044V7.19811L43.7106 4.28906V21.0044H24.3169Z" fill="#E9F0FF"/>
<path d="M43.7104 22.2941H24.3167C23.6048 22.2941 23.0273 21.7168 23.0273 21.0047V7.19835C23.0273 6.56015 23.4942 6.01793 24.1255 5.92334L43.5192 3.01428C43.8905 2.95858 44.2674 3.06744 44.5519 3.31238C44.8363 3.55733 44.9999 3.91416 44.9999 4.28945V21.0048C44.9997 21.7168 44.4225 22.2941 43.7104 22.2941ZM24.8749 20.3861L43.2499 20.2695V4.94324L24.8749 7.582V20.3861Z" fill="#256BFF"/>
<path d="M18.4907 22.5164H4.28936C3.57742 22.5164 3 21.9392 3 21.2271V10.0938C3 9.45451 3.4684 8.91179 4.10086 8.8182L18.3022 6.71888C18.6729 6.66424 19.0495 6.77343 19.333 7.01829C19.6169 7.26315 19.78 7.61949 19.78 7.99428V21.2268C19.78 21.9392 19.2026 22.5164 18.4907 22.5164ZM4.75 20.8451L17.875 20.7069V8.8182L4.75 10.5362V20.8451Z" fill="#256BFF"/>
<path d="M43.7104 44.5391C43.6468 44.5391 43.583 44.5343 43.5192 44.5248L24.1255 41.6157C23.4943 41.5211 23.0273 40.9789 23.0273 40.3407V27.684C23.0273 26.9719 23.6047 26.3947 24.3167 26.3947H30.8437C31.5556 26.3947 31.8749 26.832 31.8749 27.2695C31.8749 27.707 31.5556 28.1445 30.8437 28.1445H24.8749V39.9572L43.2499 42.4794V28.1447H38.2777C37.9999 28.1445 37.1249 27.9816 37.1249 27.2695C37.1249 26.5574 37.9999 26.3945 38.2777 26.3945C38.2777 26.3945 43.0312 26.3945 43.7103 26.3945C44.3894 26.3945 44.9999 26.832 44.9997 27.684V43.2496C44.9997 43.625 44.836 43.9818 44.5516 44.2267C44.3161 44.4296 44.0171 44.5391 43.7104 44.5391Z" fill="#256BFF"/>
<path d="M4.28955 37.4461V27.0547H18.4907V39.5455L4.28955 37.4461Z" fill="#E9F0FF"/>
<path d="M18.4907 40.833C18.428 40.833 18.3649 40.8283 18.3022 40.8192L4.10086 38.7199C3.4684 38.6264 3 38.0838 3 37.4445V27.053C3 26.3409 3.57742 25.7637 4.28936 25.7637H18.4907C19.2026 25.7637 19.78 26.3409 19.78 27.053V39.5437C19.78 39.9185 19.6168 40.2749 19.333 40.5197C19.0974 40.7232 18.7978 40.833 18.4907 40.833ZM4.75 37.3632L17.875 39.0812V27.4186L4.75 27.2688V37.3632Z" fill="#256BFF"/>
</g>
</svg>
