<svg id="Outline" height="512" viewBox="0 0 512 512" width="512" xmlns="http://www.w3.org/2000/svg"><path d="m296 376h-32v-24a40.045 40.045 0 0 0 -40-40 8 8 0 0 0 -7.845 6.431l-7.689 38.448-12.747 19.121h-19.719v-8a8 8 0 0 0 -8-8h-96v16h88v96h-88v16h96a8 8 0 0 0 8-8v-8h12.773a89.31 89.31 0 0 0 61.168 24h46.059a32.036 32.036 0 0 0 32-32v-56a32.036 32.036 0 0 0 -32-32zm16 88a16.019 16.019 0 0 1 -16 16h-46.059a73.453 73.453 0 0 1 -52.284-21.657 8 8 0 0 0 -5.657-2.343h-16v-64h24a8 8 0 0 0 6.656-3.562l16-24a8 8 0 0 0 1.189-2.869l6.541-32.707a24.047 24.047 0 0 1 17.614 23.138v24h-16v16h64a16.019 16.019 0 0 1 16 16z"/><path d="m128 440h16v16h-16z"/><path d="m440 16h-336a8 8 0 0 0 -8 8v320h16v-312h320v416h-88v16h96a8 8 0 0 0 8-8v-432a8 8 0 0 0 -8-8z"/><path d="m232 128a39.83 39.83 0 0 0 1.873 12.092l-25.184 56.659a8 8 0 0 0 3.733 10.4l32 16a8 8 0 0 0 11.069-4.346l16.509-44.025 16.509 44.029a8 8 0 0 0 11.069 4.346l32-16a8 8 0 0 0 3.733-10.4l-25.184-56.659a40 40 0 1 0 -78.127-12.096zm11.629 76.87-17.214-8.606 17.638-39.684a40.082 40.082 0 0 0 14.3 9.02zm56.742 0-14.724-39.27a40.082 40.082 0 0 0 14.3-9.02l17.638 39.684zm-28.371-100.87a24 24 0 1 1 -24 24 24.028 24.028 0 0 1 24-24z"/><path d="m264 56h16v16h-16z"/><path d="m218.745 74.745h16.001v16.001h-16.001z" transform="matrix(.707 -.707 .707 .707 7.902 184.568)"/><path d="m200 120h16v16h-16z"/><path d="m328 120h16v16h-16z"/><path d="m309.254 74.745h16.001v16.001h-16.001z" transform="matrix(.707 -.707 .707 .707 34.412 248.569)"/><path d="m264 120h16v16h-16z"/><path d="m160 240h16v16h-16z"/><path d="m192 240h208v16h-208z"/><path d="m144 272h256v16h-256z"/><path d="m264 304h136v16h-136z"/><path d="m144 304h56v16h-56z"/><path d="m384 400h16v16h-16z"/><path d="m352 400h16v16h-16z"/></svg>