<svg width="637" height="570" viewBox="0 0 637 570" fill="none" xmlns="http://www.w3.org/2000/svg">
<path d="M302.501 412.24C301.01 412.228 299.502 412.218 298.02 412.172L298.066 410.678C299.532 410.723 301.031 410.743 302.502 410.745C303.978 410.745 305.483 410.721 306.975 410.673L307.024 412.166C305.515 412.215 303.993 412.24 302.501 412.24ZM289.037 411.608C286.062 411.327 283.057 410.945 280.107 410.474L280.342 408.998C283.261 409.464 286.234 409.842 289.177 410.121L289.037 411.608ZM316.006 411.592L315.864 410.105C318.807 409.823 321.779 409.441 324.698 408.971L324.936 410.447C321.985 410.922 318.981 411.308 316.006 411.592H316.006ZM271.267 408.768C268.354 408.108 265.423 407.343 262.556 406.495L262.98 405.062C265.816 405.901 268.716 406.657 271.598 407.31L271.267 408.768ZM333.773 408.731L333.441 407.274C336.329 406.615 339.228 405.855 342.056 405.015L342.482 406.449C339.623 407.298 336.693 408.065 333.773 408.731H333.773ZM254.008 403.666C251.197 402.634 248.385 401.496 245.649 400.286L246.254 398.919C248.96 400.116 251.742 401.242 254.523 402.264L254.008 403.666ZM351.025 403.608L350.508 402.205C353.272 401.187 356.045 400.062 358.749 398.862L359.355 400.229C356.621 401.442 353.819 402.579 351.025 403.608H351.025ZM237.528 396.373C234.883 394.992 232.242 393.503 229.678 391.949L230.453 390.67C232.989 392.209 235.603 393.682 238.22 395.048L237.528 396.373ZM367.453 396.319L366.761 394.994C369.372 393.628 371.98 392.156 374.51 390.618L375.286 391.895C372.728 393.45 370.093 394.938 367.453 396.319H367.453ZM222.129 387.031C219.679 385.321 217.25 383.507 214.911 381.641L215.843 380.472C218.157 382.319 220.56 384.113 222.984 385.805L222.129 387.031ZM382.823 386.977L381.966 385.753C384.389 384.059 386.789 382.265 389.098 380.42L390.03 381.588C387.697 383.452 385.272 385.265 382.823 386.977ZM208.052 375.801C205.838 373.791 203.66 371.683 201.582 369.54L202.654 368.499C204.711 370.62 206.866 372.704 209.057 374.695L208.052 375.801ZM396.882 375.75L395.876 374.643C398.062 372.657 400.215 370.571 402.275 368.445L403.348 369.484C401.267 371.634 399.09 373.742 396.882 375.75ZM195.523 362.88C193.584 360.606 191.693 358.24 189.903 355.849L191.099 354.953C192.871 357.319 194.742 359.66 196.66 361.909L195.523 362.88ZM409.404 362.818L408.268 361.849C410.186 359.597 412.057 357.253 413.828 354.884L415.025 355.779C413.235 358.174 411.344 360.542 409.404 362.818V362.818ZM184.744 348.474C183.109 345.97 181.535 343.384 180.067 340.788L181.368 340.052C182.82 342.62 184.377 345.18 185.995 347.657L184.744 348.474ZM420.186 348.393L418.934 347.577C420.552 345.095 422.109 342.531 423.562 339.957L424.864 340.691C423.396 343.294 421.822 345.885 420.186 348.393ZM175.894 332.819C174.593 330.128 173.365 327.364 172.243 324.6L173.627 324.038C174.737 326.771 175.953 329.507 177.239 332.168L175.894 332.819ZM429.039 332.702L427.693 332.052C428.979 329.387 430.194 326.644 431.307 323.898L432.692 324.459C431.568 327.234 430.339 330.008 429.039 332.702ZM169.123 316.153C168.178 313.314 167.314 310.41 166.556 307.521L168.001 307.141C168.751 309.999 169.606 312.872 170.541 315.68L169.123 316.153ZM435.805 315.995L434.387 315.525C435.316 312.72 436.168 309.846 436.916 306.982L438.362 307.36C437.606 310.255 436.745 313.16 435.805 315.995ZM164.551 298.743C163.98 295.81 163.497 292.82 163.115 289.855L164.597 289.663C164.975 292.597 165.453 295.556 166.018 298.457L164.551 298.743ZM440.357 298.579L438.89 298.296C439.45 295.395 439.925 292.435 440.3 289.499L441.783 289.689C441.404 292.657 440.924 295.648 440.357 298.579V298.579ZM162.251 280.893C162.059 277.914 161.96 274.885 161.957 271.892L163.452 271.89C163.455 274.852 163.553 277.848 163.742 280.797L162.251 280.893ZM442.636 280.726L441.145 280.631C441.331 277.686 441.425 274.69 441.425 271.727L441.424 271.399H442.919L442.919 271.722C442.919 274.721 442.824 277.749 442.636 280.726ZM163.722 262.986L162.23 262.894C162.415 259.909 162.699 256.893 163.073 253.929L164.556 254.116C164.185 257.049 163.905 260.033 163.722 262.986ZM441.124 262.495C440.93 259.541 440.639 256.558 440.259 253.629L441.74 253.437C442.125 256.396 442.42 259.411 442.616 262.397L441.124 262.495ZM165.955 245.319L164.488 245.037C165.051 242.103 165.719 239.148 166.472 236.254L167.918 236.63C167.174 239.493 166.513 242.417 165.955 245.319ZM438.826 244.837C438.257 241.933 437.586 239.012 436.833 236.155L438.278 235.774C439.039 238.662 439.717 241.614 440.293 244.55L438.826 244.837ZM170.438 228.085L169.018 227.617C169.956 224.776 171.001 221.927 172.123 219.148L173.508 219.708C172.398 222.457 171.365 225.276 170.438 228.085ZM434.285 227.619C433.346 224.814 432.305 222.003 431.189 219.266L432.573 218.701C433.701 221.468 434.754 224.309 435.702 227.145L434.285 227.619ZM177.113 211.548L175.766 210.9C177.062 208.204 178.464 205.514 179.932 202.906L181.235 203.639C179.782 206.22 178.396 208.881 177.113 211.548ZM427.567 211.14C426.28 208.486 424.889 205.835 423.429 203.261L424.729 202.524C426.204 205.125 427.611 207.805 428.912 210.488L427.567 211.14ZM185.854 196.013L184.601 195.198C186.231 192.692 187.964 190.205 189.753 187.806L190.951 188.7C189.181 191.073 187.466 193.534 185.854 196.013ZM418.793 195.661C417.176 193.191 415.456 190.738 413.68 188.371L414.875 187.474C416.67 189.867 418.409 192.346 420.044 194.842L418.793 195.661ZM196.503 181.729L195.365 180.761C197.301 178.483 199.336 176.238 201.413 174.088L202.488 175.127C200.432 177.254 198.419 179.476 196.503 181.729ZM408.111 181.421C406.189 179.174 404.169 176.959 402.109 174.838L403.18 173.796C405.263 175.94 407.304 178.178 409.246 180.449L408.111 181.421ZM208.879 168.92L207.873 167.815C210.084 165.8 212.387 163.833 214.717 161.968L215.652 163.135C213.346 164.98 211.067 166.927 208.879 168.92ZM395.698 168.649C393.507 166.665 391.222 164.724 388.906 162.881L389.837 161.711C392.177 163.574 394.487 165.535 396.701 167.541L395.698 168.649ZM222.777 157.794L221.92 156.57C224.365 154.856 226.898 153.199 229.45 151.644L230.227 152.921C227.703 154.459 225.196 156.099 222.777 157.794ZM381.759 157.556C379.326 155.863 376.811 154.228 374.284 152.699L375.058 151.42C377.612 152.966 380.154 154.617 382.613 156.329L381.759 157.556ZM237.971 148.536L237.277 147.212C239.919 145.825 242.643 144.507 245.371 143.292L245.979 144.657C243.279 145.859 240.586 147.164 237.971 148.536ZM366.512 148.33C363.887 146.964 361.183 145.665 358.473 144.47L359.077 143.102C361.815 144.31 364.549 145.623 367.202 147.004L366.512 148.33ZM254.215 141.304L253.697 139.902C256.499 138.865 259.372 137.906 262.237 137.052L262.664 138.485C259.83 139.329 256.987 140.278 254.215 141.304H254.215ZM350.2 141.134C347.422 140.118 344.576 139.179 341.741 138.345L342.163 136.911C345.029 137.754 347.906 138.703 350.714 139.731L350.2 141.134ZM271.276 136.216L270.943 134.76C273.851 134.093 276.823 133.513 279.778 133.033L280.018 134.509C277.094 134.983 274.153 135.557 271.276 136.216ZM333.12 136.108C330.238 135.458 327.295 134.894 324.373 134.43L324.607 132.954C327.561 133.422 330.536 133.993 333.449 134.649L333.12 136.108ZM288.85 133.364L288.706 131.877C291.673 131.589 294.695 131.392 297.688 131.293L297.737 132.787C294.776 132.885 291.786 133.08 288.85 133.364ZM315.536 133.318C312.596 133.043 309.605 132.859 306.647 132.771L306.692 131.277C309.681 131.366 312.704 131.552 315.675 131.83L315.536 133.318Z" fill="#256BFF"/>
<path d="M303.196 375.158C302.099 375.15 300.988 375.142 299.898 375.108L299.932 374.009C301.011 374.042 302.114 374.057 303.196 374.058C304.283 374.058 305.391 374.04 306.489 374.005L306.525 375.104C305.414 375.14 304.295 375.158 303.196 375.158ZM293.286 374.694C291.096 374.486 288.884 374.205 286.713 373.859L286.886 372.772C289.035 373.115 291.223 373.393 293.389 373.599L293.286 374.694ZM313.136 374.682L313.032 373.587C315.198 373.379 317.385 373.098 319.534 372.753L319.709 373.839C317.537 374.189 315.326 374.472 313.136 374.682H313.136ZM280.207 372.603C278.062 372.117 275.905 371.554 273.795 370.93L274.107 369.875C276.194 370.492 278.329 371.049 280.45 371.53L280.207 372.603ZM326.213 372.576L325.969 371.503C328.095 371.018 330.229 370.459 332.31 369.841L332.623 370.896C330.519 371.521 328.362 372.086 326.213 372.576H326.213ZM267.503 368.848C265.434 368.088 263.364 367.251 261.351 366.359L261.796 365.354C263.788 366.235 265.836 367.063 267.883 367.815L267.503 368.848ZM338.912 368.805L338.531 367.772C340.566 367.023 342.606 366.195 344.597 365.312L345.043 366.318C343.031 367.21 340.968 368.047 338.912 368.805H338.912ZM255.374 363.48C253.427 362.463 251.482 361.368 249.595 360.223L250.166 359.282C252.033 360.415 253.956 361.499 255.883 362.504L255.374 363.48ZM351.004 363.44L350.494 362.465C352.416 361.459 354.335 360.376 356.197 359.244L356.769 360.184C354.886 361.328 352.947 362.423 351.003 363.44H351.004ZM244.039 356.603C242.235 355.345 240.448 354.01 238.726 352.636L239.412 351.776C241.116 353.135 242.884 354.456 244.668 355.701L244.039 356.603ZM362.316 356.564L361.686 355.663C363.469 354.416 365.235 353.095 366.935 351.738L367.621 352.597C365.903 353.969 364.119 355.304 362.316 356.564ZM233.678 348.338C232.048 346.858 230.445 345.307 228.915 343.729L229.705 342.963C231.219 344.524 232.805 346.059 234.418 347.524L233.678 348.338ZM372.664 348.3L371.924 347.486C373.533 346.024 375.118 344.488 376.634 342.923L377.423 343.688C375.892 345.271 374.29 346.822 372.664 348.3ZM224.456 338.828C223.029 337.154 221.637 335.412 220.319 333.652L221.2 332.993C222.504 334.734 223.881 336.457 225.293 338.113L224.456 338.828ZM381.881 338.782L381.045 338.068C382.457 336.411 383.834 334.686 385.137 332.942L386.018 333.601C384.701 335.363 383.309 337.107 381.881 338.782V338.782ZM216.522 328.224C215.318 326.381 214.16 324.478 213.08 322.567L214.037 322.025C215.106 323.916 216.252 325.799 217.443 327.623L216.522 328.224ZM389.817 328.165L388.895 327.564C390.087 325.737 391.232 323.85 392.302 321.955L393.26 322.496C392.179 324.411 391.021 326.319 389.817 328.165ZM210.008 316.701C209.051 314.721 208.147 312.686 207.321 310.652L208.339 310.238C209.157 312.25 210.051 314.263 210.998 316.222L210.008 316.701ZM396.333 316.615L395.342 316.137C396.289 314.175 397.184 312.156 398.002 310.135L399.022 310.548C398.194 312.591 397.29 314.632 396.333 316.615ZM205.024 304.435C204.329 302.345 203.693 300.207 203.135 298.081L204.199 297.801C204.751 299.905 205.38 302.02 206.068 304.087L205.024 304.435ZM401.313 304.318L400.269 303.972C400.954 301.908 401.58 299.792 402.131 297.684L403.195 297.963C402.638 300.093 402.005 302.231 401.313 304.318ZM201.659 291.62C201.239 289.462 200.883 287.261 200.602 285.078L201.693 284.937C201.971 287.097 202.323 289.274 202.739 291.41L201.659 291.62ZM404.663 291.499L403.584 291.291C403.996 289.156 404.346 286.977 404.621 284.816L405.713 284.956C405.434 287.14 405.081 289.342 404.663 291.499V291.499ZM199.966 278.482C199.825 276.289 199.752 274.06 199.75 271.857L200.85 271.855C200.852 274.035 200.924 276.241 201.064 278.411L199.966 278.482ZM406.341 278.359L405.243 278.289C405.38 276.121 405.45 273.916 405.45 271.735L405.449 271.494H406.549L406.55 271.731C406.55 273.939 406.479 276.167 406.341 278.359ZM201.049 265.301L199.951 265.234C200.087 263.036 200.296 260.816 200.571 258.635L201.663 258.773C201.39 260.931 201.184 263.128 201.049 265.301ZM405.228 264.94C405.086 262.766 404.871 260.57 404.591 258.415L405.682 258.273C405.965 260.451 406.182 262.67 406.326 264.868L405.228 264.94ZM202.693 252.298L201.613 252.09C202.028 249.931 202.519 247.756 203.073 245.626L204.137 245.902C203.59 248.01 203.103 250.162 202.693 252.298ZM403.537 251.943C403.118 249.806 402.624 247.656 402.07 245.553L403.133 245.272C403.694 247.398 404.193 249.571 404.617 251.732L403.537 251.943ZM205.992 239.613L204.947 239.268C205.638 237.178 206.406 235.08 207.232 233.035L208.252 233.447C207.435 235.471 206.675 237.545 205.992 239.613ZM400.194 239.27C399.503 237.205 398.737 235.136 397.916 233.121L398.934 232.706C399.764 234.743 400.539 236.834 401.237 238.921L400.194 239.27ZM210.905 227.441L209.914 226.964C210.868 224.98 211.9 223 212.98 221.08L213.939 221.62C212.87 223.519 211.849 225.478 210.905 227.441ZM395.25 227.141C394.303 225.187 393.278 223.236 392.204 221.341L393.161 220.799C394.247 222.713 395.282 224.686 396.239 226.661L395.25 227.141ZM217.339 216.007L216.417 215.407C217.616 213.562 218.892 211.732 220.209 209.966L221.091 210.624C219.788 212.371 218.526 214.182 217.339 216.007ZM388.792 215.748C387.602 213.929 386.336 212.124 385.028 210.382L385.908 209.722C387.229 211.483 388.509 213.307 389.712 215.145L388.792 215.748ZM225.178 205.493L224.34 204.78C225.764 203.104 227.262 201.452 228.791 199.869L229.582 200.634C228.069 202.199 226.587 203.834 225.178 205.493ZM380.929 205.266C379.515 203.612 378.028 201.982 376.511 200.421L377.3 199.654C378.833 201.232 380.336 202.879 381.765 204.551L380.929 205.266ZM234.287 196.065L233.546 195.252C235.174 193.769 236.869 192.321 238.584 190.948L239.271 191.807C237.574 193.165 235.897 194.598 234.287 196.065ZM371.793 195.866C370.18 194.405 368.498 192.977 366.793 191.62L367.479 190.759C369.201 192.13 370.901 193.574 372.531 195.05L371.793 195.866ZM244.516 187.876L243.885 186.975C245.685 185.713 247.55 184.494 249.428 183.349L250 184.289C248.142 185.421 246.297 186.628 244.516 187.876ZM361.533 187.701C359.742 186.454 357.891 185.251 356.031 184.126L356.601 183.184C358.481 184.322 360.352 185.538 362.161 186.798L361.533 187.701ZM255.7 181.061L255.189 180.087C257.133 179.067 259.138 178.096 261.146 177.202L261.593 178.207C259.607 179.091 257.624 180.052 255.7 181.061ZM350.311 180.91C348.379 179.905 346.388 178.949 344.394 178.069L344.838 177.062C346.854 177.951 348.866 178.918 350.819 179.934L350.311 180.91ZM267.656 175.739L267.274 174.707C269.337 173.943 271.451 173.238 273.56 172.609L273.874 173.663C271.788 174.285 269.696 174.984 267.656 175.739H267.656ZM338.304 175.614C336.26 174.866 334.165 174.175 332.078 173.561L332.389 172.505C334.498 173.126 336.616 173.824 338.682 174.581L338.304 175.614ZM280.214 171.994L279.968 170.922C282.108 170.431 284.296 170.004 286.471 169.651L286.647 170.737C284.495 171.086 282.331 171.509 280.214 171.994ZM325.733 171.914C323.612 171.436 321.446 171.02 319.295 170.679L319.467 169.592C321.641 169.937 323.831 170.357 325.975 170.84L325.733 171.914ZM293.148 169.895L293.042 168.8C295.226 168.588 297.45 168.443 299.653 168.37L299.69 169.469C297.51 169.542 295.309 169.685 293.148 169.895ZM312.791 169.861C310.627 169.658 308.425 169.523 306.248 169.458L306.281 168.359C308.481 168.424 310.706 168.561 312.893 168.765L312.791 169.861Z" fill="#D0CDE1"/>
<g filter="url(#filter0_d)">
<ellipse cx="387.295" cy="240.382" rx="39.2206" ry="39.2206" fill="white"/>
<g filter="url(#filter1_i)">
<path fill-rule="evenodd" clip-rule="evenodd" d="M380.03 227.951C381.087 224.446 384.593 222.776 386.708 222.053L387.876 222.943L387.097 225.503C387.765 226.004 388.321 226.672 388.655 227.451C388.989 228.23 389.1 229.064 388.989 229.955C388.878 230.789 388.544 231.568 387.988 232.236C387.431 232.904 386.708 233.405 385.929 233.683C385.15 233.961 384.259 234.017 383.425 233.85C382.59 233.683 381.811 233.238 381.199 232.681C380.587 232.069 380.141 231.346 379.919 230.511C379.808 229.621 379.808 228.786 380.03 227.951ZM409.915 243.421C408.914 246.315 407.356 248.93 405.352 251.211C403.349 253.493 400.845 255.329 398.118 256.665C395.392 258 392.387 258.724 389.326 258.89C386.266 259.057 383.261 258.557 380.367 257.499C377.474 256.442 374.858 254.828 372.633 252.769C370.407 250.711 368.626 248.206 367.346 245.424C366.066 242.642 365.51 239.693 365.399 236.632C365.343 233.572 365.844 230.567 366.957 227.729L374.636 230.567C373.857 232.403 373.523 234.351 373.523 236.354C373.523 238.357 373.968 240.305 374.747 242.085C375.526 243.922 376.695 245.535 378.142 246.871C379.588 248.206 381.258 249.264 383.15 249.931C384.986 250.599 386.989 250.933 388.937 250.822C390.884 250.711 392.832 250.21 394.613 249.375C396.393 248.485 397.951 247.26 399.287 245.814C400.567 244.311 401.568 242.586 402.181 240.694L409.915 243.421ZM395.281 240.361C396.784 239.47 399.288 237.578 399.622 234.685C399.733 234.017 399.622 233.294 399.288 232.681C398.954 232.069 398.509 231.568 397.952 231.179C397.396 230.789 396.728 230.567 396.06 230.567C395.393 230.567 394.725 230.734 394.113 231.068C393.556 231.402 393.055 231.902 392.722 232.514C392.388 233.127 392.221 233.794 392.276 234.462C392.276 235.13 392.499 235.798 392.889 236.354C393.278 236.91 393.835 237.356 394.447 237.634L394.224 239.804L395.281 240.361Z" fill="#1C2833"/>
</g>
</g>
<path d="M301.821 482.836C299.581 482.819 297.314 482.804 295.089 482.734L295.158 480.49C297.36 480.558 299.613 480.588 301.822 480.59C304.041 480.59 306.301 480.554 308.544 480.482L308.617 482.726C306.349 482.799 304.064 482.836 301.821 482.836ZM281.59 481.888C277.12 481.464 272.606 480.891 268.173 480.184L268.527 477.966C272.913 478.666 277.379 479.234 281.802 479.653L281.59 481.888ZM322.113 481.864L321.899 479.629C326.321 479.205 330.787 478.632 335.172 477.926L335.53 480.143C331.096 480.857 326.582 481.436 322.113 481.864H322.113ZM254.891 477.621C250.514 476.628 246.11 475.479 241.802 474.206L242.439 472.052C246.7 473.312 251.057 474.448 255.388 475.429L254.891 477.621ZM348.808 477.565L348.309 475.376C352.649 474.385 357.005 473.244 361.254 471.981L361.893 474.135C357.598 475.411 353.195 476.565 348.808 477.565H348.808ZM228.959 469.955C224.735 468.403 220.51 466.694 216.399 464.875L217.308 462.822C221.374 464.621 225.554 466.312 229.733 467.847L228.959 469.955ZM374.73 469.867L373.954 467.759C378.106 466.229 382.272 464.539 386.335 462.736L387.246 464.789C383.139 466.612 378.928 468.321 374.73 469.867H374.73ZM204.197 458.997C200.223 456.922 196.254 454.685 192.401 452.349L193.566 450.427C197.377 452.74 201.304 454.952 205.236 457.005L204.197 458.997ZM399.414 458.914L398.375 456.924C402.298 454.872 406.215 452.66 410.017 450.349L411.183 452.268C407.34 454.604 403.381 456.84 399.414 458.914H399.414ZM181.058 444.959C177.377 442.39 173.729 439.664 170.214 436.861L171.614 435.104C175.092 437.879 178.702 440.575 182.343 443.117L181.058 444.959ZM422.507 444.879L421.22 443.039C424.861 440.493 428.467 437.798 431.936 435.026L433.337 436.781C429.831 439.582 426.187 442.306 422.507 444.879ZM159.909 428.087C156.581 425.065 153.309 421.899 150.186 418.678L151.798 417.114C154.888 420.301 158.125 423.433 161.418 426.424L159.909 428.087ZM443.632 428.009L442.121 426.346C445.406 423.362 448.64 420.228 451.735 417.033L453.347 418.595C450.22 421.824 446.95 424.992 443.632 428.009ZM141.083 408.672C138.169 405.255 135.329 401.7 132.638 398.107L134.436 396.761C137.098 400.316 139.908 403.833 142.791 407.213L141.083 408.672ZM462.448 408.579L460.739 407.122C463.622 403.739 466.433 400.217 469.094 396.658L470.892 398.002C468.203 401.6 465.362 405.159 462.448 408.579V408.579ZM124.886 387.026C122.429 383.264 120.065 379.378 117.859 375.477L119.814 374.372C121.996 378.231 124.336 382.076 126.766 385.798L124.886 387.026ZM478.648 386.905L476.766 385.679C479.198 381.949 481.537 378.097 483.72 374.229L485.676 375.333C483.47 379.243 481.105 383.137 478.648 386.905ZM111.589 363.504C109.635 359.461 107.789 355.307 106.103 351.155L108.183 350.31C109.852 354.416 111.678 358.527 113.611 362.525L111.589 363.504ZM491.948 363.328L489.927 362.352C491.859 358.347 493.685 354.226 495.356 350.1L497.437 350.942C495.749 355.113 493.902 359.28 491.948 363.328ZM101.416 338.463C99.9951 334.197 98.6974 329.833 97.5582 325.492L99.7303 324.922C100.857 329.216 102.141 333.533 103.546 337.752L101.416 338.463ZM502.116 338.225L499.984 337.519C501.381 333.304 502.661 328.985 503.785 324.683L505.958 325.251C504.821 329.601 503.528 333.965 502.116 338.225ZM94.5457 312.304C93.6878 307.897 92.9619 303.404 92.3879 298.948L94.6148 298.661C95.1828 303.07 95.901 307.514 96.7496 311.874L94.5457 312.304ZM508.954 312.057L506.75 311.631C507.593 307.273 508.306 302.826 508.869 298.414L511.097 298.699C510.528 303.158 509.806 307.653 508.954 312.057V312.057ZM91.0898 285.483C90.8019 281.006 90.6534 276.456 90.6484 271.959L92.894 271.956C92.8989 276.407 93.0458 280.909 93.3309 285.338L91.0898 285.483ZM512.38 285.232L510.138 285.089C510.418 280.664 510.56 276.162 510.56 271.711L510.558 271.218H512.804L512.805 271.703C512.805 276.209 512.661 280.758 512.38 285.232ZM93.2996 258.577L91.0585 258.439C91.337 253.953 91.763 249.422 92.3249 244.969L94.5529 245.25C93.9964 249.656 93.5748 254.14 93.2996 258.577ZM510.108 257.84C509.816 253.4 509.379 248.918 508.807 244.518L511.033 244.229C511.611 248.676 512.054 253.205 512.349 257.693L510.108 257.84ZM96.6559 232.033L94.4509 231.608C95.2979 227.2 96.3013 222.76 97.4316 218.412L99.6048 218.977C98.4864 223.279 97.4941 227.671 96.6559 232.033ZM506.655 231.308C505.8 226.945 504.791 222.556 503.66 218.263L505.831 217.69C506.975 222.029 507.994 226.465 508.859 230.876L506.655 231.308ZM103.391 206.138L101.258 205.433C102.668 201.166 104.237 196.885 105.922 192.709L108.005 193.55C106.337 197.681 104.785 201.916 103.391 206.138ZM499.831 205.437C498.421 201.222 496.856 196.999 495.18 192.886L497.259 192.038C498.954 196.196 500.536 200.464 501.96 204.725L499.831 205.437ZM113.421 181.289L111.397 180.315C113.345 176.265 115.451 172.224 117.657 168.305L119.614 169.407C117.431 173.284 115.348 177.282 113.421 181.289ZM489.738 180.677C487.804 176.689 485.713 172.706 483.52 168.838L485.474 167.73C487.69 171.639 489.804 175.666 491.758 179.697L489.738 180.677ZM126.554 157.948L124.672 156.723C127.121 152.958 129.725 149.221 132.413 145.617L134.213 146.959C131.554 150.526 128.977 154.223 126.554 157.948ZM476.554 157.419C474.125 153.708 471.54 150.022 468.872 146.466L470.668 145.118C473.365 148.713 475.978 152.438 478.434 156.189L476.554 157.419ZM142.556 136.485L140.845 135.031C143.754 131.609 146.811 128.235 149.933 125.005L151.548 126.566C148.459 129.762 145.434 133.1 142.556 136.485ZM460.504 136.022C457.617 132.646 454.582 129.318 451.485 126.131L453.095 124.566C456.225 127.787 459.292 131.15 462.21 134.563L460.504 136.022ZM161.151 117.24L159.639 115.58C162.962 112.552 166.422 109.596 169.923 106.794L171.326 108.548C167.862 111.32 164.439 114.245 161.151 117.24ZM441.853 116.833C438.56 113.851 435.128 110.935 431.647 108.166L433.046 106.408C436.563 109.207 440.033 112.154 443.36 115.168L441.853 116.833ZM182.033 100.523L180.744 98.6835C184.419 96.1079 188.225 93.6179 192.059 91.282L193.227 93.2001C189.435 95.5113 185.668 97.9751 182.033 100.523ZM420.909 100.165C417.253 97.6203 413.475 95.1648 409.678 92.8667L410.84 90.9453C414.678 93.2675 418.498 95.7493 422.192 98.3216L420.909 100.165ZM204.863 86.6112L203.82 84.6218C207.79 82.5392 211.882 80.5574 215.981 78.732L216.894 80.7839C212.838 82.5896 208.791 84.5505 204.863 86.6112ZM398 86.303C394.056 84.25 389.993 82.2984 385.921 80.5021L386.828 78.4469C390.943 80.2624 395.051 82.2354 399.037 84.3103L398 86.303ZM229.27 75.7457L228.491 73.639C232.701 72.0811 237.018 70.6401 241.323 69.3564L241.964 71.5092C237.706 72.7786 233.435 74.2043 229.27 75.7457H229.27ZM373.49 75.4907C369.317 73.9636 365.041 72.5533 360.781 71.2998L361.415 69.1447C365.72 70.4119 370.043 71.8377 374.262 73.3818L373.49 75.4907ZM254.905 68.1013L254.404 65.9123C258.773 64.911 263.239 64.0386 267.679 63.3175L268.039 65.535C263.646 66.2478 259.227 67.111 254.905 68.1013ZM347.828 67.9379C343.498 66.9618 339.076 66.1141 334.684 65.4177L335.036 63.1991C339.475 63.9031 343.944 64.7602 348.321 65.7467L347.828 67.9379ZM281.31 63.8159L281.093 61.5809C285.551 61.1483 290.092 60.8527 294.589 60.703L294.664 62.9479C290.214 63.096 285.721 63.3882 281.31 63.8159ZM321.407 63.7463C316.99 63.3334 312.495 63.0571 308.051 62.9249L308.118 60.68C312.609 60.8138 317.151 61.0929 321.616 61.5102L321.407 63.7463Z" fill="#D0CDE1"/>
<g filter="url(#filter2_d)">
<ellipse cx="433.183" cy="432.451" rx="57.2926" ry="57.2925" fill="#FF7A59"/>
<path d="M416.297 421.24V413.342C415.252 412.855 414.366 412.08 413.744 411.11C413.123 410.14 412.79 409.013 412.784 407.861V407.68C412.784 404.321 415.512 401.598 418.877 401.598H419.059C422.424 401.598 425.152 404.321 425.152 407.68V407.861C425.146 409.013 424.813 410.14 424.192 411.11C423.57 412.08 422.684 412.855 421.639 413.342V421.24C424.644 421.699 427.474 422.943 429.843 424.845L451.542 407.975C451.388 407.417 451.307 406.844 451.298 406.269C451.295 404.913 451.695 403.588 452.448 402.459C453.2 401.331 454.271 400.451 455.524 399.93C456.778 399.409 458.158 399.271 459.49 399.533C460.823 399.795 462.047 400.446 463.009 401.402C463.971 402.359 464.626 403.579 464.893 404.908C465.16 406.237 465.026 407.615 464.509 408.868C463.991 410.121 463.112 411.193 461.984 411.947C460.856 412.702 459.529 413.105 458.171 413.107C456.983 413.102 455.818 412.785 454.791 412.189L433.423 428.785C437.351 434.709 437.246 442.429 433.158 448.244L439.657 454.732C440.183 454.565 440.73 454.476 441.281 454.468C444.394 454.471 446.915 456.99 446.915 460.097C446.914 463.203 444.391 465.721 441.278 465.722C438.166 465.723 435.642 463.206 435.639 460.1C435.646 459.549 435.736 459.003 435.904 458.479L429.475 452.059C423.73 456.473 415.84 456.854 409.696 453.012C403.552 449.171 400.451 441.919 401.923 434.834C403.396 427.748 409.13 422.326 416.297 421.239V421.24ZM418.962 447.213C420.15 447.245 421.332 447.039 422.439 446.608C423.546 446.176 424.554 445.528 425.406 444.7C426.257 443.873 426.934 442.884 427.396 441.791C427.858 440.699 428.096 439.525 428.096 438.339C428.096 437.153 427.858 435.979 427.396 434.886C426.934 433.794 426.257 432.804 425.406 431.977C424.554 431.15 423.546 430.501 422.439 430.07C421.332 429.638 420.15 429.432 418.962 429.464C414.176 429.631 410.381 433.551 410.379 438.332C410.376 443.113 414.167 447.037 418.953 447.209" fill="white"/>
</g>
<g filter="url(#filter3_d)">
<ellipse cx="171.584" cy="430.424" rx="49.5606" ry="49.5605" fill="white"/>
<path d="M196.565 402.658H162.468C161.73 402.658 161.021 402.951 160.499 403.473C159.977 403.996 159.684 404.704 159.684 405.442V408.608L178.902 414.558L199.35 408.608V405.442C199.35 404.704 199.057 403.996 198.534 403.473C198.012 402.951 197.304 402.658 196.565 402.658Z" fill="#0364B8"/>
<path d="M202.62 433.211C202.911 432.298 203.143 431.367 203.314 430.424C203.314 430.193 203.253 429.965 203.137 429.765C203.021 429.564 202.855 429.398 202.654 429.282L202.628 429.266L202.62 429.262L181.125 417.017C181.032 416.957 180.936 416.902 180.838 416.853C180.426 416.648 179.974 416.542 179.515 416.542C179.056 416.542 178.603 416.648 178.192 416.853C178.093 416.901 177.997 416.956 177.904 417.015L156.409 429.264L156.401 429.268L156.377 429.282C156.176 429.397 156.009 429.564 155.893 429.764C155.777 429.965 155.715 430.193 155.715 430.424C155.887 431.367 156.119 432.298 156.409 433.211L179.201 449.881L202.62 433.211Z" fill="#0A2767"/>
<path d="M187.45 408.608H173.567L169.559 414.558L173.567 420.508L187.45 432.408H199.35V420.508L187.45 408.608Z" fill="#28A8EA"/>
<path d="M159.684 408.608H173.567V420.508H159.684V408.608Z" fill="#0078D4"/>
<path d="M187.449 408.608H199.349V420.508H187.449V408.608Z" fill="#50D9FF"/>
<path d="M187.45 432.407L173.567 420.507H159.684V432.407L173.567 444.307L195.05 447.813L187.45 432.407Z" fill="#0364B8"/>
<path d="M173.566 420.507H187.45V432.407H173.566V420.507Z" fill="#0078D4"/>
<path d="M159.684 432.407H173.567V444.307H159.684V432.407Z" fill="#064A8C"/>
<path d="M187.449 432.407H199.349V444.307H187.449V432.407Z" fill="#0078D4"/>
<path opacity="0.5" d="M179.897 448.706L156.508 431.65L157.49 429.924C157.49 429.924 178.8 442.062 179.126 442.245C179.259 442.298 179.401 442.323 179.545 442.319C179.688 442.315 179.829 442.281 179.959 442.221L201.642 429.865L202.626 431.588L179.897 448.706Z" fill="#0A2767"/>
<path d="M202.659 431.568L202.631 431.584L202.625 431.588L181.13 443.833C180.703 444.109 180.213 444.27 179.706 444.301C179.199 444.333 178.692 444.234 178.234 444.014L185.719 454.051L202.09 457.615V457.623C202.47 457.348 202.781 456.986 202.994 456.567C203.208 456.149 203.319 455.685 203.319 455.215V430.424C203.319 430.656 203.258 430.884 203.143 431.085C203.027 431.286 202.86 431.452 202.659 431.568Z" fill="#1490DF"/>
<path opacity="0.05" d="M203.319 455.215V453.752L183.52 442.47L181.13 443.833C180.703 444.108 180.213 444.269 179.706 444.301C179.199 444.332 178.692 444.233 178.234 444.013L185.719 454.051L202.09 457.615V457.623C202.471 457.348 202.781 456.986 202.994 456.567C203.208 456.149 203.319 455.685 203.319 455.215Z" fill="black"/>
<path opacity="0.1" d="M203.22 455.975L181.517 443.613L181.13 443.831C180.703 444.107 180.213 444.268 179.706 444.3C179.199 444.332 178.692 444.233 178.234 444.013L185.719 454.051L202.09 457.615V457.623C202.645 457.221 203.044 456.639 203.22 455.977V455.975Z" fill="black"/>
<path d="M156.409 431.594V431.574H156.389L156.33 431.534C156.14 431.418 155.984 431.255 155.876 431.06C155.768 430.865 155.713 430.646 155.715 430.424V455.215C155.714 455.606 155.791 455.993 155.94 456.355C156.09 456.716 156.309 457.044 156.585 457.32C156.861 457.597 157.19 457.816 157.551 457.965C157.912 458.114 158.299 458.191 158.69 458.19H200.339C200.587 458.188 200.834 458.155 201.073 458.091C201.198 458.07 201.318 458.03 201.43 457.972C201.472 457.968 201.513 457.955 201.549 457.933C201.712 457.866 201.865 457.78 202.005 457.675C202.045 457.655 202.065 457.655 202.085 457.615L156.409 431.594Z" fill="#28A8EA"/>
<path opacity="0.1" d="M175.548 447.614V415.218C175.546 414.518 175.267 413.846 174.771 413.351C174.276 412.856 173.605 412.576 172.904 412.574H159.741V427.362L156.409 429.262L156.399 429.266L156.375 429.28C156.174 429.396 156.008 429.563 155.892 429.763C155.776 429.964 155.715 430.192 155.715 430.424V430.434V430.424V450.257H172.904C173.605 450.255 174.276 449.976 174.771 449.481C175.267 448.985 175.546 448.314 175.548 447.614Z" fill="black"/>
<path opacity="0.2" d="M173.565 449.597V417.201C173.563 416.501 173.283 415.83 172.788 415.334C172.293 414.839 171.621 414.56 170.921 414.558H159.741V427.362L156.409 429.262L156.399 429.266L156.375 429.28C156.174 429.396 156.008 429.562 155.892 429.763C155.776 429.964 155.715 430.192 155.715 430.424V430.434V430.424V452.24H170.921C171.621 452.238 172.293 451.959 172.788 451.464C173.283 450.968 173.563 450.297 173.565 449.597Z" fill="black"/>
<path opacity="0.2" d="M173.565 445.63V417.201C173.563 416.501 173.283 415.83 172.788 415.334C172.293 414.839 171.621 414.56 170.921 414.558H159.741V427.362L156.409 429.262L156.399 429.266L156.375 429.28C156.174 429.396 156.008 429.563 155.892 429.763C155.776 429.964 155.715 430.192 155.715 430.424V430.434V430.424V448.274H170.921C171.621 448.272 172.293 447.993 172.788 447.497C173.283 447.002 173.563 446.331 173.565 445.63Z" fill="black"/>
<path opacity="0.2" d="M171.581 445.63V417.201C171.579 416.501 171.3 415.83 170.805 415.334C170.309 414.839 169.638 414.56 168.938 414.558H159.741V427.362L156.409 429.262L156.399 429.266L156.375 429.28C156.174 429.396 156.008 429.563 155.892 429.763C155.776 429.964 155.715 430.192 155.715 430.424V430.434V430.424V448.274H168.938C169.638 448.272 170.309 447.993 170.805 447.497C171.3 447.002 171.579 446.331 171.581 445.63Z" fill="black"/>
<path d="M142.495 414.558H168.941C169.642 414.558 170.314 414.836 170.81 415.332C171.306 415.828 171.585 416.5 171.585 417.201V443.647C171.585 444.348 171.306 445.02 170.81 445.516C170.314 446.012 169.642 446.291 168.941 446.291H142.495C141.794 446.291 141.122 446.012 140.626 445.516C140.13 445.02 139.852 444.348 139.852 443.647V417.201C139.852 416.5 140.13 415.828 140.626 415.332C141.122 414.836 141.794 414.558 142.495 414.558Z" fill="#0078D4"/>
<path d="M147.521 425.402C148.223 423.905 149.357 422.652 150.777 421.804C152.351 420.904 154.142 420.455 155.954 420.507C157.632 420.471 159.287 420.896 160.74 421.737C162.107 422.551 163.208 423.745 163.909 425.174C164.673 426.749 165.053 428.482 165.02 430.231C165.056 432.059 164.664 433.87 163.875 435.519C163.159 436.999 162.025 438.236 160.613 439.077C159.103 439.945 157.385 440.382 155.644 440.341C153.93 440.381 152.237 439.951 150.75 439.097C149.372 438.281 148.257 437.086 147.541 435.654C146.772 434.102 146.386 432.389 146.416 430.658C146.383 428.845 146.761 427.048 147.521 425.402ZM150.992 433.847C151.366 434.794 152.001 435.615 152.822 436.215C153.659 436.801 154.662 437.104 155.684 437.078C156.772 437.12 157.845 436.808 158.74 436.187C159.553 435.587 160.171 434.762 160.519 433.813C160.91 432.757 161.102 431.637 161.087 430.511C161.099 429.374 160.918 428.243 160.551 427.167C160.228 426.199 159.631 425.345 158.834 424.708C157.962 424.056 156.892 423.725 155.805 423.77C154.761 423.743 153.736 424.048 152.876 424.64C152.038 425.242 151.389 426.069 151.003 427.026C150.152 429.22 150.147 431.652 150.99 433.849L150.992 433.847Z" fill="white"/>
</g>
<g filter="url(#filter4_d)">
<circle cx="184.727" cy="89.1569" r="49.1569" fill="white"/>
<g opacity="0.849864">
<path opacity="0.849864" d="M162.617 104.684V74.1063L191.372 64.1096L206.999 68.8139V109.976L191.372 114.408L162.617 104.684L191.372 107.939V72.3424L172.619 76.4587V100.568L162.617 104.684Z" fill="#EB3C00"/>
</g>
</g>
<g filter="url(#filter5_d)">
<ellipse cx="97.0648" cy="259.636" rx="47.0648" ry="47.0647" fill="white"/>
<path fill-rule="evenodd" clip-rule="evenodd" d="M120.367 256.71C120.65 257.191 120.743 257.739 120.773 258.355L120.814 259.175V264.913L120.855 265.735C120.937 267.076 121.942 268.068 123.316 268.152L124.146 268.193V259.175L124.187 258.355C124.222 257.746 124.313 257.188 124.601 256.703C124.895 256.206 125.316 255.793 125.822 255.507C126.329 255.22 126.903 255.07 127.487 255.071C128.072 255.072 128.645 255.225 129.151 255.513C129.656 255.801 130.076 256.215 130.367 256.713C130.651 257.195 130.739 257.753 130.773 258.355L130.814 259.173V264.913L130.855 265.735C130.941 267.083 131.939 268.075 133.317 268.152L134.147 268.193V258.355C134.147 256.615 133.445 254.946 132.195 253.716C130.945 252.486 129.25 251.794 127.483 251.793C126.536 251.792 125.601 251.99 124.739 252.373C123.876 252.757 123.107 253.316 122.482 254.016C121.857 253.317 121.088 252.757 120.226 252.374C119.363 251.99 118.428 251.792 117.482 251.792C116.098 251.792 114.813 252.206 113.749 252.92C113.1 252.207 111.648 251.792 110.814 251.792V268.193L111.648 268.152C113.042 268.062 114.05 267.097 114.105 265.735L114.149 264.913V259.175L114.19 258.355C114.225 257.735 114.313 257.191 114.597 256.706C114.891 256.21 115.312 255.797 115.818 255.51C116.324 255.224 116.898 255.072 117.482 255.072C118.066 255.072 118.641 255.224 119.147 255.511C119.653 255.799 120.074 256.212 120.367 256.71ZM63.3171 268.153L64.1509 268.193H76.6496L76.6085 267.375C76.4956 266.027 75.5253 265.041 74.1507 264.954L73.3169 264.913H65.8186L75.8158 255.071L75.7746 254.254C75.7099 252.892 74.6984 251.908 73.3169 251.833L72.4831 251.796L59.9844 251.792L60.0255 252.613C60.1349 253.949 61.1192 254.954 62.4824 255.032L63.3171 255.072H70.8154L60.8182 264.914L60.8593 265.735C60.9416 267.086 61.9329 268.065 63.3171 268.152V268.153ZM107.542 254.193C108.316 254.955 108.93 255.859 109.349 256.853C109.768 257.848 109.983 258.915 109.983 259.992C109.983 261.069 109.768 262.135 109.349 263.13C108.93 264.125 108.316 265.029 107.542 265.791C105.979 267.328 103.859 268.192 101.649 268.192C99.4384 268.192 97.3186 267.328 95.755 265.791C92.5011 262.588 92.5011 257.395 95.755 254.193C96.5282 253.432 97.4462 252.828 98.4565 252.416C99.4669 252.004 100.55 251.792 101.643 251.792C102.739 251.791 103.824 252.003 104.836 252.415C105.848 252.827 106.768 253.432 107.542 254.194V254.193ZM105.184 256.515C106.122 257.438 106.648 258.69 106.648 259.995C106.648 261.3 106.122 262.551 105.184 263.474C104.246 264.397 102.975 264.915 101.649 264.915C100.323 264.915 99.051 264.397 98.113 263.474C97.1758 262.551 96.6493 261.3 96.6493 259.995C96.6493 258.69 97.1758 257.438 98.113 256.515C99.051 255.593 100.323 255.075 101.649 255.075C102.975 255.075 104.246 255.593 105.184 256.515ZM84.1549 251.792C85.2486 251.792 86.3316 252.004 87.3419 252.416C88.3523 252.829 89.2702 253.433 90.0433 254.194C93.2982 257.395 93.2982 262.589 90.0433 265.791C88.4798 267.328 86.3599 268.192 84.1497 268.192C81.9394 268.192 79.8195 267.328 78.256 265.791C75.002 262.588 75.002 257.395 78.256 254.193C79.0292 253.432 79.9472 252.828 80.9575 252.416C81.9678 252.004 83.0508 251.792 84.1444 251.792H84.1549ZM87.6853 256.514C88.6229 257.437 89.1495 258.688 89.1495 259.994C89.1495 261.299 88.6229 262.55 87.6853 263.473C86.7474 264.396 85.4756 264.914 84.1497 264.914C82.8237 264.914 81.552 264.396 80.614 263.473C79.6767 262.55 79.1502 261.299 79.1502 259.994C79.1502 258.689 79.6767 257.438 80.614 256.514C81.552 255.592 82.8237 255.074 84.1497 255.074C85.4756 255.074 86.7474 255.592 87.6853 256.514V256.514Z" fill="#2D8CFF"/>
</g>
<g filter="url(#filter6_d)">
<path d="M385.744 133.752C411.666 133.752 432.68 112.765 432.68 86.8761C432.68 60.9872 411.666 40 385.744 40C359.822 40 338.809 60.9872 338.809 86.8761C338.809 112.765 359.822 133.752 385.744 133.752Z" fill="white"/>
<path d="M371.766 63.2852C371.766 59.823 374.585 57.0072 378.052 57.0072C381.518 57.0072 384.338 59.823 384.338 63.2852V69.5631H378.052C374.585 69.5631 371.766 66.7474 371.766 63.2852Z" fill="#35C5F1"/>
<path d="M399.996 110.733C399.996 114.195 397.177 117.011 393.71 117.011C390.243 117.011 387.424 114.195 387.424 110.733V104.455H393.71C397.177 104.455 399.996 107.27 399.996 110.733Z" fill="#ECB22F"/>
<path d="M409.632 72.646C413.099 72.646 415.918 75.4618 415.918 78.924C415.918 82.3862 413.099 85.2021 409.632 85.2021H403.346V78.924C403.346 75.4618 406.165 72.646 409.632 72.646Z" fill="#2DB67C"/>
<path d="M361.86 101.106C358.394 101.106 355.574 98.2905 355.574 94.8283C355.574 91.3662 358.394 88.5504 361.86 88.5504H368.146V94.8283C368.146 98.2905 365.327 101.106 361.86 101.106Z" fill="#E01E5A"/>
<path d="M399.998 63.0195C399.998 59.5522 397.184 56.7415 393.712 56.7415C390.24 56.7415 387.426 59.5522 387.426 63.0195V78.9239C387.426 82.3912 390.24 85.202 393.712 85.202C397.184 85.202 399.998 82.3912 399.998 78.9239V63.0195Z" fill="#2DB67C"/>
<path d="M384.072 94.8285C384.072 91.3613 381.258 88.5505 377.786 88.5505C374.314 88.5505 371.5 91.3613 371.5 94.8285V110.733C371.5 114.2 374.314 117.011 377.786 117.011C381.258 117.011 384.072 114.2 384.072 110.733V94.8285Z" fill="#E01E5A"/>
<path fill-rule="evenodd" clip-rule="evenodd" d="M384.074 78.924C384.074 82.3913 381.26 85.2021 377.788 85.2021H361.864C358.392 85.2021 355.578 82.3913 355.578 78.924C355.578 75.4567 358.392 72.646 361.864 72.646H377.788C381.26 72.646 384.074 75.4567 384.074 78.924Z" fill="#35C5F1"/>
<path fill-rule="evenodd" clip-rule="evenodd" d="M415.918 94.8285C415.918 98.2958 413.104 101.107 409.632 101.107H393.707C390.236 101.107 387.421 98.2958 387.421 94.8285C387.421 91.3613 390.236 88.5505 393.707 88.5505H409.632C413.104 88.5505 415.918 91.3613 415.918 94.8285Z" fill="#ECB22F"/>
</g>
<g filter="url(#filter7_d)">
<circle cx="512.805" cy="253.931" r="54.1958" fill="white"/>
<path d="M506.635 232.332C509.142 229.72 512.632 228.1 516.491 228.1C521.622 228.1 526.099 230.961 528.483 235.209C530.555 234.283 532.848 233.768 535.26 233.768C544.515 233.768 552.017 241.336 552.017 250.671C552.017 260.007 544.515 267.576 535.26 267.576C534.152 267.576 533.046 267.466 531.96 267.247C529.86 270.991 525.86 273.521 521.268 273.521C519.346 273.521 517.528 273.077 515.909 272.288C513.781 277.294 508.823 280.804 503.044 280.804C497.026 280.804 491.897 276.996 489.929 271.656C489.069 271.838 488.177 271.934 487.263 271.934C480.098 271.934 474.289 266.065 474.289 258.825C474.289 253.973 476.899 249.737 480.776 247.47C479.978 245.633 479.534 243.606 479.534 241.474C479.534 233.148 486.294 226.398 494.631 226.398C499.526 226.398 503.877 228.726 506.635 232.332Z" fill="#00A1E0"/>
<path d="M485.545 254.612C485.496 254.739 485.563 254.766 485.578 254.788C485.724 254.894 485.873 254.97 486.022 255.056C486.815 255.476 487.564 255.599 488.346 255.599C489.941 255.599 490.931 254.751 490.931 253.386V253.359C490.931 252.097 489.813 251.639 488.765 251.308L488.629 251.263C487.838 251.006 487.156 250.785 487.156 250.265V250.237C487.156 249.792 487.555 249.464 488.172 249.464C488.859 249.464 489.674 249.692 490.199 249.982C490.199 249.982 490.353 250.082 490.409 249.932C490.44 249.853 490.706 249.137 490.734 249.06C490.763 248.976 490.71 248.914 490.656 248.88C490.057 248.516 489.229 248.267 488.372 248.267L488.212 248.268C486.753 248.268 485.734 249.15 485.734 250.413V250.439C485.734 251.771 486.858 252.203 487.911 252.504L488.081 252.557C488.848 252.792 489.509 252.995 489.509 253.535V253.562C489.509 254.056 489.079 254.423 488.386 254.423C488.117 254.423 487.259 254.418 486.332 253.832C486.22 253.767 486.155 253.719 486.069 253.667C486.023 253.638 485.909 253.588 485.86 253.739L485.545 254.612ZM508.887 254.612C508.838 254.739 508.904 254.766 508.92 254.788C509.066 254.894 509.214 254.97 509.364 255.056C510.156 255.476 510.905 255.599 511.688 255.599C513.282 255.599 514.272 254.751 514.272 253.386V253.359C514.272 252.097 513.155 251.639 512.106 251.308L511.97 251.263C511.18 251.006 510.498 250.785 510.498 250.265V250.237C510.498 249.792 510.896 249.464 511.514 249.464C512.2 249.464 513.015 249.692 513.54 249.982C513.54 249.982 513.694 250.082 513.751 249.932C513.782 249.853 514.047 249.137 514.075 249.06C514.105 248.976 514.052 248.914 513.998 248.88C513.399 248.516 512.57 248.267 511.713 248.267L511.554 248.268C510.094 248.268 509.076 249.15 509.076 250.413V250.439C509.076 251.771 510.2 252.203 511.253 252.504L511.422 252.557C512.189 252.792 512.852 252.995 512.852 253.535V253.562C512.852 254.056 512.421 254.423 511.728 254.423C511.459 254.423 510.601 254.418 509.674 253.832C509.562 253.767 509.496 253.721 509.411 253.667C509.383 253.648 509.248 253.596 509.201 253.739L508.887 254.612ZM524.821 251.937C524.821 252.709 524.677 253.317 524.394 253.747C524.114 254.172 523.69 254.379 523.099 254.379C522.506 254.379 522.084 254.173 521.809 253.747C521.529 253.318 521.388 252.709 521.388 251.937C521.388 251.167 521.529 250.56 521.809 250.135C522.084 249.714 522.506 249.509 523.099 249.509C523.69 249.509 524.114 249.714 524.395 250.135C524.677 250.56 524.821 251.167 524.821 251.937ZM526.152 250.507C526.022 250.065 525.818 249.675 525.547 249.351C525.275 249.025 524.932 248.764 524.525 248.574C524.118 248.384 523.638 248.288 523.099 248.288C522.558 248.288 522.078 248.384 521.671 248.574C521.264 248.764 520.921 249.025 520.648 249.351C520.378 249.676 520.174 250.066 520.043 250.507C519.913 250.946 519.848 251.427 519.848 251.937C519.848 252.448 519.913 252.93 520.043 253.368C520.174 253.809 520.377 254.198 520.649 254.524C520.921 254.849 521.265 255.11 521.671 255.294C522.079 255.479 522.558 255.574 523.099 255.574C523.638 255.574 524.117 255.479 524.525 255.294C524.931 255.11 525.275 254.849 525.547 254.524C525.818 254.199 526.022 253.81 526.152 253.368C526.283 252.928 526.348 252.447 526.348 251.937C526.348 251.428 526.283 250.946 526.152 250.507ZM537.081 254.173C537.037 254.043 536.912 254.092 536.912 254.092C536.718 254.166 536.512 254.235 536.293 254.269C536.07 254.303 535.826 254.321 535.563 254.321C534.919 254.321 534.407 254.13 534.041 253.751C533.673 253.372 533.467 252.76 533.47 251.932C533.472 251.178 533.653 250.611 533.98 250.179C534.305 249.749 534.798 249.529 535.457 249.529C536.006 249.529 536.425 249.592 536.863 249.731C536.863 249.731 536.968 249.776 537.018 249.639C537.134 249.315 537.221 249.084 537.345 248.728C537.38 248.628 537.294 248.585 537.263 248.572C537.09 248.505 536.683 248.395 536.375 248.349C536.087 248.304 535.75 248.281 535.376 248.281C534.817 248.281 534.319 248.376 533.893 248.567C533.467 248.756 533.106 249.017 532.821 249.343C532.535 249.669 532.318 250.058 532.173 250.499C532.029 250.938 531.956 251.421 531.956 251.932C531.956 253.036 532.254 253.928 532.842 254.581C533.431 255.237 534.316 255.57 535.469 255.57C536.151 255.57 536.851 255.432 537.354 255.233C537.354 255.233 537.45 255.187 537.408 255.075L537.081 254.173ZM539.41 251.198C539.473 250.77 539.592 250.413 539.774 250.135C540.05 249.713 540.471 249.482 541.062 249.482C541.653 249.482 542.044 249.714 542.324 250.135C542.51 250.413 542.591 250.785 542.623 251.198H539.41ZM543.891 250.256C543.778 249.829 543.498 249.399 543.314 249.202C543.024 248.889 542.741 248.671 542.459 248.549C542.092 248.392 541.651 248.288 541.168 248.288C540.606 248.288 540.095 248.382 539.681 248.577C539.266 248.772 538.917 249.038 538.644 249.369C538.37 249.699 538.164 250.092 538.034 250.538C537.902 250.982 537.836 251.466 537.836 251.976C537.836 252.496 537.904 252.98 538.04 253.415C538.178 253.853 538.397 254.24 538.694 254.56C538.989 254.882 539.37 255.134 539.826 255.31C540.279 255.485 540.83 255.576 541.462 255.575C542.763 255.57 543.448 255.28 543.731 255.124C543.78 255.097 543.828 255.048 543.768 254.908L543.474 254.083C543.429 253.961 543.304 254.006 543.304 254.006C542.982 254.125 542.524 254.34 541.455 254.338C540.756 254.337 540.238 254.131 539.914 253.809C539.581 253.479 539.418 252.994 539.389 252.31L543.894 252.314C543.894 252.314 544.013 252.312 544.025 252.197C544.029 252.148 544.18 251.271 543.891 250.256ZM503.329 251.198C503.393 250.77 503.51 250.413 503.693 250.135C503.969 249.713 504.389 249.482 504.981 249.482C505.572 249.482 505.963 249.714 506.244 250.135C506.429 250.413 506.51 250.785 506.542 251.198H503.329ZM507.809 250.256C507.696 249.829 507.417 249.399 507.233 249.202C506.943 248.889 506.659 248.671 506.378 248.549C506.01 248.392 505.57 248.288 505.087 248.288C504.526 248.288 504.014 248.382 503.6 248.577C503.185 248.772 502.836 249.038 502.563 249.369C502.289 249.699 502.083 250.092 501.952 250.538C501.822 250.982 501.754 251.466 501.754 251.976C501.754 252.496 501.823 252.98 501.959 253.415C502.096 253.853 502.316 254.24 502.612 254.56C502.908 254.882 503.289 255.134 503.745 255.31C504.198 255.485 504.748 255.576 505.381 255.575C506.682 255.57 507.367 255.28 507.649 255.124C507.699 255.097 507.747 255.048 507.687 254.908L507.394 254.083C507.348 253.961 507.223 254.006 507.223 254.006C506.901 254.125 506.444 254.34 505.373 254.338C504.675 254.337 504.157 254.131 503.833 253.809C503.499 253.479 503.337 252.994 503.308 252.31L507.813 252.314C507.813 252.314 507.932 252.312 507.944 252.197C507.948 252.148 508.099 251.271 507.809 250.256ZM493.59 254.148C493.414 254.007 493.39 253.972 493.33 253.881C493.242 253.743 493.196 253.546 493.196 253.296C493.196 252.899 493.327 252.615 493.598 252.423C493.595 252.424 493.986 252.085 494.905 252.097C495.55 252.106 496.127 252.202 496.127 252.202V254.25H496.128C496.128 254.25 495.556 254.373 494.911 254.412C493.995 254.467 493.587 254.147 493.59 254.148ZM495.383 250.982C495.2 250.969 494.963 250.961 494.68 250.961C494.293 250.961 493.92 251.01 493.57 251.104C493.218 251.198 492.902 251.346 492.629 251.54C492.357 251.735 492.134 251.989 491.976 252.283C491.817 252.58 491.736 252.93 491.736 253.322C491.736 253.721 491.804 254.067 491.942 254.351C492.079 254.635 492.277 254.872 492.53 255.055C492.78 255.238 493.089 255.372 493.447 255.452C493.801 255.533 494.202 255.574 494.64 255.574C495.102 255.574 495.562 255.537 496.009 255.46C496.45 255.385 496.993 255.275 497.143 255.241C497.249 255.215 497.354 255.188 497.459 255.16C497.571 255.132 497.562 255.013 497.562 255.013L497.56 250.893C497.56 249.989 497.318 249.319 496.843 248.904C496.371 248.49 495.674 248.281 494.774 248.281C494.436 248.281 493.893 248.327 493.567 248.393C493.567 248.393 492.583 248.583 492.177 248.9C492.177 248.9 492.089 248.955 492.138 249.079L492.457 249.936C492.496 250.047 492.604 250.009 492.604 250.009C492.604 250.009 492.638 249.996 492.678 249.973C493.545 249.501 494.641 249.515 494.641 249.515C495.128 249.515 495.503 249.613 495.755 249.807C496.001 249.995 496.126 250.279 496.126 250.879V251.07C495.738 251.015 495.383 250.982 495.383 250.982ZM531.721 248.661C531.755 248.559 531.683 248.51 531.653 248.499C531.577 248.47 531.194 248.389 530.898 248.37C530.332 248.336 530.018 248.431 529.736 248.557C529.457 248.683 529.147 248.887 528.975 249.118V248.57C528.975 248.494 528.92 248.433 528.845 248.433H527.69C527.615 248.433 527.561 248.494 527.561 248.57V255.29C527.561 255.365 527.623 255.427 527.698 255.427H528.882C528.918 255.427 528.953 255.413 528.978 255.387C529.004 255.361 529.018 255.326 529.018 255.29V251.933C529.018 251.482 529.068 251.033 529.167 250.75C529.265 250.471 529.398 250.248 529.562 250.087C529.726 249.928 529.914 249.816 530.118 249.753C530.328 249.689 530.559 249.668 530.723 249.668C530.959 249.668 531.218 249.728 531.218 249.728C531.304 249.738 531.353 249.685 531.382 249.607C531.459 249.401 531.679 248.784 531.721 248.661Z" fill="white"/>
<path d="M520.611 245.547C520.467 245.502 520.336 245.472 520.166 245.44C519.993 245.409 519.787 245.394 519.553 245.394C518.738 245.394 518.096 245.624 517.646 246.078C517.197 246.53 516.893 247.217 516.74 248.122L516.684 248.427H515.661C515.661 248.427 515.537 248.422 515.511 248.557L515.344 249.495C515.331 249.584 515.37 249.64 515.49 249.64H516.485L515.475 255.278C515.397 255.732 515.306 256.105 515.205 256.389C515.107 256.668 515.01 256.877 514.891 257.03C514.776 257.176 514.667 257.284 514.479 257.348C514.324 257.4 514.144 257.424 513.948 257.424C513.84 257.424 513.695 257.406 513.588 257.384C513.481 257.363 513.425 257.34 513.344 257.305C513.344 257.305 513.228 257.261 513.181 257.377C513.145 257.474 512.879 258.203 512.847 258.293C512.816 258.383 512.86 258.453 512.916 258.474C513.049 258.52 513.148 258.551 513.328 258.594C513.579 258.653 513.79 258.656 513.988 258.656C514.402 258.656 514.781 258.598 515.094 258.485C515.409 258.371 515.683 258.172 515.927 257.904C516.189 257.614 516.354 257.311 516.512 256.896C516.668 256.486 516.802 255.977 516.908 255.383L517.923 249.64H519.407C519.407 249.64 519.532 249.645 519.558 249.508L519.726 248.572C519.737 248.482 519.699 248.427 519.579 248.427H518.138C518.146 248.395 518.211 247.887 518.376 247.41C518.447 247.208 518.58 247.043 518.692 246.93C518.803 246.819 518.93 246.74 519.069 246.695C519.212 246.648 519.375 246.626 519.553 246.626C519.688 246.626 519.822 246.642 519.923 246.663C520.063 246.693 520.117 246.708 520.153 246.719C520.301 246.764 520.321 246.72 520.349 246.65L520.694 245.704C520.729 245.602 520.642 245.559 520.611 245.547ZM500.484 255.29C500.484 255.366 500.43 255.427 500.354 255.427H499.16C499.084 255.427 499.031 255.366 499.031 255.29V245.675C499.031 245.6 499.084 245.539 499.16 245.539H500.354C500.43 245.539 500.484 245.6 500.484 245.675V255.29Z" fill="white"/>
</g>
<g filter="url(#filter8_d)">
<g opacity="0.91" filter="url(#filter9_d)">
<path d="M220.784 349.743C239.098 349.743 253.944 335.159 253.944 317.168C253.944 299.178 239.098 284.594 220.784 284.594C202.471 284.594 187.625 299.178 187.625 317.168C187.625 335.159 202.471 349.743 220.784 349.743Z" fill="black"/>
</g>
<path d="M220.784 349.743C239.098 349.743 253.944 335.159 253.944 317.168C253.944 299.178 239.098 284.594 220.784 284.594C202.471 284.594 187.625 299.178 187.625 317.168C187.625 335.159 202.471 349.743 220.784 349.743Z" fill="#0D2481"/>
<path opacity="0.91" fill-rule="evenodd" clip-rule="evenodd" d="M243.477 319.889L232.129 327.115L220.789 319.894L209.45 327.115L198.102 319.889L209.371 312.713L198.102 305.537L209.45 298.31L220.789 305.531L232.129 298.31L243.477 305.537L232.208 312.713L243.477 319.889ZM232.05 312.713L220.789 305.542L209.529 312.713L220.789 319.883L232.05 312.713ZM209.523 329.51L220.871 322.284L232.219 329.51L220.871 336.737L209.523 329.51Z" fill="#E4FAFF"/>
</g>
<defs>
<filter id="filter0_d" x="298.074" y="161.161" width="198.441" height="198.441" filterUnits="userSpaceOnUse" color-interpolation-filters="sRGB">
<feFlood flood-opacity="0" result="BackgroundImageFix"/>
<feColorMatrix in="SourceAlpha" type="matrix" values="0 0 0 0 0 0 0 0 0 0 0 0 0 0 0 0 0 0 127 0"/>
<feOffset dx="10" dy="20"/>
<feGaussianBlur stdDeviation="30"/>
<feColorMatrix type="matrix" values="0 0 0 0 0.505882 0 0 0 0 0.537255 0 0 0 0 0.745098 0 0 0 0.3 0"/>
<feBlend mode="normal" in2="BackgroundImageFix" result="effect1_dropShadow"/>
<feBlend mode="normal" in="SourceGraphic" in2="effect1_dropShadow" result="shape"/>
</filter>
<filter id="filter1_i" x="365.395" y="222.053" width="44.5207" height="37.8689" filterUnits="userSpaceOnUse" color-interpolation-filters="sRGB">
<feFlood flood-opacity="0" result="BackgroundImageFix"/>
<feBlend mode="normal" in="SourceGraphic" in2="BackgroundImageFix" result="shape"/>
<feColorMatrix in="SourceAlpha" type="matrix" values="0 0 0 0 0 0 0 0 0 0 0 0 0 0 0 0 0 0 127 0" result="hardAlpha"/>
<feOffset dy="1"/>
<feGaussianBlur stdDeviation="3"/>
<feComposite in2="hardAlpha" operator="arithmetic" k2="-1" k3="1"/>
<feColorMatrix type="matrix" values="0 0 0 0 0 0 0 0 0 0 0 0 0 0 0 0 0 0 0.3 0"/>
<feBlend mode="normal" in2="shape" result="effect1_innerShadow"/>
</filter>
<filter id="filter2_d" x="325.891" y="335.158" width="234.585" height="234.585" filterUnits="userSpaceOnUse" color-interpolation-filters="sRGB">
<feFlood flood-opacity="0" result="BackgroundImageFix"/>
<feColorMatrix in="SourceAlpha" type="matrix" values="0 0 0 0 0 0 0 0 0 0 0 0 0 0 0 0 0 0 127 0"/>
<feOffset dx="10" dy="20"/>
<feGaussianBlur stdDeviation="30"/>
<feColorMatrix type="matrix" values="0 0 0 0 0.505882 0 0 0 0 0.537255 0 0 0 0 0.745098 0 0 0 0.3 0"/>
<feBlend mode="normal" in2="BackgroundImageFix" result="effect1_dropShadow"/>
<feBlend mode="normal" in="SourceGraphic" in2="effect1_dropShadow" result="shape"/>
</filter>
<filter id="filter3_d" x="72.0234" y="340.863" width="219.121" height="219.121" filterUnits="userSpaceOnUse" color-interpolation-filters="sRGB">
<feFlood flood-opacity="0" result="BackgroundImageFix"/>
<feColorMatrix in="SourceAlpha" type="matrix" values="0 0 0 0 0 0 0 0 0 0 0 0 0 0 0 0 0 0 127 0"/>
<feOffset dx="10" dy="20"/>
<feGaussianBlur stdDeviation="30"/>
<feColorMatrix type="matrix" values="0 0 0 0 0.505882 0 0 0 0 0.537255 0 0 0 0 0.745098 0 0 0 0.3 0"/>
<feBlend mode="normal" in2="BackgroundImageFix" result="effect1_dropShadow"/>
<feBlend mode="normal" in="SourceGraphic" in2="effect1_dropShadow" result="shape"/>
</filter>
<filter id="filter4_d" x="85.5703" y="0" width="218.314" height="218.314" filterUnits="userSpaceOnUse" color-interpolation-filters="sRGB">
<feFlood flood-opacity="0" result="BackgroundImageFix"/>
<feColorMatrix in="SourceAlpha" type="matrix" values="0 0 0 0 0 0 0 0 0 0 0 0 0 0 0 0 0 0 127 0"/>
<feOffset dx="10" dy="20"/>
<feGaussianBlur stdDeviation="30"/>
<feColorMatrix type="matrix" values="0 0 0 0 0.505882 0 0 0 0 0.537255 0 0 0 0 0.745098 0 0 0 0.3 0"/>
<feBlend mode="normal" in2="BackgroundImageFix" result="effect1_dropShadow"/>
<feBlend mode="normal" in="SourceGraphic" in2="effect1_dropShadow" result="shape"/>
</filter>
<filter id="filter5_d" x="0" y="172.571" width="214.13" height="214.129" filterUnits="userSpaceOnUse" color-interpolation-filters="sRGB">
<feFlood flood-opacity="0" result="BackgroundImageFix"/>
<feColorMatrix in="SourceAlpha" type="matrix" values="0 0 0 0 0 0 0 0 0 0 0 0 0 0 0 0 0 0 127 0"/>
<feOffset dx="10" dy="20"/>
<feGaussianBlur stdDeviation="30"/>
<feColorMatrix type="matrix" values="0 0 0 0 0.505882 0 0 0 0 0.537255 0 0 0 0 0.745098 0 0 0 0.3 0"/>
<feBlend mode="normal" in2="BackgroundImageFix" result="effect1_dropShadow"/>
<feBlend mode="normal" in="SourceGraphic" in2="effect1_dropShadow" result="shape"/>
</filter>
<filter id="filter6_d" x="288.809" y="0" width="213.872" height="213.752" filterUnits="userSpaceOnUse" color-interpolation-filters="sRGB">
<feFlood flood-opacity="0" result="BackgroundImageFix"/>
<feColorMatrix in="SourceAlpha" type="matrix" values="0 0 0 0 0 0 0 0 0 0 0 0 0 0 0 0 0 0 127 0"/>
<feOffset dx="10" dy="20"/>
<feGaussianBlur stdDeviation="30"/>
<feColorMatrix type="matrix" values="0 0 0 0 0.505882 0 0 0 0 0.537255 0 0 0 0 0.745098 0 0 0 0.3 0"/>
<feBlend mode="normal" in2="BackgroundImageFix" result="effect1_dropShadow"/>
<feBlend mode="normal" in="SourceGraphic" in2="effect1_dropShadow" result="shape"/>
</filter>
<filter id="filter7_d" x="408.609" y="159.735" width="228.392" height="228.392" filterUnits="userSpaceOnUse" color-interpolation-filters="sRGB">
<feFlood flood-opacity="0" result="BackgroundImageFix"/>
<feColorMatrix in="SourceAlpha" type="matrix" values="0 0 0 0 0 0 0 0 0 0 0 0 0 0 0 0 0 0 127 0"/>
<feOffset dx="10" dy="20"/>
<feGaussianBlur stdDeviation="30"/>
<feColorMatrix type="matrix" values="0 0 0 0 0.505882 0 0 0 0 0.537255 0 0 0 0 0.745098 0 0 0 0.3 0"/>
<feBlend mode="normal" in2="BackgroundImageFix" result="effect1_dropShadow"/>
<feBlend mode="normal" in="SourceGraphic" in2="effect1_dropShadow" result="shape"/>
</filter>
<filter id="filter8_d" x="137.625" y="244.594" width="186.319" height="185.148" filterUnits="userSpaceOnUse" color-interpolation-filters="sRGB">
<feFlood flood-opacity="0" result="BackgroundImageFix"/>
<feColorMatrix in="SourceAlpha" type="matrix" values="0 0 0 0 0 0 0 0 0 0 0 0 0 0 0 0 0 0 127 0"/>
<feOffset dx="10" dy="20"/>
<feGaussianBlur stdDeviation="30"/>
<feColorMatrix type="matrix" values="0 0 0 0 0.505882 0 0 0 0 0.537255 0 0 0 0 0.745098 0 0 0 0.3 0"/>
<feBlend mode="normal" in2="BackgroundImageFix" result="effect1_dropShadow"/>
<feBlend mode="normal" in="SourceGraphic" in2="effect1_dropShadow" result="shape"/>
</filter>
<filter id="filter9_d" x="172.625" y="271.594" width="96.3185" height="95.1485" filterUnits="userSpaceOnUse" color-interpolation-filters="sRGB">
<feFlood flood-opacity="0" result="BackgroundImageFix"/>
<feColorMatrix in="SourceAlpha" type="matrix" values="0 0 0 0 0 0 0 0 0 0 0 0 0 0 0 0 0 0 127 0"/>
<feOffset dy="2"/>
<feGaussianBlur stdDeviation="7.5"/>
<feColorMatrix type="matrix" values="0 0 0 0 0 0 0 0 0 0 0 0 0 0 0 0 0 0 0.15 0"/>
<feBlend mode="normal" in2="BackgroundImageFix" result="effect1_dropShadow"/>
<feBlend mode="normal" in="SourceGraphic" in2="effect1_dropShadow" result="shape"/>
</filter>
</defs>
</svg>
