<svg width="681" height="539" viewBox="0 0 681 539" fill="none" xmlns="http://www.w3.org/2000/svg">
<path d="M0.0563562 398.927H439.212C515.222 398.927 576.841 337.308 576.841 261.297V261.297C576.841 185.287 515.222 123.668 439.212 123.668H0" stroke="#256BFF" stroke-width="8"/>
<g filter="url(#filter0_d)">
<circle cx="550.572" cy="178.411" r="59.4309" fill="white"/>
<path d="M543.81 154.727C546.559 151.862 550.386 150.086 554.619 150.086C560.245 150.086 565.154 153.223 567.769 157.881C570.04 156.866 572.555 156.301 575.201 156.301C585.349 156.301 593.576 164.6 593.576 174.837C593.576 185.075 585.349 193.374 575.201 193.374C573.985 193.375 572.773 193.254 571.581 193.014C569.279 197.12 564.892 199.895 559.857 199.895C557.749 199.895 555.755 199.408 553.98 198.542C551.647 204.031 546.209 207.88 539.872 207.88C533.273 207.88 527.649 203.705 525.49 197.849C524.547 198.049 523.57 198.153 522.567 198.153C514.71 198.153 508.34 191.718 508.34 183.779C508.34 178.458 511.202 173.812 515.454 171.327C514.578 169.313 514.091 167.089 514.091 164.752C514.091 155.621 521.504 148.22 530.647 148.22C536.015 148.22 540.786 150.772 543.81 154.727Z" fill="#00A1E0"/>
<path d="M520.683 179.158C520.63 179.298 520.703 179.327 520.72 179.351C520.88 179.468 521.043 179.552 521.207 179.645C522.076 180.107 522.897 180.241 523.755 180.241C525.504 180.241 526.589 179.311 526.589 177.814V177.785C526.589 176.401 525.364 175.898 524.214 175.535L524.065 175.487C523.198 175.205 522.45 174.962 522.45 174.391V174.361C522.45 173.873 522.887 173.514 523.565 173.514C524.318 173.514 525.211 173.764 525.787 174.082C525.787 174.082 525.955 174.191 526.017 174.027C526.051 173.94 526.343 173.155 526.373 173.07C526.406 172.978 526.348 172.91 526.288 172.874C525.631 172.474 524.723 172.201 523.783 172.201L523.608 172.202C522.008 172.202 520.891 173.169 520.891 174.554V174.583C520.891 176.044 522.124 176.517 523.278 176.848L523.464 176.905C524.305 177.163 525.03 177.386 525.03 177.978V178.007C525.03 178.549 524.559 178.952 523.799 178.952C523.504 178.952 522.563 178.946 521.547 178.303C521.424 178.232 521.353 178.18 521.258 178.123C521.208 178.091 521.083 178.036 521.028 178.201L520.683 179.158ZM546.28 179.158C546.226 179.298 546.299 179.327 546.316 179.351C546.476 179.468 546.639 179.552 546.803 179.645C547.672 180.107 548.493 180.241 549.352 180.241C551.1 180.241 552.186 179.311 552.186 177.814V177.785C552.186 176.401 550.96 175.898 549.811 175.535L549.661 175.487C548.794 175.205 548.046 174.962 548.046 174.391V174.361C548.046 173.873 548.483 173.514 549.161 173.514C549.914 173.514 550.807 173.764 551.383 174.082C551.383 174.082 551.552 174.191 551.614 174.027C551.648 173.94 551.939 173.155 551.969 173.07C552.002 172.978 551.944 172.91 551.884 172.874C551.227 172.474 550.319 172.201 549.379 172.201L549.205 172.202C547.604 172.202 546.487 173.169 546.487 174.554V174.583C546.487 176.044 547.72 176.517 548.874 176.848L549.06 176.905C549.902 177.163 550.628 177.386 550.628 177.978V178.007C550.628 178.549 550.155 178.952 549.395 178.952C549.1 178.952 548.159 178.946 547.143 178.303C547.02 178.232 546.948 178.182 546.855 178.123C546.824 178.102 546.676 178.045 546.625 178.201L546.28 179.158ZM563.754 176.226C563.754 177.072 563.596 177.739 563.285 178.21C562.978 178.676 562.513 178.903 561.864 178.903C561.215 178.903 560.752 178.677 560.45 178.21C560.144 177.74 559.989 177.072 559.989 176.226C559.989 175.381 560.144 174.715 560.45 174.249C560.752 173.788 561.215 173.563 561.864 173.563C562.513 173.563 562.978 173.788 563.286 174.249C563.596 174.715 563.754 175.381 563.754 176.226ZM565.213 174.657C565.07 174.173 564.846 173.745 564.549 173.389C564.252 173.033 563.875 172.746 563.428 172.537C562.983 172.33 562.456 172.224 561.864 172.224C561.272 172.224 560.745 172.33 560.299 172.537C559.852 172.746 559.476 173.033 559.177 173.389C558.881 173.746 558.658 174.174 558.513 174.657C558.371 175.139 558.3 175.666 558.3 176.226C558.3 176.786 558.371 177.314 558.513 177.795C558.658 178.278 558.88 178.705 559.179 179.062C559.476 179.419 559.854 179.704 560.299 179.907C560.746 180.11 561.272 180.213 561.865 180.213C562.456 180.213 562.982 180.11 563.428 179.907C563.874 179.704 564.251 179.419 564.549 179.062C564.847 178.706 565.07 178.279 565.213 177.795C565.357 177.313 565.428 176.784 565.428 176.226C565.428 175.667 565.356 175.139 565.213 174.657ZM577.198 178.677C577.15 178.535 577.012 178.588 577.012 178.588C576.8 178.67 576.574 178.745 576.334 178.783C576.089 178.82 575.821 178.84 575.533 178.84C574.827 178.84 574.266 178.63 573.864 178.215C573.461 177.799 573.235 177.128 573.237 176.22C573.24 175.393 573.439 174.771 573.797 174.298C574.153 173.827 574.694 173.585 575.417 173.585C576.019 173.585 576.478 173.654 576.959 173.806C576.959 173.806 577.074 173.856 577.129 173.705C577.256 173.35 577.351 173.097 577.487 172.707C577.526 172.596 577.431 172.549 577.397 172.536C577.208 172.462 576.761 172.341 576.423 172.29C576.108 172.242 575.739 172.216 575.328 172.216C574.715 172.216 574.169 172.321 573.701 172.53C573.235 172.737 572.839 173.024 572.526 173.381C572.213 173.738 571.975 174.165 571.816 174.648C571.658 175.13 571.578 175.66 571.578 176.22C571.578 177.43 571.904 178.409 572.549 179.125C573.195 179.844 574.165 180.209 575.43 180.209C576.178 180.209 576.946 180.058 577.497 179.84C577.497 179.84 577.602 179.789 577.556 179.667L577.198 178.677ZM579.752 175.415C579.821 174.945 579.951 174.554 580.151 174.25C580.454 173.787 580.915 173.533 581.563 173.533C582.212 173.533 582.64 173.788 582.947 174.25C583.151 174.554 583.24 174.962 583.275 175.415H579.752ZM584.665 174.382C584.542 173.914 584.234 173.442 584.033 173.226C583.715 172.883 583.404 172.644 583.096 172.511C582.692 172.338 582.209 172.224 581.68 172.224C581.063 172.224 580.503 172.327 580.049 172.541C579.594 172.755 579.211 173.046 578.911 173.409C578.611 173.771 578.386 174.202 578.242 174.691C578.098 175.178 578.025 175.709 578.025 176.269C578.025 176.838 578.1 177.369 578.25 177.846C578.4 178.327 578.641 178.75 578.966 179.101C579.29 179.455 579.708 179.732 580.208 179.924C580.705 180.116 581.308 180.216 582.002 180.215C583.428 180.21 584.18 179.892 584.489 179.72C584.544 179.69 584.596 179.637 584.531 179.484L584.208 178.579C584.159 178.444 584.022 178.494 584.022 178.494C583.669 178.625 583.166 178.861 581.994 178.858C581.228 178.857 580.66 178.631 580.304 178.278C579.939 177.916 579.76 177.384 579.729 176.634L584.669 176.639C584.669 176.639 584.799 176.636 584.812 176.51C584.817 176.457 584.982 175.495 584.665 174.382ZM540.185 175.415C540.255 174.945 540.384 174.554 540.584 174.25C540.887 173.787 541.348 173.533 541.997 173.533C542.645 173.533 543.074 173.788 543.382 174.25C543.585 174.554 543.673 174.962 543.708 175.415H540.185ZM545.098 174.382C544.974 173.914 544.668 173.442 544.466 173.226C544.148 172.883 543.837 172.644 543.529 172.511C543.126 172.338 542.643 172.224 542.113 172.224C541.498 172.224 540.937 172.327 540.482 172.541C540.027 172.755 539.645 173.046 539.345 173.409C539.045 173.771 538.819 174.202 538.676 174.691C538.533 175.178 538.458 175.709 538.458 176.269C538.458 176.838 538.534 177.369 538.683 177.846C538.834 178.327 539.074 178.75 539.399 179.101C539.724 179.455 540.141 179.732 540.642 179.924C541.138 180.116 541.742 180.216 542.435 180.215C543.862 180.21 544.613 179.892 544.923 179.72C544.978 179.69 545.03 179.637 544.964 179.484L544.642 178.579C544.593 178.444 544.455 178.494 544.455 178.494C544.102 178.625 543.601 178.861 542.427 178.858C541.662 178.857 541.093 178.631 540.738 178.278C540.372 177.916 540.194 177.384 540.162 176.634L545.103 176.639C545.103 176.639 545.232 176.636 545.246 176.51C545.251 176.457 545.416 175.495 545.098 174.382ZM529.506 178.65C529.313 178.496 529.286 178.457 529.221 178.357C529.124 178.206 529.074 177.99 529.074 177.715C529.074 177.28 529.217 176.968 529.515 176.758C529.511 176.76 529.94 176.388 530.947 176.401C531.655 176.411 532.288 176.516 532.288 176.516V178.762H532.289C532.289 178.762 531.661 178.896 530.955 178.939C529.949 179 529.502 178.649 529.506 178.65ZM531.472 175.179C531.271 175.164 531.012 175.156 530.701 175.156C530.277 175.156 529.868 175.209 529.484 175.312C529.098 175.415 528.751 175.577 528.452 175.791C528.154 176.003 527.909 176.282 527.736 176.605C527.561 176.931 527.472 177.314 527.472 177.744C527.472 178.181 527.547 178.561 527.698 178.872C527.849 179.184 528.066 179.444 528.343 179.645C528.617 179.845 528.956 179.992 529.349 180.08C529.737 180.169 530.176 180.214 530.657 180.214C531.163 180.214 531.668 180.173 532.158 180.089C532.642 180.006 533.237 179.886 533.402 179.848C533.518 179.821 533.633 179.791 533.748 179.76C533.871 179.729 533.861 179.598 533.861 179.598L533.859 175.08C533.859 174.089 533.594 173.355 533.073 172.9C532.555 172.445 531.791 172.216 530.804 172.216C530.434 172.216 529.837 172.267 529.48 172.339C529.48 172.339 528.401 172.547 527.957 172.895C527.957 172.895 527.859 172.955 527.913 173.091L528.263 174.031C528.306 174.153 528.424 174.111 528.424 174.111C528.424 174.111 528.462 174.097 528.506 174.071C529.456 173.554 530.658 173.57 530.658 173.57C531.193 173.57 531.603 173.677 531.88 173.889C532.149 174.096 532.286 174.408 532.286 175.066V175.275C531.861 175.214 531.472 175.179 531.472 175.179ZM571.319 172.633C571.357 172.521 571.278 172.468 571.245 172.456C571.162 172.423 570.741 172.334 570.417 172.314C569.797 172.276 569.452 172.38 569.144 172.519C568.838 172.657 568.498 172.881 568.308 173.134V172.533C568.308 172.45 568.249 172.383 568.166 172.383H566.9C566.817 172.383 566.758 172.45 566.758 172.533V179.902C566.758 179.985 566.826 180.053 566.908 180.053H568.206C568.246 180.053 568.284 180.037 568.312 180.009C568.34 179.98 568.356 179.942 568.356 179.902V176.221C568.356 175.727 568.41 175.234 568.52 174.924C568.626 174.618 568.772 174.373 568.952 174.197C569.133 174.022 569.338 173.899 569.563 173.83C569.792 173.76 570.046 173.737 570.225 173.737C570.484 173.737 570.768 173.803 570.768 173.803C570.863 173.814 570.916 173.756 570.948 173.67C571.033 173.444 571.273 172.768 571.319 172.633Z" fill="white"/>
<path d="M559.137 169.218C558.979 169.169 558.836 169.136 558.649 169.101C558.459 169.067 558.233 169.05 557.977 169.05C557.083 169.05 556.379 169.303 555.885 169.8C555.393 170.296 555.059 171.05 554.892 172.042L554.831 172.376H553.709C553.709 172.376 553.573 172.371 553.544 172.519L553.361 173.547C553.347 173.645 553.39 173.706 553.521 173.706H554.613L553.505 179.889C553.419 180.387 553.319 180.796 553.209 181.107C553.101 181.413 552.995 181.642 552.864 181.81C552.738 181.97 552.619 182.089 552.412 182.158C552.242 182.216 552.046 182.242 551.831 182.242C551.712 182.242 551.553 182.223 551.435 182.198C551.318 182.175 551.256 182.15 551.168 182.112C551.168 182.112 551.04 182.064 550.989 182.191C550.949 182.297 550.658 183.097 550.623 183.195C550.589 183.294 550.637 183.37 550.699 183.393C550.845 183.444 550.953 183.478 551.151 183.526C551.425 183.59 551.657 183.594 551.874 183.594C552.328 183.594 552.744 183.529 553.087 183.405C553.432 183.28 553.733 183.063 554 182.769C554.288 182.451 554.469 182.118 554.642 181.663C554.813 181.214 554.96 180.655 555.076 180.004L556.19 173.706H557.817C557.817 173.706 557.954 173.711 557.982 173.562L558.166 172.535C558.179 172.437 558.137 172.376 558.005 172.376H556.425C556.434 172.341 556.505 171.784 556.686 171.261C556.764 171.039 556.91 170.858 557.032 170.734C557.154 170.613 557.293 170.527 557.447 170.477C557.603 170.426 557.782 170.402 557.977 170.402C558.125 170.402 558.272 170.418 558.383 170.442C558.536 170.474 558.595 170.491 558.635 170.504C558.797 170.552 558.818 170.505 558.85 170.427L559.228 169.39C559.267 169.278 559.171 169.231 559.137 169.218ZM537.066 179.903C537.066 179.985 537.006 180.052 536.924 180.052H535.614C535.531 180.052 535.473 179.985 535.473 179.903V169.358C535.473 169.276 535.531 169.209 535.614 169.209H536.924C537.006 169.209 537.066 169.276 537.066 169.358V179.903Z" fill="white"/>
</g>
<g filter="url(#filter1_d)">
<circle cx="382.051" cy="114.68" r="54.348" fill="white"/>
<path d="M409.444 84.2312H372.054C371.244 84.2312 370.467 84.5529 369.894 85.1256C369.322 85.6982 369 86.4749 369 87.2848V90.756L390.075 97.2808L412.498 90.756V87.2848C412.498 86.4749 412.176 85.6982 411.604 85.1256C411.031 84.5529 410.254 84.2312 409.444 84.2312Z" fill="#0364B8"/>
<path d="M416.085 117.736C416.403 116.734 416.658 115.714 416.846 114.68C416.846 114.426 416.779 114.177 416.651 113.957C416.524 113.737 416.342 113.554 416.122 113.427L416.093 113.41L416.085 113.406L392.513 99.9777C392.412 99.9117 392.306 99.8514 392.198 99.7972C391.747 99.5734 391.251 99.4569 390.747 99.4569C390.244 99.4569 389.747 99.5734 389.297 99.7972C389.188 99.8507 389.083 99.9102 388.981 99.9755L365.41 113.408L365.401 113.412L365.375 113.427C365.154 113.554 364.971 113.736 364.844 113.956C364.716 114.176 364.649 114.426 364.648 114.68C364.837 115.714 365.091 116.734 365.41 117.736L390.404 136.016L416.085 117.736Z" fill="#0A2767"/>
<path d="M399.448 90.7559H384.224L379.828 97.2806L384.224 103.805L399.448 116.855H412.497V103.805L399.448 90.7559Z" fill="#28A8EA"/>
<path d="M369 90.7559H384.224V103.805H369V90.7559Z" fill="#0078D4"/>
<path d="M399.449 90.7559H412.499V103.805H399.449V90.7559Z" fill="#50D9FF"/>
<path d="M399.449 116.855L384.224 103.805H369V116.855L384.224 129.904L407.783 133.749L399.449 116.855Z" fill="#0364B8"/>
<path d="M384.227 103.805H399.451V116.855H384.227V103.805Z" fill="#0078D4"/>
<path d="M369 116.855H384.224V129.904H369V116.855Z" fill="#064A8C"/>
<path d="M399.449 116.855H412.499V129.904H399.449V116.855Z" fill="#0078D4"/>
<path opacity="0.5" d="M391.16 134.728L365.512 116.024L366.588 114.132C366.588 114.132 389.958 127.442 390.314 127.642C390.46 127.701 390.617 127.728 390.774 127.724C390.931 127.719 391.085 127.683 391.228 127.616L415.006 114.067L416.085 115.957L391.16 134.728Z" fill="#0A2767"/>
<path d="M416.124 115.935L416.093 115.952L416.087 115.957L392.515 129.384C392.047 129.686 391.509 129.863 390.953 129.898C390.397 129.932 389.842 129.824 389.34 129.582L397.548 140.589L415.499 144.498V144.506C415.917 144.204 416.257 143.807 416.491 143.348C416.726 142.889 416.848 142.381 416.848 141.866V114.68C416.848 114.934 416.781 115.184 416.654 115.404C416.527 115.625 416.344 115.808 416.124 115.935Z" fill="#1490DF"/>
<path opacity="0.05" d="M416.848 141.866V140.261L395.136 127.89L392.515 129.384C392.047 129.686 391.509 129.863 390.953 129.898C390.397 129.932 389.842 129.824 389.34 129.582L397.548 140.59L415.5 144.498V144.507C415.917 144.204 416.257 143.808 416.491 143.349C416.726 142.89 416.848 142.382 416.848 141.866Z" fill="black"/>
<path opacity="0.1" d="M416.739 142.699L392.939 129.143L392.515 129.382C392.047 129.684 391.51 129.861 390.954 129.896C390.398 129.931 389.842 129.823 389.34 129.582L397.548 140.589L415.5 144.498V144.506C416.108 144.065 416.546 143.428 416.739 142.701V142.699Z" fill="black"/>
<path d="M365.41 115.963V115.941H365.388L365.323 115.898C365.115 115.77 364.943 115.591 364.825 115.378C364.707 115.164 364.646 114.924 364.648 114.68V141.866C364.648 142.295 364.732 142.719 364.896 143.115C365.059 143.511 365.3 143.871 365.603 144.174C365.906 144.477 366.266 144.718 366.662 144.881C367.058 145.045 367.482 145.129 367.911 145.128H413.584C413.855 145.126 414.126 145.089 414.388 145.02C414.525 144.996 414.657 144.952 414.78 144.889C414.826 144.885 414.871 144.87 414.91 144.846C415.088 144.773 415.256 144.678 415.411 144.563C415.454 144.541 415.476 144.541 415.498 144.498L365.41 115.963Z" fill="#28A8EA"/>
<path opacity="0.1" d="M386.397 133.53V98.0049C386.395 97.2367 386.089 96.5006 385.546 95.9574C385.003 95.4142 384.266 95.108 383.498 95.1057H369.063V111.322L365.41 113.405L365.399 113.41L365.373 113.425C365.152 113.552 364.97 113.735 364.842 113.955C364.715 114.176 364.648 114.425 364.648 114.68V114.691V114.68V136.429H383.498C384.266 136.426 385.003 136.12 385.546 135.577C386.089 135.034 386.395 134.298 386.397 133.53Z" fill="black"/>
<path opacity="0.2" d="M384.223 135.705V100.18C384.22 99.4116 383.914 98.6756 383.371 98.1324C382.828 97.5892 382.092 97.283 381.323 97.2807H369.063V111.322L365.41 113.405L365.399 113.41L365.373 113.425C365.152 113.552 364.97 113.735 364.842 113.955C364.715 114.176 364.648 114.426 364.648 114.68V114.691V114.68V138.604H381.323C382.092 138.601 382.828 138.295 383.371 137.752C383.914 137.209 384.22 136.473 384.223 135.705Z" fill="black"/>
<path opacity="0.2" d="M384.223 131.355V100.18C384.22 99.4116 383.914 98.6756 383.371 98.1324C382.828 97.5892 382.092 97.283 381.323 97.2807H369.063V111.322L365.41 113.405L365.399 113.41L365.373 113.425C365.152 113.552 364.97 113.735 364.842 113.955C364.715 114.176 364.648 114.425 364.648 114.68V114.691V114.68V134.254H381.323C382.092 134.252 382.828 133.945 383.371 133.402C383.914 132.859 384.22 132.123 384.223 131.355Z" fill="black"/>
<path opacity="0.2" d="M382.048 131.355V100.18C382.045 99.4116 381.739 98.6756 381.196 98.1324C380.653 97.5892 379.917 97.283 379.148 97.2807H369.063V111.322L365.41 113.405L365.399 113.41L365.373 113.425C365.152 113.552 364.97 113.735 364.842 113.955C364.715 114.176 364.648 114.425 364.648 114.68V114.691V114.68V134.254H379.148C379.917 134.252 380.653 133.945 381.196 133.402C381.739 132.859 382.045 132.123 382.048 131.355Z" fill="black"/>
<path d="M350.149 97.2807H379.149C379.918 97.2807 380.656 97.5861 381.199 98.1298C381.743 98.6735 382.048 99.4109 382.048 100.18V129.18C382.048 129.949 381.743 130.686 381.199 131.23C380.656 131.774 379.918 132.079 379.149 132.079H350.149C349.38 132.079 348.643 131.774 348.099 131.23C347.555 130.686 347.25 129.949 347.25 129.18V100.18C347.25 99.4109 347.555 98.6735 348.099 98.1298C348.643 97.5861 349.38 97.2807 350.149 97.2807Z" fill="#0078D4"/>
<path d="M355.659 109.173C356.429 107.531 357.673 106.157 359.23 105.228C360.955 104.24 362.92 103.748 364.907 103.805C366.746 103.765 368.562 104.232 370.155 105.154C371.654 106.047 372.861 107.356 373.63 108.923C374.468 110.65 374.885 112.55 374.848 114.469C374.888 116.473 374.459 118.459 373.593 120.267C372.808 121.89 371.564 123.246 370.015 124.169C368.36 125.12 366.476 125.6 364.567 125.555C362.687 125.599 360.831 125.128 359.2 124.191C357.688 123.296 356.467 121.986 355.681 120.415C354.837 118.714 354.415 116.835 354.448 114.937C354.411 112.949 354.825 110.978 355.659 109.173ZM359.465 118.434C359.875 119.472 360.571 120.372 361.472 121.031C362.391 121.673 363.49 122.005 364.611 121.977C365.804 122.023 366.981 121.68 367.962 121C368.853 120.342 369.532 119.437 369.913 118.397C370.341 117.238 370.552 116.011 370.535 114.776C370.549 113.529 370.35 112.289 369.948 111.109C369.593 110.047 368.939 109.11 368.065 108.412C367.109 107.697 365.936 107.334 364.743 107.383C363.599 107.354 362.474 107.688 361.531 108.338C360.612 108.998 359.9 109.905 359.478 110.954C358.544 113.36 358.538 116.027 359.463 118.436L359.465 118.434Z" fill="white"/>
</g>
<g filter="url(#filter2_d)">
<path d="M124.861 175.283C162.266 175.283 192.588 144.999 192.588 107.642C192.588 70.2842 162.266 40 124.861 40C87.4556 40 57.1328 70.2842 57.1328 107.642C57.1328 144.999 87.4556 175.283 124.861 175.283Z" fill="white"/>
<path d="M104.688 73.5997C104.688 68.6038 108.756 64.5405 113.758 64.5405C118.761 64.5405 122.829 68.6038 122.829 73.5997V82.6588H113.758C108.756 82.6588 104.688 78.5956 104.688 73.5997Z" fill="#35C5F1"/>
<path d="M145.422 142.066C145.422 147.062 141.353 151.125 136.351 151.125C131.349 151.125 127.281 147.062 127.281 142.066V133.007H136.351C141.353 133.007 145.422 137.07 145.422 142.066Z" fill="#ECB22F"/>
<path d="M159.332 87.1072C164.334 87.1072 168.402 91.1705 168.402 96.1664C168.402 101.162 164.334 105.226 159.332 105.226H150.261V96.1664C150.261 91.1705 154.329 87.1072 159.332 87.1072Z" fill="#2DB67C"/>
<path d="M90.3949 128.175C85.3926 128.175 81.3242 124.112 81.3242 119.116C81.3242 114.12 85.3926 110.057 90.3949 110.057H99.4656V119.116C99.4656 124.112 95.3972 128.175 90.3949 128.175Z" fill="#E01E5A"/>
<path d="M145.423 73.2165C145.423 68.2132 141.362 64.1573 136.352 64.1573C131.342 64.1573 127.281 68.2132 127.281 73.2165V96.1665C127.281 101.17 131.342 105.226 136.352 105.226C141.362 105.226 145.423 101.17 145.423 96.1665V73.2165Z" fill="#2DB67C"/>
<path d="M122.446 119.117C122.446 114.113 118.385 110.057 113.375 110.057C108.366 110.057 104.305 114.113 104.305 119.117V142.066C104.305 147.07 108.366 151.126 113.375 151.126C118.385 151.126 122.446 147.07 122.446 142.066V119.117Z" fill="#E01E5A"/>
<path fill-rule="evenodd" clip-rule="evenodd" d="M122.445 96.1664C122.445 101.17 118.384 105.226 113.375 105.226H90.3956C85.386 105.226 81.3249 101.17 81.3249 96.1664C81.3249 91.1632 85.386 87.1072 90.3956 87.1072H113.375C118.384 87.1072 122.445 91.1632 122.445 96.1664Z" fill="#35C5F1"/>
<path fill-rule="evenodd" clip-rule="evenodd" d="M168.402 119.117C168.402 124.12 164.341 128.176 159.332 128.176H136.353C131.343 128.176 127.282 124.12 127.282 119.117C127.282 114.113 131.343 110.057 136.353 110.057H159.332C164.341 110.057 168.402 114.113 168.402 119.117Z" fill="#ECB22F"/>
</g>
<g filter="url(#filter3_d)">
<g opacity="0.91" filter="url(#filter4_d)">
<path d="M550.507 358.549C568.611 358.549 583.287 344.132 583.287 326.347C583.287 308.563 568.611 294.145 550.507 294.145C532.403 294.145 517.727 308.563 517.727 326.347C517.727 344.132 532.403 358.549 550.507 358.549Z" fill="black"/>
</g>
<path d="M550.507 358.549C568.611 358.549 583.287 344.132 583.287 326.347C583.287 308.563 568.611 294.145 550.507 294.145C532.403 294.145 517.727 308.563 517.727 326.347C517.727 344.132 532.403 358.549 550.507 358.549Z" fill="#0D2481"/>
<path opacity="0.91" fill-rule="evenodd" clip-rule="evenodd" d="M572.935 329.037L561.717 336.18L550.507 329.042L539.297 336.18L528.078 329.037L539.218 321.942L528.078 314.849L539.297 307.704L550.507 314.842L561.717 307.704L572.935 314.849L561.795 321.942L572.935 329.037ZM561.638 321.942L550.507 314.854L539.375 321.942L550.507 329.031L561.638 321.942ZM539.369 338.548L550.587 331.404L561.806 338.548L550.587 345.692L539.369 338.548Z" fill="#E4FAFF"/>
</g>
<g filter="url(#filter5_d)">
<ellipse cx="264.632" cy="395.29" rx="62.8268" ry="62.8268" fill="#FF7A59"/>
<path d="M246.117 382.996V374.336C244.971 373.801 244 372.952 243.318 371.888C242.636 370.824 242.271 369.588 242.265 368.325V368.126C242.265 364.443 245.256 361.457 248.946 361.457H249.146C252.836 361.457 255.827 364.443 255.827 368.126V368.325C255.821 369.588 255.456 370.824 254.774 371.888C254.092 372.952 253.121 373.801 251.975 374.336V382.996C255.27 383.5 258.374 384.863 260.971 386.949L284.767 368.45C284.597 367.838 284.509 367.21 284.499 366.579C284.496 365.092 284.935 363.639 285.76 362.401C286.585 361.164 287.759 360.199 289.134 359.627C290.508 359.056 292.022 358.905 293.483 359.192C294.944 359.48 296.287 360.193 297.341 361.242C298.396 362.292 299.115 363.629 299.408 365.087C299.701 366.544 299.554 368.055 298.986 369.429C298.418 370.803 297.455 371.978 296.218 372.806C294.981 373.633 293.526 374.076 292.037 374.078C290.734 374.072 289.456 373.724 288.329 373.071L264.897 391.27C269.205 397.766 269.09 406.231 264.607 412.608L271.734 419.724C272.31 419.54 272.91 419.442 273.515 419.434C276.928 419.437 279.693 422.2 279.692 425.606C279.691 429.013 276.925 431.774 273.512 431.775C270.099 431.776 267.331 429.016 267.328 425.609C267.336 425.006 267.434 424.407 267.618 423.832L260.568 416.792C254.268 421.633 245.616 422.05 238.878 417.838C232.141 413.625 228.741 405.673 230.355 397.903C231.969 390.133 238.257 384.187 246.117 382.996V382.996ZM249.04 411.478C250.342 411.513 251.639 411.288 252.852 410.814C254.066 410.341 255.172 409.63 256.106 408.722C257.04 407.815 257.782 406.731 258.288 405.532C258.795 404.334 259.056 403.047 259.056 401.746C259.056 400.446 258.795 399.159 258.288 397.96C257.782 396.762 257.04 395.678 256.106 394.77C255.172 393.863 254.066 393.152 252.852 392.679C251.639 392.205 250.342 391.979 249.04 392.014C243.791 392.198 239.63 396.497 239.627 401.739C239.625 406.981 243.781 411.285 249.03 411.473" fill="white"/>
</g>
<g filter="url(#filter6_d)">
<circle cx="453.603" cy="380.164" r="51.611" fill="white"/>
<path fill-rule="evenodd" clip-rule="evenodd" d="M479.156 376.955C479.467 377.483 479.569 378.084 479.602 378.759L479.647 379.659V385.951L479.692 386.852C479.782 388.323 480.884 389.411 482.391 389.503L483.301 389.548V379.659L483.346 378.759C483.384 378.091 483.484 377.479 483.8 376.948C484.122 376.403 484.584 375.95 485.139 375.636C485.695 375.322 486.324 375.157 486.965 375.158C487.606 375.159 488.235 375.326 488.789 375.643C489.343 375.959 489.803 376.413 490.123 376.959C490.434 377.487 490.531 378.099 490.568 378.759L490.613 379.656V385.951L490.658 386.852C490.752 388.33 491.846 389.418 493.357 389.503L494.268 389.548V378.759C494.268 376.851 493.498 375.021 492.128 373.672C490.757 372.323 488.898 371.565 486.96 371.564C485.922 371.563 484.896 371.78 483.951 372.2C483.005 372.62 482.161 373.234 481.476 374.001C480.791 373.234 479.947 372.621 479.002 372.2C478.056 371.78 477.03 371.562 475.993 371.563C474.475 371.563 473.067 372.016 471.9 372.799C471.188 372.017 469.595 371.563 468.681 371.563V389.548L469.595 389.503C471.125 389.404 472.23 388.346 472.289 386.852L472.338 385.951V379.659L472.383 378.759C472.422 378.08 472.518 377.483 472.83 376.952C473.151 376.407 473.613 375.954 474.168 375.64C474.723 375.325 475.352 375.16 475.993 375.159C476.634 375.16 477.264 375.326 477.819 375.641C478.374 375.956 478.835 376.409 479.156 376.955ZM416.596 389.504L417.51 389.548H431.216L431.171 388.651C431.048 387.172 429.983 386.092 428.476 385.995L427.562 385.951H419.339L430.302 375.158L430.257 374.262C430.186 372.769 429.077 371.689 427.562 371.607L426.647 371.567L412.941 371.563L412.987 372.463C413.106 373.927 414.186 375.03 415.681 375.115L416.596 375.159H424.819L413.856 385.952L413.901 386.852C413.991 388.334 415.078 389.408 416.596 389.503V389.504ZM465.093 374.195C465.942 375.03 466.615 376.022 467.074 377.113C467.534 378.204 467.77 379.373 467.77 380.554C467.77 381.735 467.534 382.905 467.074 383.996C466.615 385.087 465.942 386.078 465.093 386.913C463.379 388.599 461.054 389.546 458.63 389.546C456.207 389.546 453.882 388.599 452.167 386.913C448.599 383.402 448.599 377.707 452.167 374.195C453.015 373.361 454.022 372.698 455.13 372.247C456.238 371.795 457.425 371.562 458.625 371.562C459.826 371.561 461.015 371.793 462.125 372.245C463.235 372.697 464.244 373.36 465.093 374.196V374.195ZM462.508 376.742C463.535 377.754 464.113 379.127 464.113 380.558C464.113 381.989 463.535 383.361 462.508 384.373C461.479 385.385 460.084 385.953 458.63 385.953C457.176 385.953 455.782 385.385 454.753 384.373C453.725 383.361 453.148 381.989 453.148 380.558C453.148 379.127 453.725 377.754 454.753 376.742C455.782 375.73 457.176 375.162 458.63 375.162C460.084 375.162 461.479 375.73 462.508 376.742ZM439.447 371.562C440.646 371.562 441.834 371.795 442.942 372.247C444.05 372.699 445.056 373.361 445.904 374.196C449.473 377.707 449.473 383.403 445.904 386.913C444.189 388.599 441.865 389.546 439.441 389.546C437.017 389.546 434.693 388.599 432.978 386.913C429.41 383.402 429.41 377.707 432.978 374.195C433.826 373.361 434.833 372.698 435.94 372.247C437.048 371.795 438.236 371.562 439.435 371.562H439.447ZM443.318 376.74C444.346 377.752 444.924 379.125 444.924 380.556C444.924 381.987 444.346 383.36 443.318 384.372C442.29 385.384 440.895 385.952 439.441 385.952C437.987 385.952 436.592 385.384 435.564 384.372C434.536 383.36 433.959 381.988 433.959 380.557C433.959 379.126 434.536 377.753 435.564 376.741C436.592 375.73 437.987 375.161 439.441 375.161C440.895 375.161 442.29 375.73 443.318 376.741V376.74Z" fill="#2D8CFF"/>
</g>
<g filter="url(#filter7_d)">
<ellipse cx="362.888" cy="261.302" rx="43.0092" ry="43.0093" fill="white"/>
<g filter="url(#filter8_i)">
<path fill-rule="evenodd" clip-rule="evenodd" d="M354.915 247.671C356.074 243.827 359.919 241.996 362.237 241.203L363.519 242.179L362.665 244.986C363.397 245.536 364.007 246.268 364.373 247.122C364.739 247.976 364.861 248.892 364.739 249.868C364.617 250.783 364.251 251.638 363.641 252.37C363.031 253.102 362.237 253.651 361.383 253.957C360.529 254.262 359.552 254.323 358.637 254.14C357.722 253.957 356.868 253.468 356.196 252.858C355.525 252.187 355.037 251.394 354.793 250.478C354.671 249.502 354.671 248.587 354.915 247.671ZM387.685 264.635C386.586 267.808 384.878 270.676 382.681 273.178C380.484 275.68 377.738 277.693 374.748 279.158C371.758 280.622 368.463 281.416 365.107 281.599C361.751 281.782 358.456 281.233 355.282 280.073C352.109 278.914 349.241 277.144 346.801 274.886C344.36 272.629 342.407 269.883 341.004 266.832C339.6 263.781 338.99 260.547 338.868 257.19C338.807 253.834 339.356 250.539 340.576 247.427L348.997 250.539C348.143 252.553 347.777 254.689 347.777 256.885C347.777 259.082 348.265 261.218 349.119 263.17C349.974 265.184 351.255 266.954 352.842 268.418C354.428 269.883 356.259 271.042 358.334 271.774C360.347 272.507 362.544 272.873 364.68 272.751C366.815 272.629 368.951 272.08 370.904 271.164C372.856 270.188 374.565 268.845 376.03 267.259C377.433 265.611 378.531 263.72 379.203 261.645L387.685 264.635ZM371.635 261.279C373.282 260.303 376.028 258.228 376.395 255.055C376.517 254.323 376.395 253.529 376.028 252.858C375.662 252.187 375.174 251.638 374.564 251.211C373.954 250.783 373.221 250.539 372.489 250.539C371.757 250.539 371.025 250.722 370.353 251.089C369.743 251.455 369.194 252.004 368.828 252.675C368.462 253.346 368.279 254.079 368.34 254.811C368.34 255.543 368.584 256.275 369.011 256.886C369.438 257.496 370.048 257.984 370.72 258.289L370.476 260.669L371.635 261.279Z" fill="#1C2833"/>
</g>
</g>
<g filter="url(#filter9_d)">
<ellipse cx="248.724" cy="114.289" rx="39.0993" ry="39.0994" fill="white"/>
<g opacity="0.849864">
<path opacity="0.849864" d="M231.145 126.639V102.317L254.016 94.3661L266.446 98.108V130.848L254.016 134.373L231.145 126.639L254.016 129.228V100.915L239.1 104.189V123.365L231.145 126.639Z" fill="#EB3C00"/>
</g>
</g>
<defs>
<filter id="filter0_d" x="441.141" y="78.9805" width="238.862" height="238.862" filterUnits="userSpaceOnUse" color-interpolation-filters="sRGB">
<feFlood flood-opacity="0" result="BackgroundImageFix"/>
<feColorMatrix in="SourceAlpha" type="matrix" values="0 0 0 0 0 0 0 0 0 0 0 0 0 0 0 0 0 0 127 0"/>
<feOffset dx="10" dy="20"/>
<feGaussianBlur stdDeviation="30"/>
<feColorMatrix type="matrix" values="0 0 0 0 0.505882 0 0 0 0 0.537255 0 0 0 0 0.745098 0 0 0 0.3 0"/>
<feBlend mode="normal" in2="BackgroundImageFix" result="effect1_dropShadow"/>
<feBlend mode="normal" in="SourceGraphic" in2="effect1_dropShadow" result="shape"/>
</filter>
<filter id="filter1_d" x="277.703" y="20.3316" width="228.696" height="228.696" filterUnits="userSpaceOnUse" color-interpolation-filters="sRGB">
<feFlood flood-opacity="0" result="BackgroundImageFix"/>
<feColorMatrix in="SourceAlpha" type="matrix" values="0 0 0 0 0 0 0 0 0 0 0 0 0 0 0 0 0 0 127 0"/>
<feOffset dx="10" dy="20"/>
<feGaussianBlur stdDeviation="30"/>
<feColorMatrix type="matrix" values="0 0 0 0 0.505882 0 0 0 0 0.537255 0 0 0 0 0.745098 0 0 0 0.3 0"/>
<feBlend mode="normal" in2="BackgroundImageFix" result="effect1_dropShadow"/>
<feBlend mode="normal" in="SourceGraphic" in2="effect1_dropShadow" result="shape"/>
</filter>
<filter id="filter2_d" x="7.13281" y="0" width="255.456" height="255.283" filterUnits="userSpaceOnUse" color-interpolation-filters="sRGB">
<feFlood flood-opacity="0" result="BackgroundImageFix"/>
<feColorMatrix in="SourceAlpha" type="matrix" values="0 0 0 0 0 0 0 0 0 0 0 0 0 0 0 0 0 0 127 0"/>
<feOffset dx="10" dy="20"/>
<feGaussianBlur stdDeviation="30"/>
<feColorMatrix type="matrix" values="0 0 0 0 0.505882 0 0 0 0 0.537255 0 0 0 0 0.745098 0 0 0 0.3 0"/>
<feBlend mode="normal" in2="BackgroundImageFix" result="effect1_dropShadow"/>
<feBlend mode="normal" in="SourceGraphic" in2="effect1_dropShadow" result="shape"/>
</filter>
<filter id="filter3_d" x="467.727" y="254.145" width="185.56" height="184.404" filterUnits="userSpaceOnUse" color-interpolation-filters="sRGB">
<feFlood flood-opacity="0" result="BackgroundImageFix"/>
<feColorMatrix in="SourceAlpha" type="matrix" values="0 0 0 0 0 0 0 0 0 0 0 0 0 0 0 0 0 0 127 0"/>
<feOffset dx="10" dy="20"/>
<feGaussianBlur stdDeviation="30"/>
<feColorMatrix type="matrix" values="0 0 0 0 0.505882 0 0 0 0 0.537255 0 0 0 0 0.745098 0 0 0 0.3 0"/>
<feBlend mode="normal" in2="BackgroundImageFix" result="effect1_dropShadow"/>
<feBlend mode="normal" in="SourceGraphic" in2="effect1_dropShadow" result="shape"/>
</filter>
<filter id="filter4_d" x="502.727" y="281.145" width="95.5604" height="94.4037" filterUnits="userSpaceOnUse" color-interpolation-filters="sRGB">
<feFlood flood-opacity="0" result="BackgroundImageFix"/>
<feColorMatrix in="SourceAlpha" type="matrix" values="0 0 0 0 0 0 0 0 0 0 0 0 0 0 0 0 0 0 127 0"/>
<feOffset dy="2"/>
<feGaussianBlur stdDeviation="7.5"/>
<feColorMatrix type="matrix" values="0 0 0 0 0 0 0 0 0 0 0 0 0 0 0 0 0 0 0.15 0"/>
<feBlend mode="normal" in2="BackgroundImageFix" result="effect1_dropShadow"/>
<feBlend mode="normal" in="SourceGraphic" in2="effect1_dropShadow" result="shape"/>
</filter>
<filter id="filter5_d" x="151.805" y="292.463" width="245.654" height="245.654" filterUnits="userSpaceOnUse" color-interpolation-filters="sRGB">
<feFlood flood-opacity="0" result="BackgroundImageFix"/>
<feColorMatrix in="SourceAlpha" type="matrix" values="0 0 0 0 0 0 0 0 0 0 0 0 0 0 0 0 0 0 127 0"/>
<feOffset dx="10" dy="20"/>
<feGaussianBlur stdDeviation="30"/>
<feColorMatrix type="matrix" values="0 0 0 0 0.505882 0 0 0 0 0.537255 0 0 0 0 0.745098 0 0 0 0.3 0"/>
<feBlend mode="normal" in2="BackgroundImageFix" result="effect1_dropShadow"/>
<feBlend mode="normal" in="SourceGraphic" in2="effect1_dropShadow" result="shape"/>
</filter>
<filter id="filter6_d" x="351.992" y="288.553" width="223.222" height="223.222" filterUnits="userSpaceOnUse" color-interpolation-filters="sRGB">
<feFlood flood-opacity="0" result="BackgroundImageFix"/>
<feColorMatrix in="SourceAlpha" type="matrix" values="0 0 0 0 0 0 0 0 0 0 0 0 0 0 0 0 0 0 127 0"/>
<feOffset dx="10" dy="20"/>
<feGaussianBlur stdDeviation="30"/>
<feColorMatrix type="matrix" values="0 0 0 0 0.505882 0 0 0 0 0.537255 0 0 0 0 0.745098 0 0 0 0.3 0"/>
<feBlend mode="normal" in2="BackgroundImageFix" result="effect1_dropShadow"/>
<feBlend mode="normal" in="SourceGraphic" in2="effect1_dropShadow" result="shape"/>
</filter>
<filter id="filter7_d" x="269.879" y="178.292" width="206.018" height="206.019" filterUnits="userSpaceOnUse" color-interpolation-filters="sRGB">
<feFlood flood-opacity="0" result="BackgroundImageFix"/>
<feColorMatrix in="SourceAlpha" type="matrix" values="0 0 0 0 0 0 0 0 0 0 0 0 0 0 0 0 0 0 127 0"/>
<feOffset dx="10" dy="20"/>
<feGaussianBlur stdDeviation="30"/>
<feColorMatrix type="matrix" values="0 0 0 0 0.505882 0 0 0 0 0.537255 0 0 0 0 0.745098 0 0 0 0.3 0"/>
<feBlend mode="normal" in2="BackgroundImageFix" result="effect1_dropShadow"/>
<feBlend mode="normal" in="SourceGraphic" in2="effect1_dropShadow" result="shape"/>
</filter>
<filter id="filter8_i" x="338.863" y="241.203" width="48.8213" height="41.4302" filterUnits="userSpaceOnUse" color-interpolation-filters="sRGB">
<feFlood flood-opacity="0" result="BackgroundImageFix"/>
<feBlend mode="normal" in="SourceGraphic" in2="BackgroundImageFix" result="shape"/>
<feColorMatrix in="SourceAlpha" type="matrix" values="0 0 0 0 0 0 0 0 0 0 0 0 0 0 0 0 0 0 127 0" result="hardAlpha"/>
<feOffset dy="1"/>
<feGaussianBlur stdDeviation="3"/>
<feComposite in2="hardAlpha" operator="arithmetic" k2="-1" k3="1"/>
<feColorMatrix type="matrix" values="0 0 0 0 0 0 0 0 0 0 0 0 0 0 0 0 0 0 0.3 0"/>
<feBlend mode="normal" in2="shape" result="effect1_innerShadow"/>
</filter>
<filter id="filter9_d" x="159.625" y="35.1893" width="198.199" height="198.199" filterUnits="userSpaceOnUse" color-interpolation-filters="sRGB">
<feFlood flood-opacity="0" result="BackgroundImageFix"/>
<feColorMatrix in="SourceAlpha" type="matrix" values="0 0 0 0 0 0 0 0 0 0 0 0 0 0 0 0 0 0 127 0"/>
<feOffset dx="10" dy="20"/>
<feGaussianBlur stdDeviation="30"/>
<feColorMatrix type="matrix" values="0 0 0 0 0.505882 0 0 0 0 0.537255 0 0 0 0 0.745098 0 0 0 0.3 0"/>
<feBlend mode="normal" in2="BackgroundImageFix" result="effect1_dropShadow"/>
<feBlend mode="normal" in="SourceGraphic" in2="effect1_dropShadow" result="shape"/>
</filter>
</defs>
</svg>
